<svg width="60" height="60" viewBox="0 0 60 60" fill="none" xmlns="http://www.w3.org/2000/svg">
<rect width="60" height="60" rx="10" fill="#CFDCE5" fill-opacity="0.5"/>
<path d="M44.7502 32.3881H44.5245C44.5005 32.1337 44.4721 31.8907 44.4396 31.66C44.5752 31.3738 44.6621 31.0544 44.6852 30.7157L45.0565 25.3532C45.1065 24.6244 44.8627 23.9144 44.3877 23.405C43.9709 22.9582 43.4202 22.7119 42.837 22.7119H17.1633C16.5802 22.7119 16.0295 22.9581 15.6127 23.405C15.1377 23.9144 14.8939 24.6244 14.9439 25.3532L15.3152 30.7157C15.3414 31.0957 15.4464 31.4507 15.6127 31.7619C15.5854 31.9619 15.5613 32.1707 15.5404 32.3882H15.2502C15.0776 32.3882 14.9377 32.5281 14.9377 32.7007C14.9377 32.8732 15.0776 33.0132 15.2502 33.0132H15.4913C15.4463 33.7439 15.437 34.5642 15.4745 35.485C15.4777 35.5663 15.5127 35.6432 15.572 35.6988C15.6333 35.7575 16.2295 36.2832 18.177 36.7394C18.1858 36.7412 18.1958 36.7432 18.2052 36.7444C18.262 36.7525 18.9483 36.845 19.7758 36.845C20.5677 36.845 21.4895 36.76 22.1083 36.4331C22.5164 36.6425 23.6095 37.0844 25.837 37.2869C25.8464 37.2875 25.8558 37.2881 25.8658 37.2881C25.9914 37.2881 28.8145 37.2782 30.0527 36.4387C30.4695 36.65 31.5633 37.0862 33.7714 37.2869C33.7808 37.2875 33.7902 37.2881 33.7995 37.2881C33.9259 37.2881 36.7664 37.2782 37.9989 36.4307C38.617 36.7382 39.5139 36.8194 40.287 36.8194C41.1139 36.8194 41.8008 36.7269 41.8576 36.7188C41.867 36.7175 41.8764 36.7157 41.8857 36.7138C43.8326 36.2569 44.4295 35.7313 44.4907 35.6732C44.5501 35.617 44.5845 35.5407 44.5883 35.4594C44.6256 34.5492 44.6165 33.7377 44.5727 33.0132H44.7502C44.9228 33.0132 45.0627 32.8732 45.0627 32.7007C45.0627 32.5281 44.9228 32.3881 44.7502 32.3881ZM42.687 32.3399V31.9194C42.687 31.7269 42.5308 31.5706 42.3383 31.5706H42.2483C42.0552 31.5706 41.8989 31.7269 41.8989 31.9194V32.3062H40.3645V31.9194C40.3645 31.7269 40.2083 31.5706 40.0158 31.5706H39.9259C39.7327 31.5706 39.5764 31.7269 39.5764 31.9194V32.3582V32.3881H38.4684C38.4697 32.3782 38.4709 32.3682 38.472 32.3582C38.7714 29.9932 39.3783 28.4288 40.2302 27.8287C40.7052 27.4944 41.2596 27.4594 41.9259 27.7219C41.929 27.7232 41.9277 27.7225 41.9308 27.7237C41.9483 27.7312 43.2814 28.2994 43.7915 31.55C43.8327 31.8115 43.8684 32.0908 43.8975 32.3881H42.687V32.3399ZM35.5514 32.3581V31.9193C35.5514 31.7268 35.3952 31.5705 35.202 31.5705H35.1127C34.9195 31.5705 34.7633 31.7268 34.7633 31.9193V32.3062H33.2289V31.9193C33.2289 31.7268 33.0727 31.5705 32.8795 31.5705H32.7895C32.597 31.5705 32.4408 31.7268 32.4408 31.9193V32.3581V32.388H30.5545C30.5559 32.3782 30.557 32.3679 30.5583 32.3581C30.9396 29.4625 31.7589 28.0268 32.4764 27.3155C33.1633 26.6349 33.7508 26.6224 33.7914 26.6224H33.7995C34.4845 26.6224 35.0665 26.878 35.5777 27.403C36.6452 28.4993 37.1651 30.5355 37.4176 32.358C37.419 32.368 37.4202 32.3779 37.4215 32.388H35.5514V32.3581ZM27.5327 32.3581V31.9193C27.5327 31.7268 27.3758 31.5705 27.1833 31.5705H27.0934C26.9009 31.5705 26.744 31.7268 26.744 31.9193V32.3062H25.2102V31.9193C25.2102 31.7268 25.0534 31.5705 24.8609 31.5705H24.7709C24.5777 31.5705 24.4215 31.7268 24.4215 31.9193V32.3581V32.388H22.6202C22.6215 32.3782 22.6227 32.3679 22.624 32.3581C23.0059 29.4625 23.8252 28.0268 24.5427 27.3155C25.2296 26.6349 25.8172 26.6224 25.8571 26.6224H25.8659C26.5502 26.6224 27.1321 26.878 27.644 27.403C28.7115 28.4993 29.2315 30.5355 29.4834 32.358C29.4847 32.368 29.4859 32.3779 29.4873 32.388H27.5327V32.3581ZM20.4864 32.3581V31.9193C20.4864 31.7268 20.3302 31.5705 20.137 31.5705H20.047C19.8545 31.5705 19.6977 31.7268 19.6977 31.9193V32.3062H18.1639V31.9193C18.1639 31.7268 18.007 31.5705 17.8145 31.5705H17.7245C17.5314 31.5705 17.3752 31.7268 17.3752 31.9193V32.3487V32.388H16.1683C16.1946 32.1227 16.2264 31.871 16.2627 31.6343C16.7627 28.3524 18.097 27.7636 18.1314 27.7499C18.1333 27.7487 18.1352 27.748 18.137 27.7474C18.8033 27.4849 19.3577 27.5199 19.8327 27.8543C20.6814 28.4512 21.287 30.0074 21.587 32.3581C21.5884 32.368 21.5895 32.3781 21.5907 32.388H20.4864V32.3581ZM15.5677 25.31C15.5295 24.7531 15.712 24.2144 16.0695 23.8312C16.367 23.5125 16.7558 23.3369 17.1633 23.3369H42.837C43.2446 23.3369 43.6333 23.5125 43.9308 23.8312C44.2884 24.2144 44.4714 24.7531 44.4327 25.31L44.1045 30.055C43.422 27.6825 42.2795 27.1875 42.1527 27.1394C41.2884 26.8 40.5209 26.86 39.8702 27.3175C38.7858 28.0813 38.2277 29.8788 37.942 31.6482C37.5733 29.4682 36.9295 27.8963 36.0258 26.9675C35.3995 26.3244 34.6508 25.9975 33.8002 25.9975C33.7014 25.9969 32.9189 26.0187 32.0733 26.8356C30.9521 27.9194 30.3402 29.7612 30.0227 31.735C29.6558 29.51 29.0077 27.9082 28.092 26.9675C27.4652 26.3244 26.7164 25.9975 25.8664 25.9975C25.7664 25.9969 24.9845 26.0187 24.1395 26.8356C23.042 27.8956 22.4327 29.6825 22.1095 31.6075C21.8214 29.86 21.2639 28.0975 20.1927 27.3437C19.542 26.8856 18.7745 26.8256 17.9102 27.165C17.7808 27.2144 16.5845 27.7319 15.9095 30.2569L15.5677 25.31ZM18.3052 36.1275C16.9395 35.8057 16.3095 35.4549 16.0933 35.3119C16.0626 34.4537 16.0742 33.691 16.1174 33.0131H17.3752V33.4819C17.3752 33.6744 17.5314 33.8306 17.7245 33.8306H17.8145C18.007 33.8306 18.1639 33.6744 18.1639 33.4819V33.095H19.6977V33.4819C19.6977 33.6744 19.8545 33.8306 20.047 33.8306H20.137C20.3302 33.8306 20.4864 33.6744 20.4864 33.4819V33.0131H21.6599C21.761 34.048 21.7827 34.981 21.7845 35.5369C21.7826 35.6594 21.7814 35.78 21.7814 35.8994C20.882 36.35 19.0058 36.2225 18.3052 36.1275ZM22.4095 35.885C22.4109 35.7787 22.412 35.635 22.4109 35.4606C22.4256 34.5554 22.4734 33.743 22.5474 33.0131H24.4215V33.4819C24.4215 33.6744 24.5777 33.8306 24.7709 33.8306H24.8609C25.0534 33.8306 25.2102 33.6744 25.2102 33.4819V33.095H26.744V33.4819C26.744 33.6744 26.9009 33.8306 27.0934 33.8306H27.1833C27.3758 33.8306 27.5327 33.6744 27.5327 33.4819V33.0131H29.564C29.6917 34.179 29.7152 35.1888 29.717 35.7C29.7164 35.7712 29.7158 35.8419 29.7158 35.9124C28.8539 36.5212 26.6914 36.6612 25.8795 36.663C23.7583 36.4687 22.747 36.0544 22.4095 35.885ZM37.6514 35.9119C36.7895 36.5212 34.6258 36.6612 33.8133 36.6631C31.6896 36.4688 30.6783 36.0531 30.3427 35.8844C30.3434 35.8181 30.344 35.735 30.3427 35.6375V35.635C30.3539 34.6594 30.4034 33.7895 30.4817 33.0132H32.4409V33.4819C32.4409 33.6744 32.5971 33.8307 32.7896 33.8307H32.8796C33.0727 33.8307 33.229 33.6744 33.229 33.4819V33.095H34.7634V33.4819C34.7634 33.6744 34.9196 33.8307 35.1127 33.8307H35.2022C35.3953 33.8307 35.5515 33.6744 35.5515 33.4819V33.0132H37.4984C37.6181 34.1099 37.6459 35.068 37.6509 35.6032C37.6509 35.6275 37.6515 35.6513 37.6515 35.6744C37.6521 35.7144 37.6521 35.7519 37.6521 35.7863V35.7994C37.652 35.8419 37.6514 35.8794 37.6514 35.9119ZM43.9695 35.2856C43.7502 35.4306 43.1195 35.7812 41.7577 36.1019C41.0558 36.1969 39.177 36.3244 38.2789 35.8725C38.2734 35.4526 38.274 34.3162 38.3999 33.0131H39.5764V33.4819C39.5764 33.6744 39.7327 33.8306 39.9259 33.8306H40.0158C40.2083 33.8306 40.3645 33.6744 40.3645 33.4819V33.095H41.8989V33.4819C41.8989 33.6744 42.0552 33.8306 42.2483 33.8306H42.3383C42.5308 33.8306 42.687 33.6744 42.687 33.4819V33.0131H43.9473C43.9891 33.6841 43.9999 34.4382 43.9695 35.2856Z" fill="#323761"/>
</svg>
