<svg width="60" height="60" viewBox="0 0 60 60" fill="none" xmlns="http://www.w3.org/2000/svg">
<rect width="60" height="60" rx="10" fill="#E2EBF0"/>
<path d="M43.6752 32.3881H43.4721C43.4504 32.1337 43.4249 31.8907 43.3956 31.66C43.5177 31.3738 43.5959 31.0544 43.6167 30.7157L43.9508 25.3532C43.9958 24.6244 43.7764 23.9144 43.349 23.405C42.9738 22.9582 42.4782 22.7119 41.9533 22.7119H18.847C18.3222 22.7119 17.8266 22.9581 17.4514 23.405C17.0239 23.9144 16.8045 24.6244 16.8495 25.3532L17.1837 30.7157C17.2073 31.0957 17.3018 31.4507 17.4514 31.7619C17.4269 31.9619 17.4052 32.1707 17.3864 32.3882H17.1252C16.9698 32.3882 16.8439 32.5281 16.8439 32.7007C16.8439 32.8732 16.9698 33.0132 17.1252 33.0132H17.3422C17.3017 33.7439 17.2933 34.5642 17.3271 35.485C17.3299 35.5663 17.3614 35.6432 17.4148 35.6988C17.47 35.7575 18.0066 36.2832 19.7593 36.7394C19.7672 36.7412 19.7762 36.7432 19.7847 36.7444C19.8358 36.7525 20.4535 36.845 21.1982 36.845C21.9109 36.845 22.7406 36.76 23.2975 36.4331C23.6648 36.6425 24.6486 37.0844 26.6533 37.2869C26.6618 37.2875 26.6702 37.2881 26.6792 37.2881C26.7923 37.2881 29.3331 37.2782 30.4474 36.4387C30.8226 36.65 31.807 37.0862 33.7943 37.2869C33.8027 37.2875 33.8112 37.2881 33.8196 37.2881C33.9333 37.2881 36.4898 37.2782 37.599 36.4307C38.1553 36.7382 38.9625 36.8194 39.6583 36.8194C40.4025 36.8194 41.0207 36.7269 41.0718 36.7188C41.0803 36.7175 41.0887 36.7157 41.0972 36.7138C42.8493 36.2569 43.3865 35.7313 43.4417 35.6732C43.4951 35.617 43.526 35.5407 43.5295 35.4594C43.563 34.5492 43.5548 33.7377 43.5155 33.0132H43.6752C43.8305 33.0132 43.9564 32.8732 43.9564 32.7007C43.9564 32.5281 43.8305 32.3881 43.6752 32.3881ZM41.8183 32.3399V31.9194C41.8183 31.7269 41.6777 31.5706 41.5045 31.5706H41.4235C41.2497 31.5706 41.109 31.7269 41.109 31.9194V32.3062H39.7281V31.9194C39.7281 31.7269 39.5875 31.5706 39.4142 31.5706H39.3333C39.1594 31.5706 39.0188 31.7269 39.0188 31.9194V32.3582V32.3881H38.0216C38.0227 32.3782 38.0238 32.3682 38.0248 32.3582C38.2943 29.9932 38.8405 28.4288 39.6072 27.8287C40.0347 27.4944 40.5336 27.4594 41.1333 27.7219C41.1361 27.7232 41.1349 27.7225 41.1377 27.7237C41.1535 27.7312 42.3533 28.2994 42.8123 31.55C42.8494 31.8115 42.8815 32.0908 42.9078 32.3881H41.8183V32.3399ZM35.3963 32.3581V31.9193C35.3963 31.7268 35.2557 31.5705 35.0818 31.5705H35.0014C34.8276 31.5705 34.687 31.7268 34.687 31.9193V32.3062H33.306V31.9193C33.306 31.7268 33.1654 31.5705 32.9916 31.5705H32.9106C32.7373 31.5705 32.5967 31.7268 32.5967 31.9193V32.3581V32.388H30.8991C30.9003 32.3782 30.9013 32.3679 30.9025 32.3581C31.2456 29.4625 31.983 28.0268 32.6288 27.3155C33.247 26.6349 33.7757 26.6224 33.8123 26.6224H33.8196C34.4361 26.6224 34.9598 26.878 35.4199 27.403C36.3807 28.4993 36.8486 30.5355 37.0758 32.358C37.0771 32.368 37.0782 32.3779 37.0794 32.388H35.3963V32.3581ZM28.1794 32.3581V31.9193C28.1794 31.7268 28.0382 31.5705 27.865 31.5705H27.784C27.6108 31.5705 27.4696 31.7268 27.4696 31.9193V32.3062H26.0892V31.9193C26.0892 31.7268 25.948 31.5705 25.7748 31.5705H25.6938C25.52 31.5705 25.3793 31.7268 25.3793 31.9193V32.3581V32.388H23.7582C23.7594 32.3782 23.7604 32.3679 23.7616 32.3581C24.1053 29.4625 24.8427 28.0268 25.4885 27.3155C26.1066 26.6349 26.6355 26.6224 26.6714 26.6224H26.6793C27.2952 26.6224 27.8189 26.878 28.2796 27.403C29.2403 28.4993 29.7083 30.5355 29.935 32.358C29.9363 32.368 29.9373 32.3779 29.9386 32.388H28.1794V32.3581ZM21.8378 32.3581V31.9193C21.8378 31.7268 21.6972 31.5705 21.5233 31.5705H21.4423C21.2691 31.5705 21.1279 31.7268 21.1279 31.9193V32.3062H19.7475V31.9193C19.7475 31.7268 19.6063 31.5705 19.4331 31.5705H19.3521C19.1783 31.5705 19.0377 31.7268 19.0377 31.9193V32.3487V32.388H17.9515C17.9751 32.1227 18.0037 31.871 18.0364 31.6343C18.4864 28.3524 19.6873 27.7636 19.7183 27.7499C19.72 27.7487 19.7217 27.748 19.7233 27.7474C20.323 27.4849 20.8219 27.5199 21.2494 27.8543C22.0133 28.4512 22.5583 30.0074 22.8283 32.3581C22.8295 32.368 22.8305 32.3781 22.8317 32.388H21.8378V32.3581ZM17.4109 25.31C17.3766 24.7531 17.5408 24.2144 17.8626 23.8312C18.1303 23.5125 18.4802 23.3369 18.847 23.3369H41.9533C42.3202 23.3369 42.67 23.5125 42.9377 23.8312C43.2595 24.2144 43.4243 24.7531 43.3894 25.31L43.0941 30.055C42.4798 27.6825 41.4516 27.1875 41.3374 27.1394C40.5595 26.8 39.8688 26.86 39.2832 27.3175C38.3072 28.0813 37.8049 29.8788 37.5478 31.6482C37.216 29.4682 36.6366 27.8963 35.8232 26.9675C35.2595 26.3244 34.5857 25.9975 33.8202 25.9975C33.7313 25.9969 33.027 26.0187 32.266 26.8356C31.2569 27.9194 30.7062 29.7612 30.4204 31.735C30.0902 29.51 29.5069 27.9082 28.6828 26.9675C28.1187 26.3244 27.4448 25.9975 26.6798 25.9975C26.5898 25.9969 25.8861 26.0187 25.1256 26.8356C24.1378 27.8956 23.5894 29.6825 23.2986 31.6075C23.0393 29.86 22.5375 28.0975 21.5734 27.3437C20.9878 26.8856 20.2971 26.8256 19.5192 27.165C19.4027 27.2144 18.3261 27.7319 17.7186 30.2569L17.4109 25.31ZM19.8747 36.1275C18.6456 35.8057 18.0786 35.4549 17.884 35.3119C17.8563 34.4537 17.8668 33.691 17.9056 33.0131H19.0377V33.4819C19.0377 33.6744 19.1783 33.8306 19.3521 33.8306H19.4331C19.6063 33.8306 19.7475 33.6744 19.7475 33.4819V33.095H21.1279V33.4819C21.1279 33.6744 21.2691 33.8306 21.4423 33.8306H21.5233C21.6972 33.8306 21.8378 33.6744 21.8378 33.4819V33.0131H22.8939C22.9849 34.048 23.0044 34.981 23.006 35.5369C23.0043 35.6594 23.0032 35.78 23.0032 35.8994C22.1938 36.35 20.5052 36.2225 19.8747 36.1275ZM23.5686 35.885C23.5698 35.7787 23.5708 35.635 23.5698 35.4606C23.583 34.5554 23.6261 33.743 23.6926 33.0131H25.3793V33.4819C25.3793 33.6744 25.52 33.8306 25.6938 33.8306H25.7748C25.948 33.8306 26.0892 33.6744 26.0892 33.4819V33.095H27.4696V33.4819C27.4696 33.6744 27.6108 33.8306 27.784 33.8306H27.865C28.0382 33.8306 28.1794 33.6744 28.1794 33.4819V33.0131H30.0076C30.1225 34.179 30.1437 35.1888 30.1453 35.7C30.1448 35.7712 30.1442 35.8419 30.1442 35.9124C29.3685 36.5212 27.4223 36.6612 26.6916 36.663C24.7825 36.4687 23.8723 36.0544 23.5686 35.885ZM37.2863 35.9119C36.5106 36.5212 34.5632 36.6612 33.832 36.6631C31.9206 36.4688 31.0105 36.0531 30.7085 35.8844C30.709 35.8181 30.7096 35.735 30.7085 35.6375V35.635C30.7185 34.6594 30.7631 33.7895 30.8336 33.0132H32.5968V33.4819C32.5968 33.6744 32.7374 33.8307 32.9107 33.8307H32.9916C33.1655 33.8307 33.3061 33.6744 33.3061 33.4819V33.095H34.687V33.4819C34.687 33.6744 34.8276 33.8307 35.0015 33.8307H35.082C35.2558 33.8307 35.3964 33.6744 35.3964 33.4819V33.0132H37.1486C37.2563 34.1099 37.2813 35.068 37.2858 35.6032C37.2858 35.6275 37.2863 35.6513 37.2863 35.6744C37.2869 35.7144 37.2869 35.7519 37.2869 35.7863V35.7994C37.2868 35.8419 37.2863 35.8794 37.2863 35.9119ZM42.9726 35.2856C42.7752 35.4306 42.2076 35.7812 40.9819 36.1019C40.3502 36.1969 38.6593 36.3244 37.851 35.8725C37.846 35.4526 37.8466 34.3162 37.9599 33.0131H39.0188V33.4819C39.0188 33.6744 39.1594 33.8306 39.3333 33.8306H39.4142C39.5875 33.8306 39.7281 33.6744 39.7281 33.4819V33.095H41.109V33.4819C41.109 33.6744 41.2497 33.8306 41.4235 33.8306H41.5045C41.6777 33.8306 41.8183 33.6744 41.8183 33.4819V33.0131H42.9526C42.9902 33.6841 42.9999 34.4382 42.9726 35.2856Z" fill="#323761"/>
</svg>
