<svg width="20" height="20" viewBox="0 0 20 20" fill="none" xmlns="http://www.w3.org/2000/svg">
<path d="M6.46496 8.52539H4.53062C4.36636 8.52539 4.2334 8.65835 4.2334 8.82262V10.757C4.2334 10.921 4.36636 11.0542 4.53062 11.0542H6.46496C6.62923 11.0542 6.76219 10.921 6.76219 10.757V8.82262C6.76219 8.65855 6.62923 8.52539 6.46496 8.52539ZM6.16774 10.4597H4.82785V9.11984H6.16774V10.4597Z" fill="#0A98E8"/>
<path d="M10.9764 8.52539H9.0421C8.87783 8.52539 8.74487 8.65835 8.74487 8.82262V10.757C8.74487 10.921 8.87783 11.0542 9.0421 11.0542H10.9764C11.1405 11.0542 11.2737 10.921 11.2737 10.757V8.82262C11.2737 8.65855 11.1405 8.52539 10.9764 8.52539ZM10.6792 10.4597H9.33932V9.11984H10.6792V10.4597Z" fill="#0A98E8"/>
<path d="M15.3488 8.52539H13.4144C13.2503 8.52539 13.1172 8.65835 13.1172 8.82262V10.757C13.1172 10.921 13.2503 11.0542 13.4144 11.0542H15.3488C15.5128 11.0542 15.646 10.921 15.646 10.757V8.82262C15.646 8.65855 15.5128 8.52539 15.3488 8.52539ZM15.0515 10.4597H13.7116V9.11984H15.0515V10.4597Z" fill="#0A98E8"/>
<path d="M6.46496 12.9316H4.53062C4.36636 12.9316 4.2334 13.0648 4.2334 13.2289V15.1632C4.2334 15.3273 4.36636 15.4604 4.53062 15.4604H6.46496C6.62923 15.4604 6.76219 15.3273 6.76219 15.1632V13.2289C6.76219 13.0648 6.62923 12.9316 6.46496 12.9316ZM6.16774 14.866H4.82785V13.5261H6.16774V14.866Z" fill="#0A98E8"/>
<path d="M10.9764 12.9316H9.0421C8.87783 12.9316 8.74487 13.0648 8.74487 13.2289V15.1632C8.74487 15.3273 8.87783 15.4604 9.0421 15.4604H10.9764C11.1405 15.4604 11.2737 15.3273 11.2737 15.1632V13.2289C11.2737 13.0648 11.1405 12.9316 10.9764 12.9316ZM10.6792 14.866H9.33932V13.5261H10.6792V14.866Z" fill="#0A98E8"/>
<path d="M15.3488 12.9316H13.4144C13.2503 12.9316 13.1172 13.0648 13.1172 13.2289V15.1632C13.1172 15.3273 13.2503 15.4604 13.4144 15.4604H15.3488C15.5128 15.4604 15.646 15.3273 15.646 15.1632V13.2289C15.646 13.0648 15.5128 12.9316 15.3488 12.9316ZM15.0515 14.866H13.7116V13.5261H15.0515V14.866Z" fill="#0A98E8"/>
<path d="M17.7028 2.76954H15.7397C15.7371 2.76954 15.7349 2.77014 15.7324 2.77033V2.37443C15.7324 1.72688 15.2057 1.2002 14.5581 1.2002C13.9106 1.2002 13.3839 1.72708 13.3839 2.37443V2.76954H11.172V2.37443C11.172 1.72688 10.6453 1.2002 9.99772 1.2002C9.35017 1.2002 8.82348 1.72708 8.82348 2.37443V2.76954H6.61134V2.37443C6.61134 1.72688 6.08466 1.2002 5.43711 1.2002C4.78955 1.2002 4.26287 1.72708 4.26287 2.37443V2.76974C4.26188 2.76974 4.26089 2.76954 4.2599 2.76954H2.29722C2.13296 2.76954 2 2.9025 2 3.06677V18.4721C2 18.6362 2.13296 18.7693 2.29722 18.7693H17.7028C17.8668 18.7693 18 18.6362 18 18.4721V3.06677C18 2.9025 17.8668 2.76954 17.7028 2.76954ZM13.9784 2.37443C13.9784 2.05462 14.2383 1.79464 14.5581 1.79464C14.878 1.79464 15.1379 2.05462 15.1379 2.37443V4.01452C15.1379 4.33413 14.878 4.5943 14.5581 4.5943C14.2383 4.5943 13.9784 4.33433 13.9784 4.01452V2.37443ZM9.99772 1.79464C10.3173 1.79464 10.5775 2.05462 10.5775 2.37443V4.01452C10.5775 4.33413 10.3175 4.5943 9.99772 4.5943C9.67791 4.5943 9.41793 4.33433 9.41793 4.01452V3.09451C9.41873 3.08519 9.42071 3.07628 9.42071 3.06657C9.42071 3.05686 9.41873 3.04794 9.41793 3.03863V2.37443C9.41793 2.05462 9.67791 1.79464 9.99772 1.79464ZM4.85732 2.37443C4.85732 2.05462 5.11729 1.79464 5.43711 1.79464C5.75672 1.79464 6.01689 2.05462 6.01689 2.37443V4.01452C6.01689 4.33413 5.75692 4.5943 5.43711 4.5943C5.11729 4.5943 4.85732 4.33433 4.85732 4.01452V2.37443ZM17.4056 18.1749H2.59445V3.36399H4.2599C4.26089 3.36399 4.26188 3.36379 4.26287 3.36379V4.01471C4.26287 4.66227 4.78975 5.18895 5.43711 5.18895C6.08446 5.18895 6.61134 4.66227 6.61134 4.01471V3.36419H8.82348V4.01471C8.82348 4.66227 9.35037 5.18895 9.99772 5.18895C10.6451 5.18895 11.172 4.66227 11.172 4.01471V3.36419H13.3839V4.01471C13.3839 4.66227 13.9106 5.18895 14.5581 5.18895C15.2057 5.18895 15.7324 4.66227 15.7324 4.01471V3.3632C15.7349 3.3632 15.7371 3.36399 15.7397 3.36399H17.4056V18.1749Z" fill="#0A98E8"/>
</svg>
