<svg width="416" height="320" viewBox="0 0 416 320" fill="none" xmlns="http://www.w3.org/2000/svg">
<path d="M382.4 51H314.9L274.5 10.2C274.5 10.2 274.3 10 274.2 10L274 9.8C268 3.8 259.9 0 250.7 0H166.7C156.9 0 148.2 4.2 142.1 10.9V11L102.6 51H33.6C15 51 0 65.6 0 84.2V286.3C0 304.9 15 320 33.6 320H382.4C400.9 320 416 304.9 416 286.3V84.2C416 65.6 400.9 51 382.4 51ZM208 269.5C157.1 269.5 115.6 227.9 115.6 176.9C115.6 125.8 157.1 84.3 208 84.3C259 84.3 300.4 125.8 300.4 176.9C300.4 227.9 259 269.5 208 269.5ZM376.1 104.5C368.4 104.5 362.1 98.2 362.1 90.4C362.1 82.6 368.4 76.3 376.1 76.3C383.8 76.3 390.1 82.6 390.1 90.4C390.1 98.2 383.8 104.5 376.1 104.5Z" fill="white"/>
<path d="M208 106.9C169.4 106.9 138.2 138.2 138.2 176.9C138.2 215.5 169.4 246.9 208 246.9C246.5 246.9 277.8 215.6 277.8 176.9C277.8 138.2 246.5 106.9 208 106.9Z" fill="white"/>
</svg>
