<svg width="60" height="60" viewBox="0 0 60 60" fill="none" xmlns="http://www.w3.org/2000/svg">
<rect width="60" height="60" rx="10" fill="#CFDCE5" fill-opacity="0.5"/>
<path d="M44.75 30.4581H42.3326C40.494 30.4581 38.8266 31.2909 37.7281 32.6402L39.4871 25.2848C40.0867 22.7778 39.5117 20.2509 38.0224 18.8475C37.0296 17.9119 35.7559 17.6169 34.4358 18.0167H34.4357L32.3263 18.656C30.7826 19.1242 29.2172 19.1243 27.6736 18.6559L25.5641 18.0166C24.2441 17.6168 22.9704 17.9118 21.9776 18.8474C20.4882 20.2508 19.9133 22.7777 20.5128 25.2848L22.1147 31.9831C21.2477 31.0344 20.0042 30.458 18.6424 30.458H15.25C15.0774 30.458 14.9375 30.5979 14.9375 30.7705V41.8453C14.9375 42.018 15.0774 42.1578 15.25 42.1578H25.8968C25.897 42.1578 25.8973 42.1578 25.8975 42.1578C25.8977 42.1578 25.8979 42.1578 25.8982 42.1578H44.75C44.9226 42.1578 45.0625 42.018 45.0625 41.8453V30.7706C45.0625 30.598 44.9226 30.4581 44.75 30.4581ZM33.7949 41.5328H26.159C26.1116 41.2687 26.0674 41.0149 26.0264 40.7721C26.5554 40.7233 26.9878 40.2887 27.0295 39.7439C27.171 37.897 27.5971 35.7272 28.1414 34.0814C28.7325 32.2945 29.4272 31.2277 30 31.2277C30.5728 31.2277 31.2675 32.2944 31.8586 34.0813C32.4029 35.7269 32.8289 37.8966 32.9705 39.7437C33.0146 40.3205 33.4964 40.7744 34.0619 40.7771H34.0624C33.9673 41.1447 33.8733 41.3913 33.7949 41.5328ZM34.0704 39.9918C33.8226 39.9905 33.6132 39.7902 33.5937 39.5355C33.4486 37.6415 33.0111 35.415 32.4519 33.7247C31.7315 31.5465 30.9065 30.4423 30 30.4423C29.0935 30.4423 28.2685 31.5467 27.5481 33.7248C26.9889 35.4152 26.5514 37.6419 26.4063 39.5357C26.3868 39.7902 26.1776 39.9905 25.9299 39.9918C25.9198 39.9918 25.9099 39.9905 25.8998 39.9904C25.5204 37.5455 25.5003 36.331 25.5651 35.731C25.5888 35.5128 25.6227 35.2883 25.6554 35.0713C25.7239 34.6188 25.7947 34.1508 25.7851 33.6731C25.7763 33.2336 25.7001 32.8053 25.6263 32.391C25.5864 32.1675 25.5452 31.9363 25.5166 31.7114C25.4238 30.9829 25.497 30.4282 25.7403 30.0156C25.7594 29.9833 25.7708 29.9489 25.7773 29.914C25.935 29.5835 26.0464 29.2328 26.1107 28.8733C26.1207 28.864 26.1304 28.854 26.1394 28.8432C26.3457 28.5918 26.7043 28.4323 27.0986 28.4162C27.1683 28.4133 27.2417 28.4136 27.3196 28.414C27.6483 28.4157 28.0577 28.4174 28.367 28.139C28.5249 27.9968 28.6102 27.8207 28.6854 27.6655C28.7397 27.5534 28.791 27.4476 28.8566 27.3864C29.0021 27.2508 29.2812 27.2668 29.5765 27.2838C29.9759 27.307 30.4282 27.333 30.7673 27.0018C30.8908 26.8812 30.8932 26.6833 30.7726 26.56C30.652 26.4364 30.454 26.4342 30.3307 26.5547C30.1984 26.6838 29.9714 26.6806 29.6126 26.66C29.2183 26.6372 28.7714 26.6114 28.4304 26.9294C28.2795 27.0702 28.1964 27.2417 28.1231 27.393C28.0679 27.5068 28.0159 27.6142 27.9489 27.6745C27.8192 27.7913 27.5785 27.7903 27.3226 27.789C27.2413 27.7887 27.1571 27.7883 27.0732 27.7917C26.7464 27.805 26.4394 27.8872 26.1761 28.027C26.1719 27.8562 26.1567 27.6858 26.1319 27.5167C26.2737 27.4334 26.3873 27.2866 26.4456 27.0988C26.4664 27.0318 26.4795 26.9667 26.491 26.9092C26.5042 26.8431 26.5167 26.7806 26.5365 26.7407C26.5749 26.6633 26.6749 26.5955 26.7907 26.5168C26.9234 26.4268 27.0738 26.3248 27.1884 26.1667C27.3121 25.996 27.3614 25.8053 27.4048 25.637C27.4426 25.4905 27.4753 25.3641 27.5426 25.2998C27.6259 25.22 27.7773 25.2123 28.0167 25.2091C28.2271 25.2063 28.4656 25.2031 28.6923 25.106C29.1456 24.9117 29.3482 24.4258 29.4692 24.1357L29.9321 23.026C29.9985 22.8668 29.9233 22.6837 29.764 22.6173C29.6048 22.5508 29.4218 22.6262 29.3553 22.7854L28.8925 23.895C28.7781 24.1693 28.6493 24.4443 28.446 24.5315C28.3333 24.5798 28.1755 24.582 28.0084 24.5842C27.7273 24.588 27.3774 24.5926 27.1103 24.8485C26.9147 25.0358 26.851 25.2825 26.7998 25.4808C26.7673 25.6064 26.7366 25.7252 26.6824 25.8C26.6321 25.8692 26.5387 25.9325 26.4397 25.9997C26.283 26.1061 26.0879 26.2384 25.9764 26.4633C25.9439 26.529 25.9233 26.5934 25.9074 26.6553C25.8938 26.6195 25.881 26.5834 25.8663 26.548C25.7835 26.3491 25.686 26.159 25.5917 25.9752C25.4416 25.6825 25.2998 25.4059 25.2238 25.114C25.0319 24.3767 25.2724 23.5627 25.513 22.8575C25.5687 22.6942 25.4814 22.5165 25.3181 22.4608C25.1546 22.405 24.9772 22.4925 24.9214 22.6557C24.6516 23.4468 24.3834 24.3666 24.6189 25.2714C24.7122 25.63 24.8766 25.9505 25.0356 26.2604C25.1283 26.4413 25.216 26.6122 25.2893 26.7882C25.6773 27.7206 25.6366 28.815 25.1803 29.7157C25.1696 29.7368 25.1621 29.7585 25.1566 29.7804C24.8766 30.3043 24.7913 30.963 24.8968 31.7905C24.9273 32.0308 24.9699 32.2697 25.0111 32.5007C25.0839 32.9093 25.1527 33.2952 25.1604 33.6857C25.1689 34.1102 25.1051 34.5317 25.0377 34.9779C25.0039 35.2014 24.9689 35.4326 24.9439 35.664C24.8527 36.508 24.9526 37.9006 25.2407 39.817C24.8179 39.597 24.4808 39.1882 24.3631 38.6964L21.121 25.1397C20.8456 23.988 20.8331 22.8163 21.0848 21.751C21.3239 20.7387 21.7809 19.892 22.4064 19.3025C22.9886 18.7539 23.9776 18.1892 25.3831 18.615L27.4924 19.2543C29.1564 19.7593 30.844 19.759 32.5079 19.2543L34.6172 18.615C36.0224 18.1893 37.0117 18.7539 37.5939 19.3025C38.2195 19.892 38.6765 20.7387 38.9156 21.751C39.1673 22.8163 39.1548 23.988 38.8794 25.1397L35.6373 38.6964C35.5337 39.1297 35.2594 39.4994 34.907 39.7318C34.9941 39.1453 35.0368 38.6125 35.0338 38.3459C35.0307 38.0723 35.0114 37.7987 34.9926 37.5343C34.9618 37.0992 34.9327 36.6885 34.9703 36.2795C34.9899 36.0659 35.0277 35.8528 35.0677 35.6272C35.1442 35.1955 35.2232 34.7492 35.1699 34.2856C35.139 34.0173 35.0659 33.7653 34.9952 33.5217C34.9204 33.2641 34.8498 33.0207 34.8339 32.7783C34.817 32.5194 34.8619 32.2523 34.9094 31.9697C34.9301 31.8465 34.9516 31.719 34.9679 31.5904C35.0452 30.9823 35.0039 30.352 34.8516 29.7572C34.8495 29.7282 34.8448 29.699 34.8341 29.6705C34.6621 29.2093 34.6799 28.6877 34.883 28.2392C34.9601 28.0692 35.0641 27.9063 35.1742 27.7338C35.3202 27.5051 35.4713 27.2685 35.5714 26.9938C35.911 26.0633 35.5014 24.9527 34.6391 24.4654C34.5442 24.4118 34.4492 24.3678 34.3574 24.3254C34.2392 24.2708 34.1276 24.2192 34.0347 24.155C33.6025 23.856 33.4734 23.2286 33.3862 22.6639C33.3599 22.4933 33.201 22.3761 33.0298 22.4028C32.8592 22.429 32.7423 22.5887 32.7686 22.7592C32.8834 23.5033 33.0732 24.2498 33.6792 24.669C33.8164 24.7639 33.9581 24.8294 34.0951 24.8928C34.1792 24.9317 34.2587 24.9685 34.3315 25.0096C34.9251 25.345 35.218 26.1391 34.9842 26.7796C34.9074 26.9899 34.7811 27.1879 34.6472 27.3975C34.6031 27.4667 34.5586 27.5375 34.5148 27.6093C34.2988 27.4649 34.0553 27.3796 33.8308 27.3011C33.4544 27.1696 33.2181 27.0775 33.1113 26.8495C33.0396 26.6963 33.048 26.5005 33.0579 26.2738C33.0679 26.0442 33.0793 25.784 32.9972 25.5282C32.8974 25.2173 32.6849 24.9857 32.4973 24.7815C32.4377 24.7167 32.3815 24.6554 32.3299 24.5934C32.0462 24.2522 31.8651 23.8213 31.8199 23.38C31.8022 23.2083 31.6484 23.0835 31.4772 23.101C31.3055 23.1185 31.1806 23.272 31.1982 23.4437C31.2559 24.0072 31.4872 24.5573 31.8494 24.9929C31.9107 25.0668 31.9749 25.1366 32.0369 25.2042C32.195 25.3763 32.3442 25.5389 32.4021 25.7191C32.4501 25.8684 32.4421 26.0521 32.4336 26.2465C32.4218 26.5165 32.4085 26.8225 32.5454 27.1147C32.7693 27.5923 33.2238 27.751 33.6248 27.8911C33.8564 27.972 34.0768 28.0503 34.2344 28.1803C34.0525 28.698 34.0448 29.2703 34.2153 29.7928C34.2154 29.7931 34.2154 29.7934 34.2155 29.7937C34.3747 30.3466 34.4204 30.9407 34.3479 31.5115C34.3331 31.6277 34.3136 31.7434 34.2931 31.866C34.2417 32.1717 34.1886 32.4875 34.2103 32.8191C34.2306 33.1295 34.3141 33.4173 34.3949 33.6958C34.4614 33.9247 34.5241 34.1408 34.549 34.357C34.5919 34.7298 34.5241 35.1127 34.4522 35.518C34.4118 35.7463 34.3699 35.9825 34.3479 36.2223C34.3057 36.6818 34.338 37.1376 34.3692 37.5782C34.3873 37.8337 34.406 38.0978 34.4089 38.3529C34.4122 38.6455 34.3513 39.3022 34.2318 39.9823C34.1806 39.9882 34.1291 39.9919 34.0772 39.9919M15.5625 31.0831H18.6425C20.5376 31.0831 22.1691 32.3703 22.6098 34.2135L23.755 39.0019C23.9559 39.8422 24.6012 40.4941 25.3814 40.7047C25.4258 40.9721 25.4733 41.2481 25.5239 41.5328H15.5625V31.0831ZM44.4375 41.5328H34.4792C34.5765 41.2842 34.6611 40.9855 34.733 40.6704C35.4613 40.4293 36.054 39.8008 36.245 39.002L37.1634 35.1619C37.7377 32.7604 39.8634 31.0832 42.3326 31.0832H44.4375V41.5328Z" fill="#323761"/>
</svg>
