<svg width="61" height="60" viewBox="0 0 61 60" fill="none" xmlns="http://www.w3.org/2000/svg">
<rect x="0.222656" width="60" height="60" rx="10" fill="#E2EBF0"/>
<path d="M43.675 30.4581H41.4993C39.8446 30.4581 38.3439 31.2909 37.3553 32.6402L38.9384 25.2848C39.478 22.7778 38.9606 20.2509 37.6201 18.8475C36.7266 17.9119 35.5803 17.6169 34.3922 18.0167H34.3922L32.4937 18.656C31.1044 19.1242 29.6955 19.1243 28.3062 18.6559L26.4077 18.0166C25.2197 17.6168 24.0733 17.9118 23.1798 18.8474C21.8394 20.2508 21.322 22.7777 21.8615 25.2848L23.3033 31.9831C22.5229 31.0344 21.4038 30.458 20.1782 30.458H17.125C16.9696 30.458 16.8438 30.5979 16.8438 30.7705V41.8453C16.8438 42.018 16.9696 42.1578 17.125 42.1578H26.7071C26.7073 42.1578 26.7075 42.1578 26.7078 42.1578C26.708 42.1578 26.7081 42.1578 26.7084 42.1578H43.675C43.8304 42.1578 43.9563 42.018 43.9563 41.8453V30.7706C43.9563 30.598 43.8304 30.4581 43.675 30.4581ZM33.8154 41.5328H26.9431C26.9004 41.2687 26.8606 41.0149 26.8238 40.7721C27.2999 40.7233 27.689 40.2887 27.7266 39.7439C27.8539 37.897 28.2374 35.7272 28.7273 34.0814C29.2593 32.2945 29.8845 31.2277 30.4 31.2277C30.9155 31.2277 31.5408 32.2944 32.0727 34.0813C32.5626 35.7269 32.946 37.8966 33.0735 39.7437C33.1132 40.3205 33.5468 40.7744 34.0557 40.7771H34.0562C33.9706 41.1447 33.886 41.3913 33.8154 41.5328ZM34.0633 39.9918C33.8403 39.9905 33.6519 39.7902 33.6343 39.5355C33.5037 37.6415 33.11 35.415 32.6067 33.7247C31.9584 31.5465 31.2159 30.4423 30.4 30.4423C29.5842 30.4423 28.8417 31.5467 28.1933 33.7248C27.69 35.4152 27.2963 37.6419 27.1657 39.5357C27.1481 39.7902 26.9598 39.9905 26.7369 39.9918C26.7278 39.9918 26.7189 39.9905 26.7098 39.9904C26.3683 37.5455 26.3502 36.331 26.4086 35.731C26.4299 35.5128 26.4604 35.2883 26.4899 35.0713C26.5515 34.6188 26.6152 34.1508 26.6066 33.6731C26.5987 33.2336 26.5301 32.8053 26.4636 32.391C26.4277 32.1675 26.3907 31.9363 26.3649 31.7114C26.2814 30.9829 26.3473 30.4282 26.5663 30.0156C26.5834 29.9833 26.5937 29.9489 26.5995 29.914C26.7415 29.5835 26.8417 29.2328 26.8996 28.8733C26.9087 28.864 26.9173 28.854 26.9254 28.8432C27.1111 28.5918 27.4338 28.4323 27.7888 28.4162C27.8514 28.4133 27.9175 28.4136 27.9876 28.414C28.2835 28.4157 28.6519 28.4174 28.9303 28.139C29.0724 27.9968 29.1492 27.8207 29.2169 27.6655C29.2658 27.5534 29.3119 27.4476 29.371 27.3864C29.5019 27.2508 29.7531 27.2668 30.0189 27.2838C30.3783 27.307 30.7854 27.333 31.0906 27.0018C31.2017 26.8812 31.2039 26.6833 31.0953 26.56C30.9868 26.4364 30.8086 26.4342 30.6976 26.5547C30.5786 26.6838 30.3743 26.6806 30.0513 26.66C29.6965 26.6372 29.2943 26.6114 28.9874 26.9294C28.8516 27.0702 28.7767 27.2417 28.7108 27.393C28.6611 27.5068 28.6143 27.6142 28.554 27.6745C28.4373 27.7913 28.2207 27.7903 27.9904 27.789C27.9172 27.7887 27.8414 27.7883 27.7659 27.7917C27.4717 27.805 27.1955 27.8872 26.9585 28.027C26.9547 27.8562 26.9411 27.6858 26.9187 27.5167C27.0463 27.4334 27.1486 27.2866 27.2011 27.0988C27.2198 27.0318 27.2316 26.9667 27.2419 26.9092C27.2538 26.8431 27.265 26.7806 27.2829 26.7407C27.3174 26.6633 27.4074 26.5955 27.5116 26.5168C27.631 26.4268 27.7664 26.3248 27.8695 26.1667C27.9809 25.996 28.0252 25.8053 28.0643 25.637C28.0984 25.4905 28.1278 25.3641 28.1883 25.2998C28.2633 25.22 28.3995 25.2123 28.615 25.2091C28.8044 25.2063 29.019 25.2031 29.223 25.106C29.631 24.9117 29.8134 24.4258 29.9223 24.1357L30.3389 23.026C30.3987 22.8668 30.3309 22.6837 30.1876 22.6173C30.0443 22.5508 29.8796 22.6262 29.8198 22.7854L29.4033 23.895C29.3003 24.1693 29.1844 24.4443 29.0014 24.5315C28.9 24.5798 28.758 24.582 28.6075 24.5842C28.3545 24.588 28.0396 24.5926 27.7993 24.8485C27.6232 25.0358 27.5659 25.2825 27.5198 25.4808C27.4905 25.6064 27.4629 25.7252 27.4141 25.8C27.3689 25.8692 27.2848 25.9325 27.1958 25.9997C27.0547 26.1061 26.8791 26.2384 26.7788 26.4633C26.7495 26.529 26.731 26.5934 26.7167 26.6553C26.7044 26.6195 26.6929 26.5834 26.6797 26.548C26.6052 26.3491 26.5174 26.159 26.4325 25.9752C26.2975 25.6825 26.1698 25.4059 26.1014 25.114C25.9287 24.3767 26.1451 23.5627 26.3617 22.8575C26.4119 22.6942 26.3333 22.5165 26.1863 22.4608C26.0392 22.405 25.8795 22.4925 25.8293 22.6557C25.5865 23.4468 25.345 24.3666 25.557 25.2714C25.641 25.63 25.789 25.9505 25.932 26.2604C26.0155 26.4413 26.0944 26.6122 26.1603 26.7882C26.5096 27.7206 26.4729 28.815 26.0623 29.7157C26.0527 29.7368 26.0459 29.7585 26.0409 29.7804C25.789 30.3043 25.7122 30.963 25.8071 31.7905C25.8346 32.0308 25.8729 32.2697 25.91 32.5007C25.9755 32.9093 26.0374 33.2952 26.0444 33.6857C26.052 34.1102 25.9946 34.5317 25.9339 34.9779C25.9035 35.2014 25.872 35.4326 25.8495 35.664C25.7675 36.508 25.8573 37.9006 26.1166 39.817C25.7361 39.597 25.4327 39.1882 25.3268 38.6964L22.4089 25.1397C22.161 23.988 22.1498 22.8163 22.3763 21.751C22.5915 20.7387 23.0028 19.892 23.5658 19.3025C24.0897 18.7539 24.9798 18.1892 26.2448 18.615L28.1432 19.2543C29.6408 19.7593 31.1596 19.759 32.6571 19.2543L34.5555 18.615C35.8202 18.1893 36.7106 18.7539 37.2345 19.3025C37.7976 19.892 38.2089 20.7387 38.4241 21.751C38.6506 22.8163 38.6393 23.988 38.3914 25.1397L35.4735 38.6964C35.3803 39.1297 35.1335 39.4994 34.8163 39.7318C34.8947 39.1453 34.9331 38.6125 34.9304 38.3459C34.9276 38.0723 34.9102 37.7987 34.8934 37.5343C34.8656 37.0992 34.8394 36.6885 34.8733 36.2795C34.8909 36.0659 34.9249 35.8528 34.9609 35.6272C35.0298 35.1955 35.1009 34.7492 35.0529 34.2856C35.0251 34.0173 34.9593 33.7653 34.8957 33.5217C34.8284 33.2641 34.7648 33.0207 34.7505 32.7783C34.7353 32.5194 34.7757 32.2523 34.8185 31.9697C34.8371 31.8465 34.8564 31.719 34.8711 31.5904C34.9407 30.9823 34.9035 30.352 34.7664 29.7572C34.7646 29.7282 34.7603 29.699 34.7507 29.6705C34.5959 29.2093 34.6119 28.6877 34.7947 28.2392C34.8641 28.0692 34.9577 27.9063 35.0568 27.7338C35.1882 27.5051 35.3241 27.2685 35.4143 26.9938C35.7199 26.0633 35.3513 24.9527 34.5752 24.4654C34.4898 24.4118 34.4043 24.3678 34.3216 24.3254C34.2153 24.2708 34.1149 24.2192 34.0313 24.155C33.6423 23.856 33.526 23.2286 33.4476 22.6639C33.4239 22.4933 33.2809 22.3761 33.1268 22.4028C32.9733 22.429 32.868 22.5887 32.8917 22.7592C32.995 23.5033 33.1659 24.2498 33.7113 24.669C33.8347 24.7639 33.9623 24.8294 34.0856 24.8928C34.1613 24.9317 34.2329 24.9685 34.2983 25.0096C34.8326 25.345 35.0962 26.1391 34.8858 26.7796C34.8167 26.9899 34.703 27.1879 34.5825 27.3975C34.5428 27.4667 34.5027 27.5375 34.4633 27.6093C34.2689 27.4649 34.0498 27.3796 33.8477 27.3011C33.5089 27.1696 33.2963 27.0775 33.2002 26.8495C33.1356 26.6963 33.1432 26.5005 33.1521 26.2738C33.1611 26.0442 33.1714 25.784 33.0975 25.5282C33.0077 25.2173 32.8164 24.9857 32.6476 24.7815C32.594 24.7167 32.5434 24.6554 32.4969 24.5934C32.2416 24.2522 32.0786 23.8213 32.0379 23.38C32.022 23.2083 31.8836 23.0835 31.7295 23.101C31.575 23.1185 31.4625 23.272 31.4784 23.4437C31.5303 24.0072 31.7385 24.5573 32.0644 24.9929C32.1197 25.0668 32.1774 25.1366 32.2332 25.2042C32.3755 25.3763 32.5098 25.5389 32.5619 25.7191C32.6051 25.8684 32.5979 26.0521 32.5902 26.2465C32.5796 26.5165 32.5676 26.8225 32.6909 27.1147C32.8924 27.5923 33.3014 27.751 33.6623 27.8911C33.8707 27.972 34.0691 28.0503 34.211 28.1803C34.0473 28.698 34.0403 29.2703 34.1938 29.7928C34.1939 29.7931 34.1939 29.7934 34.194 29.7937C34.3372 30.3466 34.3784 30.9407 34.3131 31.5115C34.2998 31.6277 34.2823 31.7434 34.2638 31.866C34.2175 32.1717 34.1697 32.4875 34.1892 32.8191C34.2075 33.1295 34.2827 33.4173 34.3554 33.6958C34.4152 33.9247 34.4717 34.1408 34.4941 34.357C34.5327 34.7298 34.4717 35.1127 34.407 35.518C34.3706 35.7463 34.3329 35.9825 34.3131 36.2223C34.2751 36.6818 34.3042 37.1376 34.3323 37.5782C34.3486 37.8337 34.3654 38.0978 34.368 38.3529C34.371 38.6455 34.3161 39.3022 34.2086 39.9823C34.1626 39.9882 34.1162 39.9919 34.0695 39.9919M17.4062 31.0831H20.1783C21.8839 31.0831 23.3522 32.3703 23.7488 34.2135L24.7795 39.0019C24.9603 39.8422 25.5411 40.4941 26.2432 40.7047C26.2832 40.9721 26.326 41.2481 26.3715 41.5328H17.4062V31.0831ZM43.3938 41.5328H34.4313C34.5189 41.2842 34.595 40.9855 34.6597 40.6704C35.3152 40.4293 35.8486 39.8008 36.0205 39.002L36.847 35.1619C37.3639 32.7604 39.277 31.0832 41.4993 31.0832H43.3938V41.5328Z" fill="#323761"/>
</svg>
