<svg width="20" height="21" viewBox="0 0 20 21" fill="none" xmlns="http://www.w3.org/2000/svg">
<path d="M6.65934 6.99195H12.7178C12.8852 6.99195 13.0209 6.85645 13.0209 6.68906C13.0209 6.52168 12.8852 6.38574 12.7178 6.38574H6.65934C6.49195 6.38574 6.35645 6.52168 6.35645 6.68906C6.35645 6.85645 6.49195 6.99195 6.65934 6.99195Z" fill="#969696"/>
<path d="M13.597 8.44434H7.9193C7.75195 8.44434 7.61621 8.57984 7.61621 8.74723C7.61621 8.91461 7.75195 9.05055 7.9193 9.05055H13.597C13.7643 9.05055 13.8998 8.91461 13.8998 8.74723C13.8998 8.57984 13.7643 8.44434 13.597 8.44434Z" fill="#969696"/>
<path d="M11.9804 10.502H6.65934C6.49195 10.502 6.35645 10.6375 6.35645 10.8048C6.35645 10.9722 6.49195 11.1077 6.65934 11.1077H11.9804C12.1475 11.1077 12.2833 10.9722 12.2833 10.8048C12.2832 10.6375 12.1475 10.502 11.9804 10.502Z" fill="#969696"/>
<path d="M15.4992 3.87109H4.5011C3.32953 3.87109 2.37598 4.75242 2.37598 5.83625V11.8843C2.37598 12.9677 3.32953 13.849 4.5011 13.849H10.9868L15.667 17.1298V13.8433C16.7606 13.7637 17.6243 12.9155 17.6243 11.8843V5.83625C17.6243 4.75242 16.6707 3.87109 15.4992 3.87109ZM16.7152 11.8843C16.7152 12.4664 16.1694 12.94 15.4991 12.94H14.7578V15.3823L11.2737 12.94H4.50106C3.83059 12.94 3.285 12.4664 3.285 11.8843V5.83625C3.285 5.25371 3.83059 4.78019 4.50106 4.78019H15.4991C16.1694 4.78019 16.7152 5.25375 16.7152 5.83625V11.8843Z" fill="#969696"/>
</svg>
