<svg width="24" height="25" viewBox="0 0 24 25" fill="none" xmlns="http://www.w3.org/2000/svg">
<path d="M6.98224 7.3595H15.4452C15.679 7.3595 15.8686 7.17021 15.8686 6.9364C15.8686 6.70258 15.679 6.5127 15.4452 6.5127H6.98224C6.74843 6.5127 6.55914 6.70258 6.55914 6.9364C6.55914 7.17021 6.74843 7.3595 6.98224 7.3595Z" fill="#0A98E8"/>
<path d="M16.6739 9.38867H8.74289C8.50913 9.38867 8.31952 9.57796 8.31952 9.81177C8.31952 10.0456 8.50913 10.2355 8.74289 10.2355H16.6739C16.9076 10.2355 17.097 10.0456 17.097 9.81177C17.097 9.57796 16.9076 9.38867 16.6739 9.38867Z" fill="#0A98E8"/>
<path d="M14.4151 12.2617H6.98224C6.74843 12.2617 6.55914 12.451 6.55914 12.6848C6.55914 12.9186 6.74843 13.1079 6.98224 13.1079H14.4151C14.6486 13.1079 14.8382 12.9186 14.8382 12.6848C14.8381 12.451 14.6486 12.2617 14.4151 12.2617Z" fill="#0A98E8"/>
<path d="M19.3314 3H3.96847C2.33194 3 0.999939 4.2311 0.999939 5.74507V14.1934C0.999939 15.7068 2.33194 16.9379 3.96847 16.9379H13.0282L19.5658 21.5208V16.9299C21.0934 16.8187 22.2999 15.6339 22.2999 14.1934V5.74507C22.2999 4.2311 20.9679 3 19.3314 3ZM21.03 14.1934C21.03 15.0066 20.2677 15.6681 19.3314 15.6681H18.2958V19.0797L13.429 15.6681H3.96842C3.03185 15.6681 2.26973 15.0066 2.26973 14.1934V5.74507C2.26973 4.93134 3.03185 4.2699 3.96842 4.2699H19.3314C20.2677 4.2699 21.03 4.93139 21.03 5.74507V14.1934Z" fill="#0A98E8"/>
</svg>
