<svg width="512" height="512" viewBox="0 0 512 512" fill="none" xmlns="http://www.w3.org/2000/svg">
<path d="M170.476 166.19H325.573C329.858 166.19 333.333 162.721 333.333 158.436C333.333 154.151 329.858 150.671 325.573 150.671H170.476C166.191 150.671 162.722 154.151 162.722 158.436C162.722 162.721 166.191 166.19 170.476 166.19Z" fill="#424242"/>
<path d="M348.088 203.362H202.74C198.456 203.362 194.981 206.831 194.981 211.116C194.981 215.401 198.456 218.881 202.74 218.881H348.088C352.372 218.881 355.842 215.401 355.842 211.116C355.842 206.831 352.372 203.362 348.088 203.362Z" fill="#424242"/>
<path d="M306.695 256.052H170.476C166.191 256.052 162.722 259.521 162.722 263.806C162.722 268.09 166.191 271.56 170.476 271.56H306.695C310.974 271.56 314.449 268.09 314.449 263.806C314.448 259.521 310.974 256.052 306.695 256.052Z" fill="#424242"/>
<path d="M396.776 86.2881H115.225C85.2328 86.2881 60.8218 108.85 60.8218 136.596V291.426C60.8218 319.161 85.2328 341.723 115.225 341.723H281.259L401.071 425.712V341.577C429.067 339.539 451.179 317.824 451.179 291.426V136.596C451.179 108.85 426.768 86.2881 396.776 86.2881ZM427.906 291.426C427.906 306.328 413.934 318.451 396.775 318.451H377.797V380.974L288.604 318.451H115.224C98.0598 318.451 84.0928 306.328 84.0928 291.426V136.596C84.0928 121.683 98.0598 109.561 115.224 109.561H396.775C413.934 109.561 427.906 121.684 427.906 136.596V291.426Z" fill="#424242"/>
</svg>
