<svg width="20" height="20" viewBox="0 0 20 20" fill="none" xmlns="http://www.w3.org/2000/svg">
<path d="M5.9854 6.03184H13.0378C13.2327 6.03184 13.3907 5.8741 13.3907 5.67926C13.3907 5.48441 13.2327 5.32617 13.0378 5.32617H5.9854C5.79055 5.32617 5.63281 5.48441 5.63281 5.67926C5.63281 5.8741 5.79055 6.03184 5.9854 6.03184Z" fill="#0A98E8"/>
<path d="M14.0618 7.72168H7.45266C7.25787 7.72168 7.09985 7.87942 7.09985 8.07426C7.09985 8.26911 7.25787 8.42735 7.45266 8.42735H14.0618C14.2566 8.42735 14.4144 8.26911 14.4144 8.07426C14.4144 7.87942 14.2566 7.72168 14.0618 7.72168Z" fill="#0A98E8"/>
<path d="M12.1794 10.1182H5.9854C5.79055 10.1182 5.63281 10.2759 5.63281 10.4707C5.63281 10.6655 5.79055 10.8233 5.9854 10.8233H12.1794C12.374 10.8233 12.532 10.6655 12.532 10.4707C12.532 10.2759 12.374 10.1182 12.1794 10.1182Z" fill="#0A98E8"/>
<path d="M16.2762 2.39941H3.47378C2.11 2.39941 1 3.42533 1 4.68697V11.7273C1 12.9884 2.11 14.0143 3.47378 14.0143H11.0235L16.4715 17.8334V14.0077C17.7445 13.915 18.75 12.9276 18.75 11.7273V4.68697C18.75 3.42533 17.64 2.39941 16.2762 2.39941ZM17.6917 11.7273C17.6917 12.4049 17.0564 12.9561 16.2762 12.9561H15.4132V15.7991L11.3575 12.9561H3.47373C2.69326 12.9561 2.05816 12.4049 2.05816 11.7273V4.68697C2.05816 4.00886 2.69326 3.45766 3.47373 3.45766H16.2762C17.0564 3.45766 17.6917 4.00891 17.6917 4.68697V11.7273Z" fill="#0A98E8"/>
</svg>
