<svg width="51" height="51" viewBox="0 0 51 51" fill="none" xmlns="http://www.w3.org/2000/svg">
<circle cx="25.5" cy="25.5" r="25.5" fill="#EBF1F4"/>
<path fill-rule="evenodd" clip-rule="evenodd" d="M35.5418 32.3332C35.5418 33.5991 34.5161 34.6248 33.2502 34.6248H16.7502C15.4842 34.6248 14.4585 33.5991 14.4585 32.3332V19.0415C14.4585 18.0291 15.2794 17.2082 16.2918 17.2082H25.5369L29.2489 15.8634C29.484 15.7777 29.7444 15.8992 29.8301 16.1334L30.221 17.2082H31.8752C32.8876 17.2082 33.7085 18.0291 33.7085 19.0415V19.9582C34.721 19.9582 35.5418 20.7791 35.5418 21.7915V32.3332ZM16.2918 18.1248C15.7858 18.1248 15.3752 18.5355 15.3752 19.0415C15.3752 19.5475 15.7858 19.9582 16.2918 19.9582H17.8708H17.9574C17.9634 19.9559 17.967 19.9508 17.973 19.9486L23.0064 18.1248H16.2918ZM29.6192 18.2078L29.1325 16.8676L28.192 17.2082H28.1934L25.6661 18.1248H25.6615L20.602 19.9582H30.2554L29.6192 18.2078ZM32.7918 19.0415C32.7918 18.5355 32.3812 18.1248 31.8752 18.1248H30.5538L31.2202 19.9582H32.7918V19.0415ZM33.7085 20.8748H16.2918C15.9563 20.8748 15.6456 20.7781 15.3752 20.6205V32.3332C15.3752 33.0926 15.9912 33.7082 16.7502 33.7082H33.2502C34.0096 33.7082 34.6252 33.0926 34.6252 32.3332V29.1248H32.7918C31.7794 29.1248 30.9585 28.304 30.9585 27.2915C30.9585 26.2791 31.7794 25.4582 32.7918 25.4582H34.6252V21.7915C34.6252 21.2855 34.2145 20.8748 33.7085 20.8748ZM34.6252 28.2082V26.3748H32.7918C32.2858 26.3748 31.8752 26.7855 31.8752 27.2915C31.8752 27.7975 32.2858 28.2082 32.7918 28.2082H34.6252ZM32.7918 26.8332H33.7085V27.7498H32.7918V26.8332Z" fill="#0A98E8"/>
</svg>
