<svg width="50" height="50" viewBox="0 0 50 50" fill="none" xmlns="http://www.w3.org/2000/svg">
<circle cx="25" cy="25" r="25" fill="#F6FAFC"/>
<g clip-path="url(#clip0_3289_3010)">
<path fill-rule="evenodd" clip-rule="evenodd" d="M35.1192 31.9736C35.1192 33.2147 34.1135 34.2203 32.8724 34.2203H16.696C15.4549 34.2203 14.4492 33.2147 14.4492 31.9736V18.9425C14.4492 17.9499 15.254 17.1451 16.2466 17.1451H25.3104L28.9496 15.8268C29.1801 15.7427 29.4354 15.8618 29.5194 16.0914L29.9027 17.1451H31.5244C32.517 17.1451 33.3218 17.9499 33.3218 18.9425V19.8412C34.3144 19.8412 35.1192 20.646 35.1192 21.6386V31.9736ZM16.2466 18.0438C15.7505 18.0438 15.3479 18.4465 15.3479 18.9425C15.3479 19.4386 15.7505 19.8412 16.2466 19.8412H17.7946H17.8795C17.8854 19.839 17.889 19.834 17.8948 19.8318L22.8295 18.0438H16.2466ZM29.3127 18.1252L28.8355 16.8113L27.9134 17.1451H27.9148L25.4371 18.0438H25.4326L20.4723 19.8412H29.9364L29.3127 18.1252ZM32.4231 18.9425C32.4231 18.4465 32.0205 18.0438 31.5244 18.0438H30.2289L30.8823 19.8412H32.4231V18.9425ZM33.3218 20.7399H16.2466C15.9177 20.7399 15.613 20.6451 15.3479 20.4905V31.9736C15.3479 32.7181 15.9518 33.3216 16.696 33.3216H32.8724C33.617 33.3216 34.2205 32.7181 34.2205 31.9736V28.8281H32.4231C31.4305 28.8281 30.6257 28.0234 30.6257 27.0308C30.6257 26.0382 31.4305 25.2334 32.4231 25.2334H34.2205V21.6386C34.2205 21.1425 33.8178 20.7399 33.3218 20.7399ZM34.2205 27.9295V26.1321H32.4231C31.927 26.1321 31.5244 26.5347 31.5244 27.0308C31.5244 27.5268 31.927 27.9295 32.4231 27.9295H34.2205ZM32.4231 26.5814H33.3218V27.4801H32.4231V26.5814Z" fill="#0A98E8"/>
</g>
<defs>
<clipPath id="clip0_3289_3010">
<rect width="21.5686" height="21.5686" fill="white" transform="translate(14 14)"/>
</clipPath>
</defs>
</svg>
