<svg width="20" height="18" viewBox="0 0 20 18" fill="none" xmlns="http://www.w3.org/2000/svg">
<g clip-path="url(#clip0_735_1907)">
<path d="M0 5.99449V14.2645C0 15.1485 0.351189 15.9964 0.976311 16.6215C1.60143 17.2466 2.44928 17.5978 3.33333 17.5978H16.6667C17.5507 17.5978 18.3986 17.2466 19.0237 16.6215C19.6488 15.9964 20 15.1485 20 14.2645V4.26449C20 3.38043 19.6488 2.53258 19.0237 1.90746C18.3986 1.28234 17.5507 0.931152 16.6667 0.931152H3.33333C2.44928 0.931152 1.60143 1.28234 0.976311 1.90746C0.351189 2.53258 0 3.38043 0 4.26449V5.99449ZM3.33333 2.59782H16.6667C17.1087 2.59782 17.5326 2.77341 17.8452 3.08597C18.1577 3.39854 18.3333 3.82246 18.3333 4.26449V5.49782L10 9.98449L1.66667 5.49782V4.26449C1.66667 3.82246 1.84226 3.39854 2.15482 3.08597C2.46738 2.77341 2.89131 2.59782 3.33333 2.59782ZM1.66667 7.39115L9.605 11.6645C9.7264 11.7298 9.86212 11.764 10 11.764C10.1379 11.764 10.2736 11.7298 10.395 11.6645L18.3333 7.39115V14.2645C18.3333 14.7065 18.1577 15.1304 17.8452 15.443C17.5326 15.7556 17.1087 15.9312 16.6667 15.9312H3.33333C2.89131 15.9312 2.46738 15.7556 2.15482 15.443C1.84226 15.1304 1.66667 14.7065 1.66667 14.2645V7.39115Z" fill="#006BCE"/>
</g>
<defs>
<clipPath id="clip0_735_1907">
<rect width="20" height="16.6667" fill="white" transform="translate(0 0.931152)"/>
</clipPath>
</defs>
</svg>
