<svg width="50" height="50" viewBox="0 0 50 50" fill="none" xmlns="http://www.w3.org/2000/svg">
<circle cx="25" cy="25" r="25" fill="#F6FAFC"/>
<path d="M34.7097 25.7174L32.0396 24.3826V19.2939C32.0396 19.0233 31.8204 18.8037 31.5494 18.8037H27.6278C27.3567 18.8037 27.1376 19.0233 27.1376 19.2939V21.9317L24.9057 20.816C24.8366 20.7817 24.7616 20.7645 24.6866 20.7645C24.6116 20.7645 24.5361 20.7817 24.4675 20.816L14.6636 25.7179C14.4214 25.839 14.3234 26.1336 14.4445 26.3758L15.4249 28.3366C15.5464 28.5787 15.8405 28.6768 16.0827 28.5557L17.3337 27.9297V38.9018C17.3337 39.1723 17.5533 39.3919 17.8239 39.3919H31.5494C31.8204 39.3919 32.0396 39.1723 32.0396 38.9018V27.9297L33.291 28.5552C33.5342 28.6772 33.8278 28.5777 33.9489 28.3361L34.9293 26.3753C35.0503 26.1331 34.9518 25.839 34.7097 25.7174ZM31.0592 19.7841V20.7645H28.118V19.7841H31.0592ZM28.118 21.7449H31.0592V23.8924L28.118 22.4218V21.7449ZM31.0592 38.4116H18.3141V27.4395L24.6866 24.2532L31.0592 27.4395V38.4116ZM33.291 27.4591L24.9062 23.2665C24.7685 23.1973 24.6057 23.1973 24.4675 23.2665L16.0827 27.4591L15.541 26.3753L24.6866 21.8022L33.8327 26.3753L33.291 27.4591Z" fill="#0A98E8"/>
<path d="M20.4183 28.7511C19.1457 30.0231 19.1457 32.0937 20.4183 33.3658L24.3398 37.2873C24.4354 37.3829 24.5609 37.431 24.6864 37.431C24.8119 37.431 24.9374 37.3829 25.033 37.2873L28.9546 33.3658C30.2271 32.0937 30.2271 30.0231 28.9546 28.7511C27.7923 27.5888 25.9639 27.4883 24.6864 28.4496C23.4095 27.4893 21.581 27.5888 20.4183 28.7511ZM28.2614 29.4442C29.1511 30.3344 29.1511 31.7824 28.2614 32.6726L24.6864 36.2476L21.1114 32.6726C20.2217 31.7824 20.2217 30.3344 21.1114 29.4442C21.5565 28.9991 22.1413 28.7766 22.7256 28.7766C23.3099 28.7766 23.8947 28.9991 24.3398 29.4442C24.5315 29.6359 24.8413 29.6359 25.033 29.4442C25.9232 28.5545 27.3712 28.5545 28.2614 29.4442Z" fill="#0A98E8"/>
<path d="M29.242 17.6795C29.3376 17.7751 29.463 17.8231 29.5885 17.8231C29.714 17.8231 29.8395 17.7751 29.9351 17.6795L32.8763 14.7383C33.3616 14.253 33.6292 13.6074 33.6292 12.9211C33.6292 12.2349 33.3616 11.5893 32.8763 11.104C31.9827 10.2108 30.5905 10.1148 29.5885 10.8133C28.5866 10.1138 27.1944 10.2108 26.3008 11.104C25.8155 11.5893 25.5479 12.2349 25.5479 12.9211C25.5479 13.6074 25.8155 14.253 26.3008 14.7383L29.242 17.6795ZM26.9939 11.7971C27.3037 11.4873 27.7111 11.3324 28.1179 11.3324C28.5248 11.3324 28.9322 11.4873 29.242 11.7971C29.4336 11.9888 29.7434 11.9888 29.9351 11.7971C30.5547 11.1775 31.5635 11.1775 32.1831 11.7971C32.4831 12.0976 32.6488 12.4966 32.6488 12.9211C32.6488 13.3456 32.4831 13.7447 32.1831 14.0452L29.5885 16.6398L26.9939 14.0452C26.6939 13.7447 26.5282 13.3456 26.5282 12.9211C26.5282 12.4966 26.6939 12.0976 26.9939 11.7971Z" fill="#0A98E8"/>
</svg>
