<svg width="51" height="51" viewBox="0 0 51 51" fill="none" xmlns="http://www.w3.org/2000/svg">
<circle cx="25.5" cy="25.5" r="25.5" fill="#EBF1F4"/>
<path d="M35.2234 26.052L32.4999 24.6905V19.5C32.4999 19.224 32.2764 19 31.9999 19H27.9999C27.7234 19 27.4999 19.224 27.4999 19.5V22.1905L25.2234 21.0525C25.1529 21.0175 25.0764 21 24.9999 21C24.9234 21 24.8464 21.0175 24.7764 21.0525L14.7764 26.0525C14.5294 26.176 14.4294 26.4765 14.5529 26.7235L15.5529 28.7235C15.6769 28.9705 15.9769 29.0705 16.2239 28.947L17.4999 28.3085V39.5C17.4999 39.776 17.7239 40 17.9999 40H31.9999C32.2764 40 32.4999 39.776 32.4999 39.5V28.3085L33.7764 28.9465C34.0244 29.071 34.3239 28.9695 34.4474 28.723L35.4474 26.723C35.5709 26.476 35.4704 26.176 35.2234 26.052ZM31.4999 20V21H28.4999V20H31.4999ZM28.4999 22H31.4999V24.1905L28.4999 22.6905V22ZM31.4999 39H18.4999V27.8085L24.9999 24.5585L31.4999 27.8085V39ZM33.7764 27.8285L25.2239 23.552C25.0834 23.4815 24.9174 23.4815 24.7764 23.552L16.2239 27.8285L15.6714 26.723L24.9999 22.0585L34.3289 26.723L33.7764 27.8285Z" fill="#0A98E8"/>
<path d="M20.6464 29.1461C19.3484 30.4436 19.3484 32.5556 20.6464 33.8531L24.6464 37.8531C24.7439 37.9506 24.8719 37.9996 24.9999 37.9996C25.1279 37.9996 25.2559 37.9506 25.3534 37.8531L29.3534 33.8531C30.6514 32.5556 30.6514 30.4436 29.3534 29.1461C28.1679 27.9606 26.3029 27.8581 24.9999 28.8386C23.6974 27.8591 21.8324 27.9606 20.6464 29.1461ZM28.6464 29.8531C29.5539 30.7611 29.5539 32.2381 28.6464 33.1461L24.9999 36.7926L21.3534 33.1461C20.4459 32.2381 20.4459 30.7611 21.3534 29.8531C21.8074 29.3991 22.4039 29.1721 22.9999 29.1721C23.5959 29.1721 24.1924 29.3991 24.6464 29.8531C24.8419 30.0486 25.1579 30.0486 25.3534 29.8531C26.2614 28.9456 27.7384 28.9456 28.6464 29.8531Z" fill="#0A98E8"/>
<path d="M29.6464 17.8533C29.7439 17.9508 29.8719 17.9998 29.9999 17.9998C30.1279 17.9998 30.2559 17.9508 30.3534 17.8533L33.3534 14.8533C33.8484 14.3583 34.1214 13.6998 34.1214 12.9998C34.1214 12.2998 33.8484 11.6413 33.3534 11.1463C32.4419 10.2353 31.0219 10.1373 29.9999 10.8498C28.9779 10.1363 27.5579 10.2353 26.6464 11.1463C26.1514 11.6413 25.8784 12.2998 25.8784 12.9998C25.8784 13.6998 26.1514 14.3583 26.6464 14.8533L29.6464 17.8533ZM27.3534 11.8533C27.6694 11.5373 28.0849 11.3793 28.4999 11.3793C28.9149 11.3793 29.3304 11.5373 29.6464 11.8533C29.8419 12.0488 30.1579 12.0488 30.3534 11.8533C30.9854 11.2213 32.0144 11.2213 32.6464 11.8533C32.9524 12.1598 33.1214 12.5668 33.1214 12.9998C33.1214 13.4328 32.9524 13.8398 32.6464 14.1463L29.9999 16.7928L27.3534 14.1463C27.0474 13.8398 26.8784 13.4328 26.8784 12.9998C26.8784 12.5668 27.0474 12.1598 27.3534 11.8533Z" fill="#0A98E8"/>
</svg>
