<svg width="30" height="30" viewBox="0 0 30 30" fill="none" xmlns="http://www.w3.org/2000/svg">
<g clip-path="url(#clip0_3408_3251)">
<path d="M25.7775 0H4.2225C3.10264 0 2.02862 0.444867 1.23675 1.23674C0.444869 2.02863 0 3.10263 0 4.22251V25.7775C0 26.8975 0.444869 27.9715 1.23675 28.7633C2.02862 29.5551 3.10264 30 4.2225 30H14.0325V19.05H10.3238V14.7788H14.0325V11.6325C14.0325 9.84939 14.5256 8.46377 15.5119 7.47939C16.4981 6.49314 17.835 5.99814 19.5244 5.99814C21.2156 5.99814 22.3106 6.06376 22.8112 6.18751V9.99002H20.5575C19.7437 9.99002 19.1887 10.1625 18.8906 10.5075C18.5944 10.8506 18.4462 11.3681 18.4462 12.0563V14.7788H22.6706L22.1081 19.05H18.4462V30H25.7775C26.8974 30 27.9714 29.5551 28.7633 28.7633C29.5553 27.9715 30 26.8975 30 25.7775V4.22251C30 3.10263 29.5553 2.02863 28.7633 1.23674C27.9714 0.444867 26.8974 0 25.7775 0Z" fill="#0A98E8"/>
</g>
<defs>
<clipPath id="clip0_3408_3251">
<rect width="30" height="30" fill="white"/>
</clipPath>
</defs>
</svg>
