<svg width="24" height="25" viewBox="0 0 24 25" fill="none" xmlns="http://www.w3.org/2000/svg">
<g clip-path="url(#clip0_735_1972)">
<path d="M4.38226 0.431641C1.95468 0.431641 0 2.38632 0 4.8139V20.0494C0 22.477 1.95468 24.4317 4.38226 24.4317H12.6398V15.0492H10.1588V11.6712H12.6398V8.78515C12.6398 6.51775 14.1057 4.4359 17.4825 4.4359C18.8497 4.4359 19.8608 4.56715 19.8608 4.56715L19.7813 7.72166C19.7813 7.72166 18.7501 7.71192 17.625 7.71192C16.4073 7.71192 16.212 8.27299 16.212 9.20443V11.6712H19.878L19.7183 15.0492H16.212V24.4317H19.6177C22.0453 24.4317 24 22.477 24 20.0494V4.81392C24 2.38634 22.0453 0.431665 19.6177 0.431665H4.38223L4.38226 0.431641Z" fill="#0A98E8"/>
</g>
<defs>
<clipPath id="clip0_735_1972">
<rect width="24" height="24" fill="white" transform="translate(0 0.431641)"/>
</clipPath>
</defs>
</svg>
