<svg width="61" height="60" viewBox="0 0 61 60" fill="none" xmlns="http://www.w3.org/2000/svg">
<rect x="0.444336" width="60" height="60" rx="10" fill="#E2EBF0"/>
<path d="M36.8471 15.8412C36.0435 14.9998 35.0125 14.7343 33.944 15.0938H33.9439L32.2542 15.6629C31.0237 16.0777 29.7758 16.0777 28.5452 15.6629L26.8555 15.0938C25.787 14.7342 24.7561 14.9998 23.9525 15.8412C22.7516 17.0987 22.2875 19.3605 22.7703 21.6037L23.4734 24.8703C23.6164 25.5348 24.1458 25.999 24.7608 25.999H25.7901V27.5961C25.7901 28.3233 26.3226 28.915 26.9771 28.915H27.2983V32.076L26.8808 32.2093C26.7316 32.257 26.6453 32.4301 26.6882 32.596C26.7236 32.733 26.8361 32.8223 26.9584 32.8223C26.9841 32.8223 27.0103 32.8183 27.0362 32.81L27.2983 32.7264V34.0545L26.8808 34.1878C26.7316 34.2355 26.6453 34.4087 26.6882 34.5745C26.7236 34.7115 26.8361 34.8008 26.9584 34.8008C26.9841 34.8008 27.0103 34.7968 27.0362 34.7886L27.2983 34.7049V36.0331L26.8808 36.1663C26.7316 36.214 26.6453 36.3871 26.6882 36.553C26.7236 36.6901 26.8361 36.7793 26.9584 36.7793C26.9841 36.7793 27.0103 36.7753 27.0362 36.7671L27.2983 36.6834V38.0116L26.8808 38.1448C26.7316 38.1926 26.6453 38.3657 26.6882 38.5316C26.7236 38.6686 26.8361 38.7578 26.9584 38.7578C26.9841 38.7578 27.0103 38.7539 27.0362 38.7456L27.2983 38.662V39.9901L26.8808 40.1234C26.7316 40.171 26.6453 40.3442 26.6882 40.51C26.7236 40.6471 26.8361 40.7363 26.9584 40.7363C26.9841 40.7363 27.0103 40.7324 27.0362 40.7242L27.2983 40.6404V41.5623C27.2983 42.0552 27.4682 42.5217 27.7769 42.8758L29.1828 44.4885C29.5052 44.8583 29.9381 45.0623 30.4015 45.0627C30.4022 45.0627 30.4027 45.0627 30.4032 45.0627C30.866 45.0627 31.2985 44.8597 31.6211 44.491L33.0339 42.8766C33.344 42.5222 33.5147 42.0549 33.5147 41.5606V38.6557L33.9322 38.5224C34.0815 38.4747 34.1678 38.3016 34.1248 38.1357C34.082 37.9698 33.9262 37.8742 33.7768 37.9217L33.5147 38.0053V36.6772L33.9322 36.5438C34.0815 36.4962 34.1678 36.323 34.1248 36.1572C34.082 35.9913 33.9262 35.8955 33.7768 35.9431L33.5147 36.0268V34.6987L33.9322 34.5653C34.0815 34.5177 34.1678 34.3446 34.1248 34.1787C34.082 34.0128 33.9262 33.917 33.7768 33.9646L33.5147 34.0483V32.7201L33.9322 32.5868C34.0815 32.5391 34.1678 32.366 34.1248 32.2001C34.082 32.0343 33.9262 31.9386 33.7768 31.9861L33.5147 32.0697V30.7416L33.9322 30.6083C34.0815 30.5607 34.1678 30.3875 34.1248 30.2217C34.082 30.0558 33.9262 29.9601 33.7768 30.0075L33.5147 30.0913V28.915H33.8225C34.477 28.915 35.0095 28.3234 35.0095 27.5962V25.999H36.0389C36.6538 25.999 37.1832 25.5349 37.3262 24.8703L38.0294 21.6037C38.512 19.3605 38.0479 17.0987 36.8471 15.8412ZM32.9522 41.5603C32.9522 41.8909 32.8379 42.2035 32.6305 42.4405L31.2178 44.055C31.0019 44.3016 30.7127 44.4374 30.4031 44.4374C30.4027 44.4374 30.4023 44.4374 30.402 44.4374C30.0919 44.4371 29.8024 44.3007 29.5868 44.0532L28.1809 42.4407C27.9744 42.2037 27.8607 41.8917 27.8607 41.562V40.4605L32.9522 38.8349L32.9522 41.5603ZM32.9522 38.1846L27.8607 39.8103V38.4821L32.9522 36.8564V38.1846ZM32.9522 36.2062L27.8607 37.8318V36.5037L32.9522 34.878V36.2062ZM32.9522 34.2277L27.8607 35.8533V34.5252L32.9522 32.8995V34.2277ZM32.9522 32.2492L27.8607 33.8748V32.5467L32.9522 30.921V32.2492ZM32.9522 30.2707L27.8607 31.8963V28.9149H32.9522V30.2707ZM34.4469 27.596C34.4469 27.9787 34.1668 28.2899 33.8224 28.2899H33.2334H27.5794H26.977C26.6327 28.2899 26.3525 27.9787 26.3525 27.596V25.9989H34.4469V27.596H34.4469ZM37.4821 21.4583L36.779 24.7249C36.6968 25.107 36.3924 25.374 36.0387 25.374H34.7282H26.0713H24.7607C24.4071 25.374 24.1027 25.107 24.0205 24.7249L23.3174 21.4583C22.8873 19.4603 23.2976 17.3857 24.3382 16.2961C24.6855 15.9324 25.2159 15.5608 25.9329 15.5608C26.1662 15.5608 26.4194 15.6002 26.6924 15.692L28.382 16.261C29.7209 16.7124 31.0786 16.7123 32.4174 16.261L34.107 15.692C35.2189 15.318 36.0009 15.814 36.4613 16.2961C37.5019 17.3857 37.9122 19.4602 37.4821 21.4583Z" fill="#323761"/>
</svg>
