<svg width="60" height="60" viewBox="0 0 60 60" fill="none" xmlns="http://www.w3.org/2000/svg">
<rect width="60" height="60" rx="10" fill="#CFDCE5" fill-opacity="0.5"/>
<path d="M37.1635 15.8412C36.2706 14.9998 35.1251 14.7343 33.9379 15.0938H33.9378L32.0604 15.6629C30.6931 16.0777 29.3066 16.0777 27.9392 15.6629L26.0618 15.0938C24.8746 14.7342 23.7291 14.9998 22.8362 15.8412C21.5019 17.0987 20.9862 19.3605 21.5226 21.6037L22.3039 24.8703C22.4628 25.5348 23.051 25.999 23.7343 25.999H24.878V27.5961C24.878 28.3233 25.4697 28.915 26.1969 28.915H26.5537V32.076L26.0899 32.2093C25.9241 32.257 25.8282 32.4301 25.8759 32.596C25.9152 32.733 26.0402 32.8223 26.1761 32.8223C26.2047 32.8223 26.2337 32.8183 26.2626 32.81L26.5537 32.7264V34.0545L26.0899 34.1878C25.9241 34.2355 25.8282 34.4087 25.8759 34.5745C25.9152 34.7115 26.0402 34.8008 26.1761 34.8008C26.2047 34.8008 26.2337 34.7968 26.2626 34.7886L26.5537 34.7049V36.0331L26.0899 36.1663C25.9241 36.214 25.8282 36.3871 25.8759 36.553C25.9152 36.6901 26.0402 36.7793 26.1761 36.7793C26.2047 36.7793 26.2337 36.7753 26.2626 36.7671L26.5537 36.6834V38.0116L26.0899 38.1448C25.9241 38.1926 25.8282 38.3657 25.8759 38.5316C25.9152 38.6686 26.0402 38.7578 26.1761 38.7578C26.2047 38.7578 26.2337 38.7539 26.2626 38.7456L26.5537 38.662V39.9901L26.0899 40.1234C25.9241 40.171 25.8282 40.3442 25.8759 40.51C25.9152 40.6471 26.0402 40.7363 26.1761 40.7363C26.2047 40.7363 26.2337 40.7324 26.2626 40.7242L26.5537 40.6404V41.5623C26.5537 42.0552 26.7426 42.5217 27.0856 42.8758L28.6476 44.4885C29.0059 44.8583 29.4869 45.0623 30.0018 45.0627C30.0025 45.0627 30.0031 45.0627 30.0036 45.0627C30.5179 45.0627 30.9984 44.8597 31.3569 44.491L32.9266 42.8766C33.2712 42.5222 33.4609 42.0549 33.4609 41.5606V38.6557L33.9247 38.5224C34.0906 38.4747 34.1865 38.3016 34.1388 38.1357C34.0912 37.9698 33.9181 37.8742 33.7521 37.9217L33.4609 38.0053V36.6772L33.9247 36.5438C34.0906 36.4962 34.1865 36.323 34.1388 36.1572C34.0912 35.9913 33.9181 35.8955 33.7521 35.9431L33.4609 36.0268V34.6987L33.9247 34.5653C34.0906 34.5177 34.1865 34.3446 34.1388 34.1787C34.0912 34.0128 33.9181 33.917 33.7521 33.9646L33.4609 34.0483V32.7201L33.9247 32.5868C34.0906 32.5391 34.1865 32.366 34.1388 32.2001C34.0912 32.0343 33.9181 31.9386 33.7521 31.9861L33.4609 32.0697V30.7416L33.9247 30.6083C34.0906 30.5607 34.1865 30.3875 34.1388 30.2217C34.0912 30.0558 33.9181 29.9601 33.7521 30.0075L33.4609 30.0913V28.915H33.8029C34.5301 28.915 35.1218 28.3234 35.1218 27.5962V25.999H36.2655C36.9488 25.999 37.537 25.5349 37.6959 24.8703L38.4772 21.6037C39.0134 19.3605 38.4978 17.0987 37.1635 15.8412ZM32.8359 41.5603C32.8359 41.8909 32.7089 42.2035 32.4784 42.4405L30.9087 44.055C30.6689 44.3016 30.3475 44.4374 30.0036 44.4374C30.0031 44.4374 30.0027 44.4374 30.0023 44.4374C29.6578 44.4371 29.3361 44.3007 29.0965 44.0532L27.5344 42.4407C27.305 42.2037 27.1787 41.8917 27.1787 41.562V40.4605L32.8359 38.8349L32.8359 41.5603ZM32.8359 38.1846L27.1786 39.8103V38.4821L32.8359 36.8564V38.1846ZM32.8359 36.2062L27.1786 37.8318V36.5037L32.8359 34.878V36.2062ZM32.8359 34.2277L27.1786 35.8533V34.5252L32.8359 32.8995V34.2277ZM32.8359 32.2492L27.1786 33.8748V32.5467L32.8359 30.921V32.2492ZM32.8359 30.2707L27.1786 31.8963V28.9149H32.8359V30.2707ZM34.4967 27.596C34.4967 27.9787 34.1854 28.2899 33.8027 28.2899H33.1483H26.8661H26.1968C25.8142 28.2899 25.5029 27.9787 25.5029 27.596V25.9989H34.4966V27.596H34.4967ZM37.8691 21.4583L37.0879 24.7249C36.9965 25.107 36.6583 25.374 36.2654 25.374H34.8092H25.1904H23.7342C23.3413 25.374 23.0031 25.107 22.9117 24.7249L22.1305 21.4583C21.6526 19.4603 22.1085 17.3857 23.2647 16.2961C23.6507 15.9324 24.24 15.5608 25.0366 15.5608C25.2959 15.5608 25.5772 15.6002 25.8806 15.692L27.7579 16.261C29.2456 16.7124 30.7541 16.7123 32.2417 16.261L34.119 15.692C35.3544 15.318 36.2233 15.814 36.7349 16.2961C37.8911 17.3857 38.347 19.4602 37.8691 21.4583Z" fill="#323761"/>
</svg>
