<svg width="24" height="25" viewBox="0 0 24 25" fill="none" xmlns="http://www.w3.org/2000/svg">
<g clip-path="url(#clip0_735_1974)">
<path d="M23.9294 7.50492C23.916 6.49508 23.7269 5.49529 23.3708 4.55025C23.0619 3.75312 22.5901 3.02918 21.9857 2.42469C21.3812 1.8202 20.6572 1.34845 19.8601 1.03958C18.9272 0.689393 17.9417 0.500038 16.9454 0.479583C15.6628 0.42225 15.2561 0.40625 12.0001 0.40625C8.74409 0.40625 8.32676 0.40625 7.05343 0.479583C6.05764 0.500189 5.07256 0.689541 4.14009 1.03958C3.34284 1.34824 2.61879 1.81991 2.01427 2.42443C1.40975 3.02894 0.938079 3.75299 0.629427 4.55025C0.278535 5.48243 0.0895913 6.46773 0.0707604 7.46358C0.0134271 8.74758 -0.00390625 9.15425 -0.00390625 12.4103C-0.00390625 15.6663 -0.00390626 16.0823 0.0707604 17.3569C0.0907604 18.3543 0.27876 19.3383 0.629427 20.2729C0.938597 21.0699 1.41062 21.7937 2.01534 22.398C2.62006 23.0022 3.34418 23.4737 4.14143 23.7823C5.07134 24.1465 6.05659 24.3494 7.05476 24.3822C8.33876 24.4396 8.74543 24.4569 12.0014 24.4569C15.2574 24.4569 15.6748 24.4569 16.9481 24.3822C17.9443 24.3626 18.9299 24.1737 19.8628 23.8236C20.6597 23.5144 21.3834 23.0425 21.9879 22.438C22.5923 21.8336 23.0642 21.1098 23.3734 20.3129C23.7241 19.3796 23.9121 18.3956 23.9321 17.3969C23.9894 16.1143 24.0068 15.7076 24.0068 12.4503C24.0041 9.19425 24.0041 8.78092 23.9294 7.50492ZM11.9921 18.5676C8.58676 18.5676 5.82809 15.8089 5.82809 12.4036C5.82809 8.99825 8.58676 6.23958 11.9921 6.23958C13.6269 6.23958 15.1947 6.889 16.3507 8.04498C17.5067 9.20095 18.1561 10.7688 18.1561 12.4036C18.1561 14.0384 17.5067 15.6062 16.3507 16.7622C15.1947 17.9182 13.6269 18.5676 11.9921 18.5676ZM18.4014 7.44892C18.2126 7.44909 18.0256 7.41204 17.8512 7.33986C17.6767 7.26769 17.5182 7.16183 17.3847 7.02832C17.2512 6.89482 17.1453 6.7363 17.0731 6.56184C17.001 6.38737 16.9639 6.20039 16.9641 6.01158C16.9641 5.82292 17.0013 5.6361 17.0735 5.4618C17.1457 5.28749 17.2515 5.12911 17.3849 4.99571C17.5183 4.8623 17.6767 4.75648 17.851 4.68428C18.0253 4.61208 18.2121 4.57492 18.4008 4.57492C18.5894 4.57492 18.7762 4.61208 18.9506 4.68428C19.1249 4.75648 19.2832 4.8623 19.4166 4.99571C19.55 5.12911 19.6559 5.28749 19.7281 5.4618C19.8003 5.6361 19.8374 5.82292 19.8374 6.01158C19.8374 6.80625 19.1948 7.44892 18.4014 7.44892Z" fill="#0A98E8"/>
<path d="M11.992 16.4077C14.2034 16.4077 15.996 14.615 15.996 12.4037C15.996 10.1923 14.2034 8.39966 11.992 8.39966C9.78069 8.39966 7.98804 10.1923 7.98804 12.4037C7.98804 14.615 9.78069 16.4077 11.992 16.4077Z" fill="#0A98E8"/>
</g>
<defs>
<clipPath id="clip0_735_1974">
<rect width="24" height="24" fill="white" transform="translate(0 0.431641)"/>
</clipPath>
</defs>
</svg>
