<svg width="24" height="24" viewBox="0 0 24 24" fill="none" xmlns="http://www.w3.org/2000/svg">
<g clip-path="url(#clip0_3691_1335)">
<path d="M23.9294 7.07328C23.916 6.06344 23.7269 5.06364 23.3708 4.11861C23.0619 3.32148 22.5901 2.59754 21.9857 1.99305C21.3812 1.38856 20.6572 0.916811 19.8601 0.607943C18.9272 0.257752 17.9417 0.0683978 16.9454 0.0479428C15.6628 -0.00939054 15.2561 -0.0253906 12.0001 -0.0253906C8.74409 -0.0253906 8.32676 -0.0253905 7.05343 0.0479428C6.05764 0.0685481 5.07256 0.2579 4.14009 0.607943C3.34284 0.916595 2.61879 1.38827 2.01427 1.99279C1.40975 2.5973 0.938079 3.32135 0.629427 4.11861C0.278535 5.05079 0.0895913 6.03609 0.0707604 7.03194C0.0134271 8.31594 -0.00390625 8.72261 -0.00390625 11.9786C-0.00390625 15.2346 -0.00390626 15.6506 0.0707604 16.9253C0.0907604 17.9226 0.27876 18.9066 0.629427 19.8413C0.938597 20.6383 1.41062 21.3621 2.01534 21.9663C2.62006 22.5706 3.34418 23.042 4.14143 23.3506C5.07134 23.7149 6.05659 23.9178 7.05476 23.9506C8.33876 24.0079 8.74543 24.0253 12.0014 24.0253C15.2574 24.0253 15.6748 24.0253 16.9481 23.9506C17.9443 23.931 18.9299 23.7421 19.8628 23.3919C20.6597 23.0827 21.3834 22.6108 21.9879 22.0064C22.5923 21.402 23.0642 20.6782 23.3734 19.8813C23.7241 18.9479 23.9121 17.9639 23.9321 16.9653C23.9894 15.6826 24.0068 15.2759 24.0068 12.0186C24.0041 8.76261 24.0041 8.34928 23.9294 7.07328V7.07328ZM11.9921 18.1359C8.58676 18.1359 5.82809 15.3773 5.82809 11.9719C5.82809 8.56661 8.58676 5.80794 11.9921 5.80794C13.6269 5.80794 15.1947 6.45736 16.3507 7.61334C17.5067 8.76931 18.1561 10.3371 18.1561 11.9719C18.1561 13.6067 17.5067 15.1746 16.3507 16.3306C15.1947 17.4865 13.6269 18.1359 11.9921 18.1359V18.1359ZM18.4014 7.01728C18.2126 7.01745 18.0256 6.98039 17.8512 6.90822C17.6767 6.83605 17.5182 6.73019 17.3847 6.59668C17.2512 6.46318 17.1453 6.30466 17.0731 6.13019C17.001 5.95573 16.9639 5.76875 16.9641 5.57994C16.9641 5.39128 17.0013 5.20446 17.0735 5.03016C17.1457 4.85585 17.2515 4.69747 17.3849 4.56407C17.5183 4.43066 17.6767 4.32484 17.851 4.25264C18.0253 4.18044 18.2121 4.14328 18.4008 4.14328C18.5894 4.14328 18.7762 4.18044 18.9505 4.25264C19.1249 4.32484 19.2832 4.43066 19.4166 4.56407C19.55 4.69747 19.6559 4.85585 19.7281 5.03016C19.8003 5.20446 19.8374 5.39128 19.8374 5.57994C19.8374 6.37461 19.1948 7.01728 18.4014 7.01728Z" fill="white"/>
<path d="M11.9923 15.9758C14.2036 15.9758 15.9963 14.1831 15.9963 11.9718C15.9963 9.76043 14.2036 7.96777 11.9923 7.96777C9.78093 7.96777 7.98828 9.76043 7.98828 11.9718C7.98828 14.1831 9.78093 15.9758 11.9923 15.9758Z" fill="white"/>
</g>
<defs>
<clipPath id="clip0_3691_1335">
<rect width="24" height="24" fill="white"/>
</clipPath>
</defs>
</svg>
