<svg width="24" height="25" viewBox="0 0 24 25" fill="none" xmlns="http://www.w3.org/2000/svg">
<path d="M5.80539 4.21677H20.4527C20.7547 4.21677 20.9999 4.46197 20.9999 4.76397V23.332C20.9999 23.6343 20.7547 23.8792 20.4527 23.8792H5.80539C5.50339 23.8792 5.2582 23.6343 5.2582 23.332V4.76397C5.2582 4.46197 5.50339 4.21677 5.80539 4.21677ZM4.09432 21.1153C4.09432 21.835 2.99994 21.835 2.99994 21.1153V2.54719C2.99994 2.24519 3.24513 2 3.54713 2H18.1945C18.9142 2 18.9142 3.09438 18.1945 3.09438H4.09432V21.1153ZM8.78284 17.6469C8.06312 17.6469 8.06312 16.5525 8.78284 16.5525H17.4753C18.195 16.5525 18.195 17.6469 17.4753 17.6469H8.78284ZM8.78284 20.5319C8.06312 20.5319 8.06312 19.4372 8.78284 19.4372H17.4753C18.195 19.4372 18.195 20.5319 17.4753 20.5319H8.78284ZM8.78284 14.7616C8.06312 14.7616 8.06312 13.6673 8.78284 13.6673H17.4753C18.195 13.6673 18.195 14.7616 17.4753 14.7616H8.78284ZM9.04204 7.5644H12.2599C12.5622 7.5644 12.8071 7.80932 12.8071 8.11159V11.3297C12.8071 11.6317 12.5622 11.8769 12.2599 11.8769H9.04204C8.73977 11.8769 8.49485 11.6317 8.49485 11.3297V8.11159C8.49485 7.80932 8.73977 7.5644 9.04204 7.5644ZM11.7127 8.65878H9.58923V10.7823H11.7127V8.65878ZM19.9056 5.31116H6.35258V22.7848H19.9056V5.31116Z" fill="#0A98E8"/>
</svg>
