<svg width="60" height="60" viewBox="0 0 60 60" fill="none" xmlns="http://www.w3.org/2000/svg">
<rect width="60" height="60" rx="10" fill="#CFDCE5" fill-opacity="0.5"/>
<path d="M36.3984 30.752C33.9708 30.752 31.9961 32.7267 31.9961 35.1543C31.9961 37.5819 33.9708 39.5566 36.3984 39.5566C38.8261 39.5566 40.8008 37.5819 40.8008 35.1543C40.8008 32.7267 38.8261 30.752 36.3984 30.752ZM36.3984 39.0098C34.2727 39.0098 32.543 37.28 32.543 35.1543C32.543 33.0286 34.2727 31.2988 36.3984 31.2988C38.5241 31.2988 40.2539 33.0286 40.2539 35.1543C40.2539 37.28 38.5241 39.0098 36.3984 39.0098Z" fill="#323761"/>
<path d="M38.2052 32.8487C38.0209 32.6748 37.7923 32.584 37.5516 32.584C37.4548 32.584 37.3564 32.5988 37.258 32.6284L36.8199 32.7613C36.5405 32.8461 36.2561 32.8461 35.976 32.7613L35.5385 32.6284C35.1956 32.5245 34.85 32.6049 34.5914 32.8487C34.2288 33.19 34.0861 33.7926 34.2278 34.3844L34.9004 37.1958C34.9731 37.5021 35.2477 37.7241 35.5561 37.7241C35.782 37.723 35.9729 37.5442 35.9903 37.3173C36.0439 36.6183 36.2566 35.9649 36.3983 35.7779C36.5399 35.9649 36.7527 36.6178 36.8063 37.3173C36.8237 37.5442 37.0146 37.7231 37.2438 37.7241C37.5489 37.7241 37.8235 37.502 37.8962 37.1958L38.5688 34.3844C38.7104 33.7926 38.5677 33.19 38.2052 32.8487ZM38.0367 34.2569L37.3646 37.0684C37.3591 37.0903 37.3494 37.1094 37.3362 37.1259C37.2809 36.649 37.0578 35.1965 36.3983 35.1965C35.7388 35.1965 35.5156 36.649 35.4604 37.1259C35.4473 37.11 35.4374 37.0904 35.432 37.0684L34.7598 34.2569C34.6499 33.7976 34.7845 33.4186 34.9666 33.2469C35.0486 33.1692 35.1415 33.1304 35.2438 33.1304C35.2875 33.1304 35.3329 33.1375 35.3799 33.1518L35.8174 33.2846C36.203 33.4017 36.5935 33.4017 36.979 33.2846L37.4165 33.1518C37.5735 33.1041 37.7129 33.1364 37.8299 33.2469C38.0121 33.4186 38.1467 33.7976 38.0367 34.2569Z" fill="#323761"/>
<path d="M29.9727 27.1562C29.1584 27.1562 28.4961 27.8185 28.4961 28.6328C28.4961 29.4471 29.1584 30.1094 29.9727 30.1094C30.787 30.1094 31.4492 29.4471 31.4492 28.6328C31.4492 27.8185 30.787 27.1562 29.9727 27.1562ZM29.9727 29.5625C29.4602 29.5625 29.043 29.1452 29.043 28.6328C29.043 28.1204 29.4602 27.7031 29.9727 27.7031C30.4851 27.7031 30.9023 28.1204 30.9023 28.6328C30.9023 29.1452 30.4851 29.5625 29.9727 29.5625Z" fill="#323761"/>
<path d="M34.3887 27.1562C33.5743 27.1562 32.9121 27.8185 32.9121 28.6328C32.9121 29.4471 33.5743 30.1094 34.3887 30.1094C35.203 30.1094 35.8652 29.4471 35.8652 28.6328C35.8652 27.8185 35.203 27.1562 34.3887 27.1562ZM34.3887 29.5625C33.8763 29.5625 33.459 29.1452 33.459 28.6328C33.459 28.1204 33.8763 27.7031 34.3887 27.7031C34.9011 27.7031 35.3184 28.1204 35.3184 28.6328C35.3184 29.1452 34.9011 29.5625 34.3887 29.5625Z" fill="#323761"/>
<path d="M38.8047 27.1562C37.9903 27.1562 37.3281 27.8185 37.3281 28.6328C37.3281 29.4471 37.9903 30.1094 38.8047 30.1094C39.619 30.1094 40.2812 29.4471 40.2812 28.6328C40.2812 27.8185 39.619 27.1562 38.8047 27.1562ZM38.8047 29.5625C38.2923 29.5625 37.875 29.1452 37.875 28.6328C37.875 28.1204 38.2923 27.7031 38.8047 27.7031C39.3171 27.7031 39.7344 28.1204 39.7344 28.6328C39.7344 29.1452 39.3171 29.5625 38.8047 29.5625Z" fill="#323761"/>
<path d="M25.5566 31.4766C24.7423 31.4766 24.0801 32.1388 24.0801 32.9531C24.0801 33.7675 24.7423 34.4297 25.5566 34.4297C26.3709 34.4297 27.0332 33.7675 27.0332 32.9531C27.0332 32.1388 26.3709 31.4766 25.5566 31.4766ZM25.5566 33.8828C25.0442 33.8828 24.627 33.4655 24.627 32.9531C24.627 32.4407 25.0442 32.0234 25.5566 32.0234C26.0691 32.0234 26.4863 32.4407 26.4863 32.9531C26.4863 33.4655 26.0691 33.8828 25.5566 33.8828Z" fill="#323761"/>
<path d="M21.1406 31.4766C20.3263 31.4766 19.6641 32.1388 19.6641 32.9531C19.6641 33.7675 20.3263 34.4297 21.1406 34.4297C21.9549 34.4297 22.6172 33.7675 22.6172 32.9531C22.6172 32.1388 21.9549 31.4766 21.1406 31.4766ZM21.1406 33.8828C20.6282 33.8828 20.2109 33.4655 20.2109 32.9531C20.2109 32.4407 20.6282 32.0234 21.1406 32.0234C21.653 32.0234 22.0703 32.4407 22.0703 32.9531C22.0703 33.4655 21.653 33.8828 21.1406 33.8828Z" fill="#323761"/>
<path d="M29.9727 31.4766C29.1584 31.4766 28.4961 32.1388 28.4961 32.9531C28.4961 33.7675 29.1584 34.4297 29.9727 34.4297C30.787 34.4297 31.4492 33.7675 31.4492 32.9531C31.4492 32.1388 30.787 31.4766 29.9727 31.4766ZM29.9727 33.8828C29.4602 33.8828 29.043 33.4655 29.043 32.9531C29.043 32.4407 29.4602 32.0234 29.9727 32.0234C30.4851 32.0234 30.9023 32.4407 30.9023 32.9531C30.9023 33.4655 30.4851 33.8828 29.9727 33.8828Z" fill="#323761"/>
<path d="M25.5566 35.7969C24.7423 35.7969 24.0801 36.4591 24.0801 37.2734C24.0801 38.0878 24.7423 38.75 25.5566 38.75C26.3709 38.75 27.0332 38.0878 27.0332 37.2734C27.0332 36.4591 26.3709 35.7969 25.5566 35.7969ZM25.5566 38.2031C25.0442 38.2031 24.627 37.7859 24.627 37.2734C24.627 36.761 25.0442 36.3438 25.5566 36.3438C26.0691 36.3438 26.4863 36.761 26.4863 37.2734C26.4863 37.7859 26.0691 38.2031 25.5566 38.2031Z" fill="#323761"/>
<path d="M21.1406 35.7969C20.3263 35.7969 19.6641 36.4591 19.6641 37.2734C19.6641 38.0878 20.3263 38.75 21.1406 38.75C21.9549 38.75 22.6172 38.0878 22.6172 37.2734C22.6172 36.4591 21.9549 35.7969 21.1406 35.7969ZM21.1406 38.2031C20.6282 38.2031 20.2109 37.7859 20.2109 37.2734C20.2109 36.761 20.6282 36.3438 21.1406 36.3438C21.653 36.3438 22.0703 36.761 22.0703 37.2734C22.0703 37.7859 21.653 38.2031 21.1406 38.2031Z" fill="#323761"/>
<path d="M29.9727 35.7969C29.1584 35.7969 28.4961 36.4591 28.4961 37.2734C28.4961 38.0878 29.1584 38.75 29.9727 38.75C30.787 38.75 31.4492 38.0878 31.4492 37.2734C31.4492 36.4591 30.787 35.7969 29.9727 35.7969ZM29.9727 38.2031C29.4602 38.2031 29.043 37.7859 29.043 37.2734C29.043 36.761 29.4602 36.3438 29.9727 36.3438C30.4851 36.3438 30.9023 36.761 30.9023 37.2734C30.9023 37.7859 30.4851 38.2031 29.9727 38.2031Z" fill="#323761"/>
<path d="M38.2137 41.7578H36.5625C36.4115 41.7578 36.2891 41.6354 36.2891 41.4844C36.2891 41.3333 36.4115 41.2109 36.5625 41.2109H38.2137C38.3647 41.2109 38.4872 41.3333 38.4872 41.4844C38.4872 41.6354 38.3647 41.7578 38.2137 41.7578Z" fill="#323761"/>
<path d="M41.8956 20.1562H39.6523V19.0089C39.6523 18.5862 39.3084 18.2422 38.8856 18.2422H38.7784C38.3557 18.2422 38.0117 18.5862 38.0117 19.0089V20.1562H35.1679V19.0089C35.1679 18.5862 34.8239 18.2422 34.4012 18.2422H34.294C33.8713 18.2422 33.5272 18.5862 33.5272 19.0089V20.1562H26.1444V19.0089C26.1444 18.5862 25.8004 18.2422 25.3777 18.2422H25.2705C24.8478 18.2422 24.5038 18.5862 24.5038 19.0089V20.1562H21.9882V19.0089C21.9882 18.5862 21.6442 18.2422 21.2215 18.2422H21.1143C20.6915 18.2422 20.3475 18.5862 20.3475 19.0089V20.1562H18.1044C17.3962 20.1562 16.8203 20.7321 16.8203 21.4403V40.4737C16.8203 41.182 17.3962 41.7578 18.1044 41.7578H34.9219C35.0728 41.7578 35.1953 41.6353 35.1953 41.4844C35.1953 41.3334 35.0728 41.2109 34.9219 41.2109H18.1044C17.698 41.2109 17.3672 40.8801 17.3672 40.4737V25.7891H42.6328V40.4737C42.6328 40.8801 42.302 41.2109 41.8956 41.2109H39.8541C39.7032 41.2109 39.5807 41.3334 39.5807 41.4844C39.5807 41.6353 39.7032 41.7578 39.8541 41.7578H41.8956C42.6039 41.7578 43.1797 41.182 43.1797 40.4737V21.4403C43.1797 20.7321 42.6039 20.1562 41.8956 20.1562ZM38.5586 19.0089C38.5586 18.8875 38.657 18.7891 38.7784 18.7891H38.8857C39.0071 18.7891 39.1055 18.8875 39.1055 19.0089V21.8505C39.1055 21.9719 39.0071 22.0703 38.8857 22.0703H38.7784C38.657 22.0703 38.5586 21.9719 38.5586 21.8505V19.0089ZM34.0742 19.0089C34.0742 18.8875 34.1727 18.7891 34.2941 18.7891H34.4013C34.5227 18.7891 34.6211 18.8875 34.6211 19.0089V21.8505C34.6211 21.9719 34.5227 22.0703 34.4013 22.0703H34.2941C34.1727 22.0703 34.0742 21.9719 34.0742 21.8505V19.0089ZM25.0508 19.0089C25.0508 18.8875 25.1492 18.7891 25.2706 18.7891H25.3778C25.4992 18.7891 25.5977 18.8875 25.5977 19.0089V21.8505C25.5977 21.9719 25.4992 22.0703 25.3778 22.0703H25.2706C25.1492 22.0703 25.0508 21.9719 25.0508 21.8505V19.0089ZM20.8945 19.0089C20.8945 18.8875 20.993 18.7891 21.1144 18.7891H21.2216C21.343 18.7891 21.4414 18.8875 21.4414 19.0089V21.8505C21.4414 21.9719 21.343 22.0703 21.2216 22.0703H21.1144C20.993 22.0703 20.8945 21.9719 20.8945 21.8505V19.0089ZM17.3672 25.2422V21.4403C17.3672 21.034 17.698 20.7031 18.1044 20.7031H20.3477V21.8505C20.3477 22.2732 20.6916 22.6172 21.1144 22.6172H21.2216C21.6443 22.6172 21.9883 22.2732 21.9883 21.8505V20.7031H24.5039V21.8505C24.5039 22.2732 24.8479 22.6172 25.2706 22.6172H25.3778C25.8005 22.6172 26.1445 22.2732 26.1445 21.8505V20.7031H33.5273V21.8505C33.5273 22.2732 33.8713 22.6172 34.2941 22.6172H34.4013C34.824 22.6172 35.168 22.2732 35.168 21.8505V20.7031H38.0118V21.8505C38.0118 22.2732 38.3558 22.6172 38.7785 22.6172H38.8857C39.3084 22.6172 39.6525 22.2732 39.6525 21.8505V20.7031H41.8957C42.302 20.7031 42.6328 21.034 42.6328 21.4403V25.2422H17.3672Z" fill="#323761"/>
</svg>
