<svg width="60" height="60" viewBox="0 0 60 60" fill="none" xmlns="http://www.w3.org/2000/svg">
<rect width="60" height="60" rx="10" fill="#E2EBF0"/>
<path d="M35.3586 30.752C33.1737 30.752 31.3965 32.7267 31.3965 35.1543C31.3965 37.5819 33.1737 39.5566 35.3586 39.5566C37.5435 39.5566 39.3207 37.5819 39.3207 35.1543C39.3207 32.7267 37.5435 30.752 35.3586 30.752ZM35.3586 39.0098C33.4455 39.0098 31.8887 37.28 31.8887 35.1543C31.8887 33.0286 33.4455 31.2988 35.3586 31.2988C37.2717 31.2988 38.8285 33.0286 38.8285 35.1543C38.8285 37.28 37.2717 39.0098 35.3586 39.0098Z" fill="#323761"/>
<path d="M36.9846 32.8487C36.8188 32.6748 36.613 32.584 36.3965 32.584C36.3094 32.584 36.2208 32.5988 36.1322 32.6284L35.7379 32.7613C35.4864 32.8461 35.2305 32.8461 34.9784 32.7613L34.5847 32.6284C34.2761 32.5245 33.965 32.6049 33.7323 32.8487C33.4059 33.19 33.2775 33.7926 33.405 34.3844L34.0104 37.1958C34.0758 37.5021 34.3229 37.7241 34.6005 37.7241C34.8038 37.723 34.9756 37.5442 34.9913 37.3173C35.0395 36.6183 35.231 35.9649 35.3585 35.7779C35.4859 35.9649 35.6774 36.6178 35.7256 37.3173C35.7413 37.5442 35.9131 37.7231 36.1194 37.7241C36.394 37.7241 36.6411 37.502 36.7066 37.1958L37.3119 34.3844C37.4394 33.7926 37.311 33.19 36.9846 32.8487ZM36.833 34.2569L36.2281 37.0684C36.2232 37.0903 36.2144 37.1094 36.2026 37.1259C36.1528 36.649 35.952 35.1965 35.3585 35.1965C34.7649 35.1965 34.564 36.649 34.5144 37.1259C34.5025 37.11 34.4937 37.0904 34.4888 37.0684L33.8839 34.2569C33.7849 33.7976 33.906 33.4186 34.0699 33.2469C34.1437 33.1692 34.2274 33.1304 34.3194 33.1304C34.3588 33.1304 34.3996 33.1375 34.442 33.1518L34.8357 33.2846C35.1827 33.4017 35.5341 33.4017 35.8811 33.2846L36.2749 33.1518C36.4161 33.1041 36.5416 33.1364 36.647 33.2469C36.8109 33.4186 36.932 33.7976 36.833 34.2569Z" fill="#323761"/>
<path d="M29.576 27.1562C28.8431 27.1562 28.2471 27.8185 28.2471 28.6328C28.2471 29.4471 28.8431 30.1094 29.576 30.1094C30.3089 30.1094 30.9049 29.4471 30.9049 28.6328C30.9049 27.8185 30.3089 27.1562 29.576 27.1562ZM29.576 29.5625C29.1148 29.5625 28.7393 29.1452 28.7393 28.6328C28.7393 28.1204 29.1148 27.7031 29.576 27.7031C30.0372 27.7031 30.4127 28.1204 30.4127 28.6328C30.4127 29.1452 30.0372 29.5625 29.576 29.5625Z" fill="#323761"/>
<path d="M33.5496 27.1562C32.8167 27.1562 32.2207 27.8185 32.2207 28.6328C32.2207 29.4471 32.8167 30.1094 33.5496 30.1094C34.2825 30.1094 34.8785 29.4471 34.8785 28.6328C34.8785 27.8185 34.2825 27.1562 33.5496 27.1562ZM33.5496 29.5625C33.0884 29.5625 32.7129 29.1452 32.7129 28.6328C32.7129 28.1204 33.0884 27.7031 33.5496 27.7031C34.0108 27.7031 34.3863 28.1204 34.3863 28.6328C34.3863 29.1452 34.0108 29.5625 33.5496 29.5625Z" fill="#323761"/>
<path d="M37.5242 27.1562C36.7913 27.1562 36.1953 27.8185 36.1953 28.6328C36.1953 29.4471 36.7913 30.1094 37.5242 30.1094C38.2571 30.1094 38.8531 29.4471 38.8531 28.6328C38.8531 27.8185 38.2571 27.1562 37.5242 27.1562ZM37.5242 29.5625C37.063 29.5625 36.6875 29.1452 36.6875 28.6328C36.6875 28.1204 37.063 27.7031 37.5242 27.7031C37.9854 27.7031 38.3609 28.1204 38.3609 28.6328C38.3609 29.1452 37.9854 29.5625 37.5242 29.5625Z" fill="#323761"/>
<path d="M25.6014 31.4766C24.8685 31.4766 24.2725 32.1388 24.2725 32.9531C24.2725 33.7675 24.8685 34.4297 25.6014 34.4297C26.3342 34.4297 26.9303 33.7675 26.9303 32.9531C26.9303 32.1388 26.3342 31.4766 25.6014 31.4766ZM25.6014 33.8828C25.1402 33.8828 24.7646 33.4655 24.7646 32.9531C24.7646 32.4407 25.1402 32.0234 25.6014 32.0234C26.0625 32.0234 26.4381 32.4407 26.4381 32.9531C26.4381 33.4655 26.0625 33.8828 25.6014 33.8828Z" fill="#323761"/>
<path d="M21.6268 31.4766C20.8939 31.4766 20.2979 32.1388 20.2979 32.9531C20.2979 33.7675 20.8939 34.4297 21.6268 34.4297C22.3596 34.4297 22.9557 33.7675 22.9557 32.9531C22.9557 32.1388 22.3596 31.4766 21.6268 31.4766ZM21.6268 33.8828C21.1656 33.8828 20.79 33.4655 20.79 32.9531C20.79 32.4407 21.1656 32.0234 21.6268 32.0234C22.0879 32.0234 22.4635 32.4407 22.4635 32.9531C22.4635 33.4655 22.0879 33.8828 21.6268 33.8828Z" fill="#323761"/>
<path d="M29.576 31.4766C28.8431 31.4766 28.2471 32.1388 28.2471 32.9531C28.2471 33.7675 28.8431 34.4297 29.576 34.4297C30.3089 34.4297 30.9049 33.7675 30.9049 32.9531C30.9049 32.1388 30.3089 31.4766 29.576 31.4766ZM29.576 33.8828C29.1148 33.8828 28.7393 33.4655 28.7393 32.9531C28.7393 32.4407 29.1148 32.0234 29.576 32.0234C30.0372 32.0234 30.4127 32.4407 30.4127 32.9531C30.4127 33.4655 30.0372 33.8828 29.576 33.8828Z" fill="#323761"/>
<path d="M25.6014 35.7969C24.8685 35.7969 24.2725 36.4591 24.2725 37.2734C24.2725 38.0878 24.8685 38.75 25.6014 38.75C26.3342 38.75 26.9303 38.0878 26.9303 37.2734C26.9303 36.4591 26.3342 35.7969 25.6014 35.7969ZM25.6014 38.2031C25.1402 38.2031 24.7646 37.7859 24.7646 37.2734C24.7646 36.761 25.1402 36.3438 25.6014 36.3438C26.0625 36.3438 26.4381 36.761 26.4381 37.2734C26.4381 37.7859 26.0625 38.2031 25.6014 38.2031Z" fill="#323761"/>
<path d="M21.6268 35.7969C20.8939 35.7969 20.2979 36.4591 20.2979 37.2734C20.2979 38.0878 20.8939 38.75 21.6268 38.75C22.3596 38.75 22.9557 38.0878 22.9557 37.2734C22.9557 36.4591 22.3596 35.7969 21.6268 35.7969ZM21.6268 38.2031C21.1656 38.2031 20.79 37.7859 20.79 37.2734C20.79 36.761 21.1656 36.3438 21.6268 36.3438C22.0879 36.3438 22.4635 36.761 22.4635 37.2734C22.4635 37.7859 22.0879 38.2031 21.6268 38.2031Z" fill="#323761"/>
<path d="M29.576 35.7969C28.8431 35.7969 28.2471 36.4591 28.2471 37.2734C28.2471 38.0878 28.8431 38.75 29.576 38.75C30.3089 38.75 30.9049 38.0878 30.9049 37.2734C30.9049 36.4591 30.3089 35.7969 29.576 35.7969ZM29.576 38.2031C29.1148 38.2031 28.7393 37.7859 28.7393 37.2734C28.7393 36.761 29.1148 36.3438 29.576 36.3438C30.0372 36.3438 30.4127 36.761 30.4127 37.2734C30.4127 37.7859 30.0372 38.2031 29.576 38.2031Z" fill="#323761"/>
<path d="M36.992 41.7578H35.5059C35.3699 41.7578 35.2598 41.6354 35.2598 41.4844C35.2598 41.3333 35.3699 41.2109 35.5059 41.2109H36.992C37.1279 41.2109 37.2381 41.3333 37.2381 41.4844C37.2381 41.6354 37.1279 41.7578 36.992 41.7578Z" fill="#323761"/>
<path d="M40.3061 20.1562H38.2871V19.0089C38.2871 18.5862 37.9775 18.2422 37.5971 18.2422H37.5005C37.1201 18.2422 36.8105 18.5862 36.8105 19.0089V20.1562H34.2511V19.0089C34.2511 18.5862 33.9415 18.2422 33.5611 18.2422H33.4646C33.0841 18.2422 32.7745 18.5862 32.7745 19.0089V20.1562H26.13V19.0089C26.13 18.5862 25.8204 18.2422 25.4399 18.2422H25.3435C24.963 18.2422 24.6534 18.5862 24.6534 19.0089V20.1562H22.3894V19.0089C22.3894 18.5862 22.0798 18.2422 21.6993 18.2422H21.6028C21.2224 18.2422 20.9128 18.5862 20.9128 19.0089V20.1562H18.8939C18.2566 20.1562 17.7383 20.7321 17.7383 21.4403V40.4737C17.7383 41.182 18.2566 41.7578 18.8939 41.7578H34.0297C34.1655 41.7578 34.2758 41.6353 34.2758 41.4844C34.2758 41.3334 34.1655 41.2109 34.0297 41.2109H18.8939C18.5282 41.2109 18.2305 40.8801 18.2305 40.4737V25.7891H40.9695V40.4737C40.9695 40.8801 40.6718 41.2109 40.3061 41.2109H38.4687C38.3329 41.2109 38.2226 41.3334 38.2226 41.4844C38.2226 41.6353 38.3329 41.7578 38.4687 41.7578H40.3061C40.9435 41.7578 41.4617 41.182 41.4617 40.4737V21.4403C41.4617 20.7321 40.9435 20.1562 40.3061 20.1562ZM37.3027 19.0089C37.3027 18.8875 37.3913 18.7891 37.5006 18.7891H37.5971C37.7064 18.7891 37.795 18.8875 37.795 19.0089V21.8505C37.795 21.9719 37.7064 22.0703 37.5971 22.0703H37.5006C37.3913 22.0703 37.3027 21.9719 37.3027 21.8505V19.0089ZM33.2668 19.0089C33.2668 18.8875 33.3554 18.7891 33.4647 18.7891H33.5612C33.6704 18.7891 33.759 18.8875 33.759 19.0089V21.8505C33.759 21.9719 33.6704 22.0703 33.5612 22.0703H33.4647C33.3554 22.0703 33.2668 21.9719 33.2668 21.8505V19.0089ZM25.1457 19.0089C25.1457 18.8875 25.2343 18.7891 25.3436 18.7891H25.44C25.5493 18.7891 25.6379 18.8875 25.6379 19.0089V21.8505C25.6379 21.9719 25.5493 22.0703 25.44 22.0703H25.3436C25.2343 22.0703 25.1457 21.9719 25.1457 21.8505V19.0089ZM21.4051 19.0089C21.4051 18.8875 21.4937 18.7891 21.6029 18.7891H21.6994C21.8087 18.7891 21.8973 18.8875 21.8973 19.0089V21.8505C21.8973 21.9719 21.8087 22.0703 21.6994 22.0703H21.6029C21.4937 22.0703 21.4051 21.9719 21.4051 21.8505V19.0089ZM18.2305 25.2422V21.4403C18.2305 21.034 18.5282 20.7031 18.8939 20.7031H20.9129V21.8505C20.9129 22.2732 21.2225 22.6172 21.6029 22.6172H21.6994C22.0799 22.6172 22.3895 22.2732 22.3895 21.8505V20.7031H24.6535V21.8505C24.6535 22.2732 24.9631 22.6172 25.3436 22.6172H25.44C25.8205 22.6172 26.1301 22.2732 26.1301 21.8505V20.7031H32.7746V21.8505C32.7746 22.2732 33.0842 22.6172 33.4647 22.6172H33.5612C33.9416 22.6172 34.2512 22.2732 34.2512 21.8505V20.7031H36.8106V21.8505C36.8106 22.2732 37.1202 22.6172 37.5006 22.6172H37.5972C37.9776 22.6172 38.2872 22.2732 38.2872 21.8505V20.7031H40.3062C40.6718 20.7031 40.9695 21.034 40.9695 21.4403V25.2422H18.2305Z" fill="#323761"/>
</svg>
