<svg width="512" height="512" viewBox="0 0 512 512" fill="none" xmlns="http://www.w3.org/2000/svg">
<g clip-path="url(#clip0_2926_1564)">
<path d="M256 0C114.6 0 0 114.6 0 256C0 397.4 114.6 512 256 512C397.4 512 512 397.4 512 256C512 114.6 397.4 0 256 0ZM256 128C295.77 128 328 160.24 328 200C328 239.76 295.8 272 256 272C216.24 272 184 239.76 184 200C184 160.24 216.2 128 256 128ZM256 448C203.07 448 155.1 426.47 120.3 391.71C136.5 349.9 176.5 320 224 320H288C335.54 320 375.54 349.88 391.7 391.71C356.9 426.5 308.9 448 256 448Z" fill="white"/>
</g>
<defs>
<clipPath id="clip0_2926_1564">
<rect width="512" height="512" fill="white"/>
</clipPath>
</defs>
</svg>
