<svg width="48" height="48" viewBox="0 0 48 48" fill="none" xmlns="http://www.w3.org/2000/svg">
<path d="M14.6985 8.93375C14.9715 8.72901 15.2821 8.58005 15.6127 8.49536C15.9432 8.41067 16.2872 8.39192 16.625 8.44018C16.9628 8.48844 17.2878 8.60276 17.5814 8.77661C17.8751 8.95047 18.1316 9.18045 18.3363 9.45344C18.5411 9.72643 18.69 10.0371 18.7747 10.3676C18.8594 10.6982 18.8781 11.0422 18.8299 11.38C18.7816 11.7178 18.6673 12.0428 18.4935 12.3364C18.3196 12.63 18.0896 12.8865 17.8166 13.0913C13.7527 16.1392 11.4244 19.1041 10.0914 21.6921C11.9217 21.221 13.8533 21.3317 15.6177 22.009C17.3821 22.6863 18.8917 23.8964 19.9367 25.4712C20.9816 27.046 21.51 28.9072 21.4483 30.7961C21.3867 32.685 20.7381 34.5078 19.5928 36.0112C18.4474 37.5145 16.8621 38.6237 15.0573 39.1845C13.2525 39.7453 11.3178 39.7299 9.52215 39.1405C7.72649 38.551 6.15906 37.4168 5.03774 35.8954C3.91642 34.3741 3.29691 32.5412 3.26532 30.6515C2.93236 27.4605 3.38555 24.2364 4.58533 21.2608C6.13661 17.3475 9.16899 13.0809 14.6985 8.93375ZM38.0845 8.93375C38.3575 8.72901 38.6681 8.58005 38.9987 8.49536C39.3292 8.41067 39.6732 8.39192 40.011 8.44018C40.3489 8.48844 40.6738 8.60276 40.9675 8.77661C41.2611 8.95047 41.5176 9.18045 41.7223 9.45344C41.9271 9.72643 42.076 10.0371 42.1607 10.3676C42.2454 10.6982 42.2642 11.0422 42.2159 11.38C42.1676 11.7178 42.0533 12.0428 41.8795 12.3364C41.7056 12.63 41.4756 12.8865 41.2026 13.0913C37.1387 16.1392 34.8105 19.1041 33.4775 21.6921C35.3077 21.221 37.2393 21.3317 39.0037 22.009C40.7681 22.6863 42.2777 23.8964 43.3227 25.4712C44.3676 27.046 44.896 28.9072 44.8344 30.7961C44.7727 32.685 44.1241 34.5078 42.9788 36.0112C41.8334 37.5145 40.2481 38.6237 38.4433 39.1845C36.6385 39.7453 34.7038 39.7299 32.9082 39.1405C31.1125 38.551 29.5451 37.4168 28.4238 35.8954C27.3024 34.3741 26.6829 32.5412 26.6513 30.6515C26.3184 27.4605 26.7716 24.2364 27.9713 21.2608C29.5252 17.3475 32.555 13.0809 38.0845 8.93375Z" fill="#323761" fill-opacity="0.2"/>
</svg>
