<svg width="60" height="60" viewBox="0 0 60 60" fill="none" xmlns="http://www.w3.org/2000/svg">
<rect width="60" height="60" rx="10" fill="#CFDCE5" fill-opacity="0.5"/>
<g clip-path="url(#clip0_749_1444)">
<path d="M38.625 32.7586V27.0023H38.9508C39.0937 27.0023 39.2157 26.8994 39.2397 26.7586L39.5567 24.8997C39.5567 24.8995 39.5567 24.8993 39.5568 24.8991L39.5584 24.8898C39.5608 24.8754 39.5618 24.8609 39.5621 24.8465C39.5621 24.8445 39.5627 24.8425 39.5627 24.8404V16.1738C39.5627 16.012 39.4315 15.8809 39.2698 15.8809H37.3948C37.233 15.8809 37.1018 16.012 37.1018 16.1738V24.8404C37.1018 24.8415 37.1021 24.8424 37.1021 24.8435C37.1023 24.8589 37.1033 24.8744 37.1058 24.8898L37.4245 26.7586C37.4485 26.8994 37.5705 27.0023 37.7133 27.0023H38.0391V33.0354C38.0391 33.1972 38.1703 33.3284 38.3321 33.3284C39.4953 33.3284 40.4415 34.2746 40.4415 35.4378C40.4415 36.6009 39.4953 37.5471 38.3321 37.5471C37.8401 37.5471 37.3613 37.3742 36.9838 37.06C36.8594 36.9565 36.6748 36.9735 36.5712 37.0979C36.4677 37.2223 36.4846 37.407 36.6091 37.5105C37.0915 37.912 37.7035 38.1331 38.3321 38.1331C39.8183 38.1331 41.0274 36.9239 41.0274 35.4378C41.0273 34.0505 39.9739 32.9052 38.625 32.7586ZM37.6877 16.4668H38.9767V24.5475H37.6877V16.4668ZM37.7417 25.1335H38.9224L38.7036 26.4164H37.9605L37.7417 25.1335Z" fill="#323761"/>
<path d="M19.4194 34.2158C19.7107 34.2158 19.9468 33.9797 19.9468 33.6885C19.9468 33.3972 19.7107 33.1611 19.4194 33.1611C19.1282 33.1611 18.8921 33.3972 18.8921 33.6885C18.8921 33.9797 19.1282 34.2158 19.4194 34.2158Z" fill="#323761"/>
<path d="M21.5581 35.2705C21.8493 35.2705 22.0854 35.0344 22.0854 34.7432C22.0854 34.4519 21.8493 34.2158 21.5581 34.2158C21.2669 34.2158 21.0308 34.4519 21.0308 34.7432C21.0308 35.0344 21.2669 35.2705 21.5581 35.2705Z" fill="#323761"/>
<path d="M20.0889 36.9121C20.3801 36.9121 20.6162 36.676 20.6162 36.3848C20.6162 36.0935 20.3801 35.8574 20.0889 35.8574C19.7976 35.8574 19.5615 36.0935 19.5615 36.3848C19.5615 36.676 19.7976 36.9121 20.0889 36.9121Z" fill="#323761"/>
<path d="M30.958 34.2158C31.2493 34.2158 31.4854 33.9797 31.4854 33.6885C31.4854 33.3972 31.2493 33.1611 30.958 33.1611C30.6668 33.1611 30.4307 33.3972 30.4307 33.6885C30.4307 33.9797 30.6668 34.2158 30.958 34.2158Z" fill="#323761"/>
<path d="M28.999 36.5303C29.2903 36.5303 29.5264 36.2942 29.5264 36.0029C29.5264 35.7117 29.2903 35.4756 28.999 35.4756C28.7078 35.4756 28.4717 35.7117 28.4717 36.0029C28.4717 36.2942 28.7078 36.5303 28.999 36.5303Z" fill="#323761"/>
<path d="M29.5264 39.6885C29.8176 39.6885 30.0537 39.4524 30.0537 39.1611C30.0537 38.8699 29.8176 38.6338 29.5264 38.6338C29.2351 38.6338 28.999 38.8699 28.999 39.1611C28.999 39.4524 29.2351 39.6885 29.5264 39.6885Z" fill="#323761"/>
<path d="M43.8283 40.1906H36.6064C35.542 40.1906 34.4707 38.9556 33.6098 37.9632C32.9568 37.2103 32.4623 36.64 31.9911 36.595L33.1166 31.8884C33.1167 31.888 33.1167 31.8877 33.1168 31.8874L33.9387 28.4504C34.1965 27.3723 34.2264 26.2632 34.0252 25.243C33.9939 25.0842 33.8398 24.9808 33.6811 25.0123C33.5224 25.0436 33.4191 25.1977 33.4504 25.3564C33.6354 26.2946 33.6073 27.3174 33.3689 28.3141L32.5924 31.5607C32.1391 31.6252 31.6788 31.6514 31.2218 31.6392L31.124 31.6362C30.7666 31.625 30.3618 31.612 29.996 31.7995C29.4683 32.0693 29.2539 32.6176 29.0648 33.1014C28.9912 33.2896 28.9217 33.4674 28.8376 33.6274C28.6306 34.0209 28.2376 34.3385 27.8214 34.6747C27.5316 34.9087 27.2359 35.1482 26.9963 35.4238C26.407 34.0043 25.7523 33.2855 25.0445 33.2855C24.5404 33.2855 24.0633 33.6498 23.6175 34.3721C23.5663 34.2914 23.5126 34.2124 23.4601 34.136C23.2816 33.876 23.1129 33.6304 23.0999 33.374C23.0979 33.3342 23.0995 33.2889 23.1012 33.2408C23.1055 33.1153 23.1109 32.9592 23.0525 32.8017C22.8258 32.1833 22.0872 32.2561 21.5985 32.3043L21.525 32.3114C21.0606 32.3558 20.6081 32.2362 20.2841 31.9837C20.1738 31.8975 20.0721 31.7929 19.9644 31.6821C19.8668 31.5818 19.7659 31.478 19.6522 31.3817C19.3398 31.1171 18.8996 30.9218 18.4444 30.8459C18.0442 30.7791 17.6642 30.8105 17.3463 30.9325L16.7201 28.3142C16.4619 27.2346 16.4502 26.136 16.6861 25.1373C16.9103 24.1882 17.3388 23.3945 17.9252 22.8418C18.471 22.3275 19.3982 21.7981 20.7158 22.1973L22.6933 22.7966C24.2534 23.27 25.8353 23.2699 27.3953 22.7967L29.3728 22.1973C30.5275 21.8478 31.6071 22.1694 32.4131 23.1031C32.5188 23.2256 32.7038 23.2391 32.8263 23.1335C32.9488 23.0277 32.9624 22.8427 32.8567 22.7202C31.9042 21.6168 30.5726 21.2218 29.2029 21.6366L27.2253 22.236C25.7781 22.675 24.3106 22.675 22.8634 22.2359L20.8858 21.6366C19.6483 21.2618 18.4541 21.5384 17.5235 22.4155C16.1272 23.7312 15.5882 26.1001 16.1503 28.4505L16.8653 31.4405C16.8655 31.4414 16.8656 31.4422 16.8657 31.4431L17.6051 34.5348C17.2371 34.1453 16.797 33.8204 16.2983 33.5817C16.2075 33.5384 16.1008 33.5446 16.0157 33.5981C15.9305 33.6518 15.8789 33.7454 15.8789 33.846V43.8255C15.8789 43.9873 16.0101 44.1185 16.1719 44.1185H43.8281C43.99 44.1185 44.1211 43.9873 44.1211 43.8255V40.4836C44.1213 40.3218 43.9901 40.1906 43.8283 40.1906ZM27.2439 36.072C27.4478 35.7298 27.8091 35.4379 28.1897 35.1305C28.6338 34.7717 29.093 34.4008 29.3562 33.9002C29.4556 33.7112 29.5344 33.5097 29.6106 33.3148C29.7765 32.8906 29.9331 32.4899 30.263 32.3212C30.4944 32.2026 30.7914 32.212 31.1055 32.222L31.206 32.2251C31.6194 32.2362 32.035 32.2178 32.4467 32.1703L30.3294 41.0237C30.2259 41.4565 29.9415 41.8228 29.5796 42.0366C29.5457 42.0566 29.5111 42.075 29.4759 42.0922C29.4732 42.0935 29.4706 42.0952 29.4679 42.0965C29.4385 42.1107 29.4084 42.1231 29.3782 42.1354C29.369 42.1391 29.36 42.1435 29.3508 42.1469C29.3262 42.1563 29.3011 42.164 29.2761 42.172C29.2611 42.1768 29.2463 42.1824 29.2311 42.1866C29.2103 42.1926 29.1891 42.1968 29.1681 42.2018C29.1488 42.2062 29.1295 42.2115 29.1101 42.2152C29.0906 42.2189 29.0708 42.2209 29.0511 42.2237C29.0303 42.2267 29.0094 42.2305 28.9884 42.2324C28.9618 42.2349 28.935 42.2354 28.9082 42.2363C28.8943 42.2367 28.8805 42.2382 28.8666 42.2382H28.8605C28.6282 42.237 28.4319 42.0491 28.4136 41.8104C28.4124 41.7944 28.4108 41.7779 28.4095 41.762C28.4033 41.6833 28.3965 41.604 28.3893 41.5242C28.3871 41.5003 28.385 41.4765 28.3828 41.4524C28.3744 41.3636 28.3652 41.2741 28.3555 41.1842C28.3525 41.1562 28.3496 41.1284 28.3465 41.1004C28.3369 41.0139 28.3266 40.9271 28.3159 40.8399C28.3118 40.8067 28.3078 40.7735 28.3035 40.7401C28.293 40.6578 28.282 40.575 28.2706 40.4921C28.2651 40.4521 28.2595 40.4122 28.2538 40.3721C28.2429 40.2954 28.2316 40.2187 28.2199 40.1417C28.2125 40.0929 28.2049 40.0441 28.1972 39.9952C28.1895 39.9462 28.1815 39.8972 28.1735 39.8482C28.1667 39.8069 28.1604 39.7657 28.1535 39.7243C28.147 39.686 28.14 39.6478 28.1334 39.6096C28.1296 39.5878 28.1257 39.566 28.1219 39.5441C28.1026 39.4343 28.0827 39.3246 28.062 39.215C28.0616 39.2126 28.0611 39.2103 28.0607 39.2079C27.8859 38.2822 27.6635 37.3738 27.4118 36.5765C27.3963 36.5274 27.3807 36.4787 27.3651 36.4305C27.3578 36.4081 27.3507 36.3849 27.3434 36.3628C27.3304 36.3233 27.3172 36.2849 27.304 36.2461C27.3008 36.2364 27.2975 36.2265 27.2942 36.2168C27.2813 36.1791 27.2684 36.142 27.2555 36.105C27.2515 36.094 27.2477 36.0828 27.2439 36.072ZM19.2737 31.8288C19.3658 31.9067 19.4525 31.996 19.5444 32.0905C19.6611 32.2105 19.7817 32.3346 19.9239 32.4457C20.365 32.7894 20.9691 32.9531 21.5808 32.8947L21.6561 32.8874C21.9836 32.8551 22.432 32.8109 22.5029 33.0042C22.5214 33.0543 22.5187 33.1351 22.5157 33.2206C22.5137 33.2787 22.5116 33.3389 22.5149 33.4037C22.5363 33.8255 22.7705 34.1666 22.9772 34.4677C23.0342 34.5507 23.088 34.6292 23.1372 34.7081C23.1919 34.7959 23.2426 34.888 23.2885 34.9831C23.1919 35.1857 23.0969 35.4058 23.0037 35.6444C22.9934 35.6708 22.9831 35.6981 22.9729 35.725C22.9707 35.7307 22.9685 35.7362 22.9664 35.7419C22.9483 35.7894 22.9303 35.8374 22.9124 35.8862C22.9021 35.9139 22.8919 35.9417 22.8818 35.9697C22.8741 35.991 22.8664 36.0126 22.8588 36.0343C22.6448 36.6343 22.4565 37.2898 22.2957 37.959C22.293 37.9705 22.2903 37.9821 22.2875 37.9936C22.2664 38.0819 22.2458 38.1705 22.2257 38.2592C22.2195 38.2867 22.2131 38.314 22.2069 38.3415C22.1886 38.4238 22.1706 38.5061 22.1531 38.5885C22.1379 38.6594 22.1232 38.7307 22.1086 38.802C22.1079 38.8054 22.1072 38.8088 22.1065 38.8122C21.9247 39.7006 21.7846 40.6166 21.7042 41.4744C21.7015 41.5037 21.6994 41.5322 21.6969 41.5613C21.6915 41.6213 21.6864 41.6805 21.6817 41.739C21.6798 41.7628 21.6774 41.787 21.6756 41.8108C21.6699 41.8853 21.6468 41.955 21.6107 42.0154C21.5312 42.1485 21.3886 42.2375 21.229 42.2383H21.2227C20.7001 42.2383 20.2027 41.9182 19.931 41.4478C19.8553 41.3168 19.7961 41.1746 19.76 41.0237L18.6862 36.5344L18.6861 36.5342L17.4845 31.5097C18.007 31.2601 18.8378 31.4595 19.2737 31.8288ZM43.5353 43.5325H16.465V34.3437C17.2911 34.8733 17.8818 35.6975 18.1147 36.6646L19.1897 41.1597C19.2284 41.3209 19.2847 41.4746 19.3557 41.619C19.7091 42.3384 20.4336 42.8242 21.2223 42.8242L21.2317 42.8241C21.2447 42.8241 21.2573 42.8226 21.2702 42.8221C21.2906 42.8212 21.311 42.8209 21.331 42.8187C21.3334 42.8185 21.3357 42.8179 21.3381 42.8176C21.8254 42.7636 22.2212 42.3599 22.2599 41.8556C22.2626 41.8211 22.2657 41.7868 22.2685 41.7524C22.274 41.685 22.2795 41.6175 22.2858 41.5493C22.2874 41.5312 22.2892 41.5133 22.2909 41.4953C22.3425 40.9531 22.4179 40.3877 22.5132 39.8216C22.6288 39.1348 22.7733 38.4477 22.9385 37.8004C22.944 37.779 22.9495 37.7575 22.9552 37.7363C22.9638 37.7028 22.9727 37.6698 22.9815 37.6365C23.2434 36.6573 23.5379 35.8321 23.81 35.2547C23.8152 35.2437 23.8204 35.2329 23.8256 35.222C23.8373 35.1974 23.849 35.1735 23.8607 35.1499C24.2639 34.3317 24.6806 33.8715 25.0446 33.8715C25.5452 33.8715 26.1453 34.7412 26.6732 36.2165C26.6784 36.2309 26.6835 36.2453 26.6887 36.2599C26.6987 36.2882 26.7087 36.3171 26.7187 36.3458C26.7285 36.3743 26.7384 36.4027 26.7481 36.4316C26.753 36.4459 26.7579 36.4604 26.7628 36.4749C26.7747 36.5105 26.7866 36.5465 26.7984 36.5828C26.8205 36.6499 26.8422 36.7181 26.8638 36.7869C26.8769 36.8289 26.89 36.8711 26.9029 36.9138C26.9131 36.9473 26.9232 36.9813 26.9333 37.0152C26.9572 37.0953 26.9809 37.1762 27.0042 37.2583C27.0067 37.2673 27.0093 37.2764 27.0118 37.2854C27.1852 37.9002 27.3408 38.565 27.4707 39.241C27.4753 39.2647 27.4797 39.2885 27.4842 39.3122C27.5014 39.4031 27.5182 39.4943 27.5344 39.5855C27.5417 39.6264 27.5489 39.6673 27.556 39.7084C27.5681 39.7786 27.58 39.8487 27.5915 39.9189C27.6005 39.9738 27.6094 40.0287 27.618 40.0836C27.6253 40.1296 27.6325 40.1756 27.6395 40.2215C27.651 40.2973 27.6621 40.3729 27.6728 40.4483C27.6779 40.4836 27.6829 40.5188 27.6878 40.554C27.6994 40.6382 27.7105 40.7221 27.7211 40.8059C27.7252 40.8376 27.7291 40.8693 27.733 40.901C27.7436 40.9868 27.7537 41.0722 27.7631 41.1572C27.7663 41.1862 27.7694 41.215 27.7725 41.2439C27.7818 41.3304 27.7907 41.4164 27.7987 41.5018C27.8013 41.5283 27.8036 41.5546 27.806 41.581C27.8128 41.6555 27.8191 41.7296 27.8249 41.8032C27.8262 41.8205 27.8278 41.8381 27.8291 41.8554C27.8395 41.9898 27.8753 42.117 27.9312 42.2325C27.9315 42.2331 27.9318 42.2337 27.9321 42.2344C27.9339 42.2381 27.9361 42.2415 27.938 42.2452C28.1094 42.5872 28.4592 42.8223 28.8525 42.8242L28.8588 42.8243H28.8589H28.8596L28.8667 42.8243C28.9554 42.8243 29.0435 42.8182 29.1302 42.8062C29.9401 42.6947 30.6409 42.0779 30.876 41.2484C30.8844 41.219 30.8921 41.1894 30.8992 41.1597L31.7617 37.5534C31.8414 37.2244 31.9263 37.1788 31.9263 37.1787C31.9274 37.1787 32.0278 37.1632 32.3297 37.4394C32.5722 37.6613 32.8611 37.9945 33.1671 38.3472C34.106 39.4296 35.2744 40.7766 36.6062 40.7766H43.5353V43.5325Z" fill="#323761"/>
</g>
<defs>
<clipPath id="clip0_749_1444">
<rect width="30" height="30" fill="white" transform="translate(15 15)"/>
</clipPath>
</defs>
</svg>
