<svg width="61" height="60" viewBox="0 0 61 60" fill="none" xmlns="http://www.w3.org/2000/svg">
<rect x="0.444336" width="60" height="60" rx="10" fill="#E2EBF0"/>
<path d="M38.2629 32.7586V27.0023H38.5562C38.6848 27.0023 38.7945 26.8994 38.8162 26.7586L39.1015 24.8997C39.1015 24.8995 39.1015 24.8993 39.1016 24.8991L39.103 24.8898C39.1052 24.8754 39.106 24.8609 39.1063 24.8465C39.1064 24.8445 39.1069 24.8425 39.1069 24.8404V16.1738C39.1069 16.012 38.9888 15.8809 38.8432 15.8809H37.1557C37.0101 15.8809 36.892 16.012 36.892 16.1738V24.8404C36.892 24.8415 36.8923 24.8424 36.8923 24.8435C36.8925 24.8589 36.8934 24.8744 36.8957 24.8898L37.1825 26.7586C37.2041 26.8994 37.3139 27.0023 37.4424 27.0023H37.7356V33.0354C37.7356 33.1972 37.8537 33.3284 37.9993 33.3284C39.0462 33.3284 39.8977 34.2746 39.8977 35.4378C39.8977 36.6009 39.0462 37.5471 37.9993 37.5471C37.5566 37.5471 37.1256 37.3742 36.7859 37.06C36.6739 36.9565 36.5077 36.9735 36.4145 37.0979C36.3214 37.2223 36.3366 37.407 36.4486 37.5105C36.8828 37.912 37.4336 38.1331 37.9993 38.1331C39.3369 38.1331 40.4251 36.9239 40.4251 35.4378C40.425 34.0505 39.477 32.9052 38.2629 32.7586ZM37.4193 16.4668H38.5795V24.5475H37.4193V16.4668ZM37.468 25.1335H38.5306L38.3337 26.4164H37.6649L37.468 25.1335Z" fill="#323761"/>
<path d="M20.9775 34.2158C21.2397 34.2158 21.4521 33.9797 21.4521 33.6885C21.4521 33.3972 21.2397 33.1611 20.9775 33.1611C20.7154 33.1611 20.5029 33.3972 20.5029 33.6885C20.5029 33.9797 20.7154 34.2158 20.9775 34.2158Z" fill="#323761"/>
<path d="M22.9023 35.2705C23.1645 35.2705 23.377 35.0344 23.377 34.7432C23.377 34.4519 23.1645 34.2158 22.9023 34.2158C22.6402 34.2158 22.4277 34.4519 22.4277 34.7432C22.4277 35.0344 22.6402 35.2705 22.9023 35.2705Z" fill="#323761"/>
<path d="M21.5801 36.9121C21.8422 36.9121 22.0547 36.676 22.0547 36.3848C22.0547 36.0935 21.8422 35.8574 21.5801 35.8574C21.318 35.8574 21.1055 36.0935 21.1055 36.3848C21.1055 36.676 21.318 36.9121 21.5801 36.9121Z" fill="#323761"/>
<path d="M31.3623 34.2158C31.6244 34.2158 31.8369 33.9797 31.8369 33.6885C31.8369 33.3972 31.6244 33.1611 31.3623 33.1611C31.1002 33.1611 30.8877 33.3972 30.8877 33.6885C30.8877 33.9797 31.1002 34.2158 31.3623 34.2158Z" fill="#323761"/>
<path d="M29.5996 36.5303C29.8617 36.5303 30.0742 36.2942 30.0742 36.0029C30.0742 35.7117 29.8617 35.4756 29.5996 35.4756C29.3375 35.4756 29.125 35.7117 29.125 36.0029C29.125 36.2942 29.3375 36.5303 29.5996 36.5303Z" fill="#323761"/>
<path d="M30.0742 39.6885C30.3363 39.6885 30.5488 39.4524 30.5488 39.1611C30.5488 38.8699 30.3363 38.6338 30.0742 38.6338C29.8121 38.6338 29.5996 38.8699 29.5996 39.1611C29.5996 39.4524 29.8121 39.6885 30.0742 39.6885Z" fill="#323761"/>
<path d="M42.9455 40.1906H36.4457C35.4878 40.1906 34.5236 38.9556 33.7489 37.9632C33.1611 37.2103 32.7161 36.64 32.292 36.595L33.3049 31.8884C33.305 31.888 33.305 31.8877 33.3052 31.8874L34.0449 28.4504C34.2769 27.3723 34.3038 26.2632 34.1227 25.243C34.0945 25.0842 33.9558 24.9808 33.813 25.0123C33.6701 25.0436 33.5772 25.1977 33.6053 25.3564C33.7719 26.2946 33.7465 27.3174 33.532 28.3141L32.8332 31.5607C32.4252 31.6252 32.0109 31.6514 31.5996 31.6392L31.5116 31.6362C31.1899 31.625 30.8256 31.612 30.4964 31.7995C30.0215 32.0693 29.8285 32.6176 29.6583 33.1014C29.5921 33.2896 29.5295 33.4674 29.4538 33.6274C29.2675 34.0209 28.9138 34.3385 28.5392 34.6747C28.2785 34.9087 28.0123 35.1482 27.7966 35.4238C27.2663 34.0043 26.6771 33.2855 26.04 33.2855C25.5864 33.2855 25.157 33.6498 24.7558 34.3721C24.7097 34.2914 24.6614 34.2124 24.6141 34.136C24.4534 33.876 24.3017 33.6304 24.2899 33.374C24.2882 33.3342 24.2896 33.2889 24.2911 33.2408C24.295 33.1153 24.2998 32.9592 24.2473 32.8017C24.0433 32.1833 23.3785 32.2561 22.9386 32.3043L22.8725 32.3114C22.4546 32.3558 22.0473 32.2362 21.7557 31.9837C21.6564 31.8975 21.5648 31.7929 21.4679 31.6821C21.3801 31.5818 21.2893 31.478 21.187 31.3817C20.9058 31.1171 20.5097 30.9218 20.0999 30.8459C19.7398 30.7791 19.3978 30.8105 19.1116 30.9325L18.5481 28.3142C18.3157 27.2346 18.3052 26.136 18.5175 25.1373C18.7193 24.1882 19.1049 23.3945 19.6327 22.8418C20.1239 22.3275 20.9583 21.7981 22.1442 22.1973L23.924 22.7966C25.328 23.27 26.7518 23.2699 28.1557 22.7967L29.9355 22.1973C30.9748 21.8478 31.9464 22.1694 32.6718 23.1031C32.7669 23.2256 32.9334 23.2391 33.0437 23.1335C33.154 23.0277 33.1661 22.8427 33.0711 22.7202C32.2138 21.6168 31.0153 21.2218 29.7827 21.6366L28.0028 22.236C26.7003 22.675 25.3795 22.675 24.0771 22.2359L22.2972 21.6366C21.1835 21.2618 20.1087 21.5384 19.2711 22.4155C18.0145 23.7312 17.5293 26.1001 18.0352 28.4505L18.6788 31.4405C18.679 31.4414 18.679 31.4422 18.6792 31.4431L19.3446 34.5348C19.0134 34.1453 18.6173 33.8204 18.1684 33.5817C18.0868 33.5384 17.9907 33.5446 17.9141 33.5981C17.8375 33.6518 17.791 33.7454 17.791 33.846V43.8255C17.791 43.9873 17.9091 44.1185 18.0547 44.1185H42.9453C43.091 44.1185 43.209 43.9873 43.209 43.8255V40.4836C43.2091 40.3218 43.0911 40.1906 42.9455 40.1906ZM28.0195 36.072C28.203 35.7298 28.5282 35.4379 28.8707 35.1305C29.2704 34.7717 29.6837 34.4008 29.9206 33.9002C30.01 33.7112 30.081 33.5097 30.1495 33.3148C30.2988 32.8906 30.4398 32.4899 30.7367 32.3212C30.945 32.2026 31.2122 32.212 31.4949 32.222L31.5854 32.2251C31.9574 32.2362 32.3315 32.2178 32.702 32.1703L30.7965 41.0237C30.7033 41.4565 30.4473 41.8228 30.1216 42.0366C30.0912 42.0566 30.06 42.075 30.0283 42.0922C30.0259 42.0935 30.0235 42.0952 30.0211 42.0965C29.9946 42.1107 29.9675 42.1231 29.9404 42.1354C29.9321 42.1391 29.924 42.1435 29.9157 42.1469C29.8936 42.1563 29.871 42.164 29.8485 42.172C29.835 42.1768 29.8216 42.1824 29.808 42.1866C29.7892 42.1926 29.7702 42.1968 29.7513 42.2018C29.7339 42.2062 29.7166 42.2115 29.6991 42.2152C29.6816 42.2189 29.6637 42.2209 29.646 42.2237C29.6272 42.2267 29.6085 42.2305 29.5896 42.2324C29.5657 42.2349 29.5415 42.2354 29.5174 42.2363C29.5049 42.2367 29.4924 42.2382 29.48 42.2382H29.4745C29.2654 42.237 29.0887 42.0491 29.0723 41.8104C29.0712 41.7944 29.0697 41.7779 29.0686 41.762C29.063 41.6833 29.0569 41.604 29.0503 41.5242C29.0484 41.5003 29.0465 41.4765 29.0445 41.4524C29.0369 41.3636 29.0287 41.2741 29.02 41.1842C29.0173 41.1562 29.0146 41.1284 29.0118 41.1004C29.0032 41.0139 28.9939 40.9271 28.9843 40.8399C28.9806 40.8067 28.977 40.7735 28.9732 40.7401C28.9637 40.6578 28.9538 40.575 28.9435 40.4921C28.9386 40.4521 28.9336 40.4122 28.9285 40.3721C28.9186 40.2954 28.9085 40.2187 28.8979 40.1417C28.8913 40.0929 28.8844 40.0441 28.8775 39.9952C28.8705 39.9462 28.8633 39.8972 28.8561 39.8482C28.85 39.8069 28.8444 39.7657 28.8381 39.7243C28.8323 39.686 28.826 39.6478 28.82 39.6096C28.8167 39.5878 28.8131 39.566 28.8097 39.5441C28.7924 39.4343 28.7744 39.3246 28.7558 39.215C28.7554 39.2126 28.755 39.2103 28.7546 39.2079C28.5973 38.2822 28.3972 37.3738 28.1706 36.5765C28.1567 36.5274 28.1427 36.4787 28.1286 36.4305C28.122 36.4081 28.1157 36.3849 28.1091 36.3628C28.0973 36.3233 28.0855 36.2849 28.0736 36.2461C28.0707 36.2364 28.0677 36.2265 28.0648 36.2168C28.0532 36.1791 28.0416 36.142 28.0299 36.105C28.0263 36.094 28.023 36.0828 28.0195 36.072ZM20.8463 31.8288C20.9292 31.9067 21.0073 31.996 21.0899 32.0905C21.195 32.2105 21.3035 32.3346 21.4315 32.4457C21.8285 32.7894 22.3722 32.9531 22.9227 32.8947L22.9905 32.8874C23.2852 32.8551 23.6888 32.8109 23.7526 33.0042C23.7693 33.0543 23.7668 33.1351 23.7641 33.2206C23.7623 33.2787 23.7604 33.3389 23.7634 33.4037C23.7827 33.8255 23.9935 34.1666 24.1795 34.4677C24.2308 34.5507 24.2792 34.6292 24.3235 34.7081C24.3727 34.7959 24.4183 34.888 24.4596 34.9831C24.3727 35.1857 24.2872 35.4058 24.2033 35.6444C24.194 35.6708 24.1848 35.6981 24.1756 35.725C24.1736 35.7307 24.1717 35.7362 24.1698 35.7419C24.1535 35.7894 24.1373 35.8374 24.1211 35.8862C24.1119 35.9139 24.1027 35.9417 24.0936 35.9697C24.0867 35.991 24.0798 36.0126 24.0729 36.0343C23.8803 36.6343 23.7108 37.2898 23.5662 37.959C23.5637 37.9705 23.5613 37.9821 23.5588 37.9936C23.5398 38.0819 23.5212 38.1705 23.5031 38.2592C23.4975 38.2867 23.4918 38.314 23.4862 38.3415C23.4697 38.4238 23.4536 38.5061 23.4378 38.5885C23.4242 38.6594 23.4109 38.7307 23.3977 38.802C23.3971 38.8054 23.3965 38.8088 23.3959 38.8122C23.2323 39.7006 23.1062 40.6166 23.0338 41.4744C23.0313 41.5037 23.0295 41.5322 23.0272 41.5613C23.0223 41.6213 23.0178 41.6805 23.0136 41.739C23.0118 41.7628 23.0097 41.787 23.0081 41.8108C23.0029 41.8853 22.9821 41.955 22.9497 42.0154C22.8781 42.1485 22.7497 42.2375 22.6061 42.2383H22.6004C22.1301 42.2383 21.6824 41.9182 21.4379 41.4478C21.3697 41.3168 21.3165 41.1746 21.284 41.0237L20.3176 36.5344L20.3175 36.5342L19.236 31.5097C19.7063 31.2601 20.454 31.4595 20.8463 31.8288ZM42.6818 43.5325H18.3185V34.3437C19.062 34.8733 19.5936 35.6975 19.8033 36.6646L20.7708 41.1597C20.8055 41.3209 20.8563 41.4746 20.9201 41.619C21.2382 42.3384 21.8902 42.8242 22.6001 42.8242L22.6086 42.8241C22.6202 42.8241 22.6316 42.8226 22.6432 42.8221C22.6615 42.8212 22.6799 42.8209 22.6979 42.8187C22.7001 42.8185 22.7022 42.8179 22.7043 42.8176C23.1429 42.7636 23.499 42.3599 23.5339 41.8556C23.5363 41.8211 23.5391 41.7868 23.5416 41.7524C23.5466 41.685 23.5516 41.6175 23.5572 41.5493C23.5587 41.5312 23.5603 41.5133 23.5618 41.4953C23.6083 40.9531 23.6761 40.3877 23.7619 39.8216C23.8659 39.1348 23.996 38.4477 24.1446 37.8004C24.1496 37.779 24.1546 37.7575 24.1596 37.7363C24.1674 37.7028 24.1755 37.6698 24.1834 37.6365C24.4191 36.6573 24.6841 35.8321 24.929 35.2547C24.9337 35.2437 24.9384 35.2329 24.9431 35.222C24.9536 35.1974 24.9641 35.1735 24.9746 35.1499C25.3375 34.3317 25.7125 33.8715 26.0401 33.8715C26.4907 33.8715 27.0308 34.7412 27.5059 36.2165C27.5105 36.2309 27.5152 36.2453 27.5198 36.2599C27.5288 36.2882 27.5379 36.3171 27.5468 36.3458C27.5557 36.3743 27.5645 36.4027 27.5733 36.4316C27.5777 36.4459 27.5821 36.4604 27.5865 36.4749C27.5972 36.5105 27.6079 36.5465 27.6186 36.5828C27.6384 36.6499 27.658 36.7181 27.6774 36.7869C27.6892 36.8289 27.701 36.8711 27.7126 36.9138C27.7218 36.9473 27.7309 36.9813 27.74 37.0152C27.7615 37.0953 27.7828 37.1762 27.8037 37.2583C27.806 37.2673 27.8083 37.2764 27.8106 37.2854C27.9666 37.9002 28.1068 38.565 28.2237 39.241C28.2278 39.2647 28.2317 39.2885 28.2358 39.3122C28.2513 39.4031 28.2664 39.4943 28.281 39.5855C28.2875 39.6264 28.294 39.6673 28.3004 39.7084C28.3113 39.7786 28.322 39.8487 28.3324 39.9189C28.3405 39.9738 28.3485 40.0287 28.3562 40.0836C28.3628 40.1296 28.3693 40.1756 28.3755 40.2215C28.3859 40.2973 28.3959 40.3729 28.4056 40.4483C28.4101 40.4836 28.4146 40.5188 28.419 40.554C28.4294 40.6382 28.4395 40.7221 28.449 40.8059C28.4526 40.8376 28.4562 40.8693 28.4597 40.901C28.4692 40.9868 28.4783 41.0722 28.4868 41.1572C28.4897 41.1862 28.4925 41.215 28.4953 41.2439C28.5036 41.3304 28.5116 41.4164 28.5189 41.5018C28.5211 41.5283 28.5232 41.5546 28.5254 41.581C28.5315 41.6555 28.5372 41.7296 28.5424 41.8032C28.5436 41.8205 28.545 41.8381 28.5462 41.8554C28.5555 41.9898 28.5877 42.117 28.6381 42.2325C28.6384 42.2331 28.6386 42.2337 28.6389 42.2344C28.6405 42.2381 28.6425 42.2415 28.6442 42.2452C28.7984 42.5872 29.1132 42.8223 29.4673 42.8242L29.4729 42.8243H29.473H29.4736L29.48 42.8243C29.5599 42.8243 29.6391 42.8182 29.7172 42.8062C30.4461 42.6947 31.0768 42.0779 31.2884 41.2484C31.296 41.219 31.3029 41.1894 31.3093 41.1597L32.0855 37.5534C32.1573 37.2244 32.2336 37.1788 32.2337 37.1787C32.2347 37.1787 32.325 37.1632 32.5967 37.4394C32.815 37.6613 33.075 37.9945 33.3504 38.3472C34.1954 39.4296 35.247 40.7766 36.4456 40.7766H42.6818V43.5325Z" fill="#323761"/>
</svg>
