<svg width="50" height="50" viewBox="0 0 50 50" fill="none" xmlns="http://www.w3.org/2000/svg">
<circle cx="25" cy="25" r="25" fill="#F6FAFC"/>
<path d="M29.9113 26.9703C29.9113 25.9523 29.6094 24.9572 29.0439 24.1108C28.4783 23.2643 27.6744 22.6046 26.7339 22.215C25.7934 21.8255 24.7585 21.7235 23.7601 21.9221C22.7617 22.1207 21.8446 22.611 21.1247 23.3308C20.4049 24.0506 19.9147 24.9677 19.7161 25.9662C19.5175 26.9646 19.6194 27.9995 20.009 28.94C20.3986 29.8805 21.0583 30.6844 21.9047 31.2499C22.7511 31.8155 23.7463 32.1174 24.7642 32.1174C26.1293 32.1174 27.4385 31.5751 28.4038 30.6098C29.369 29.6446 29.9113 28.3354 29.9113 26.9703ZM20.3525 26.9703C20.3525 26.0977 20.6112 25.2448 21.096 24.5193C21.5808 23.7937 22.2698 23.2283 23.0759 22.8944C23.8821 22.5604 24.7691 22.4731 25.6249 22.6433C26.4807 22.8135 27.2668 23.2337 27.8838 23.8507C28.5008 24.4677 28.921 25.2538 29.0912 26.1096C29.2615 26.9654 29.1741 27.8525 28.8402 28.6586C28.5063 29.4648 27.9408 30.1538 27.2153 30.6386C26.4898 31.1233 25.6368 31.3821 24.7642 31.3821C23.5942 31.3821 22.472 30.9173 21.6447 30.0899C20.8173 29.2625 20.3525 28.1404 20.3525 26.9703Z" fill="#0A98E8"/>
<path d="M27.176 25.0731C26.9383 24.8612 26.6266 24.7517 26.3086 24.7682C25.9906 24.7848 25.692 24.926 25.4775 25.1613L24.0694 26.7238L23.7017 26.3562C23.589 26.2454 23.4555 26.1578 23.309 26.0986C23.1624 26.0394 23.0056 26.0096 22.8476 26.011C22.6895 26.0123 22.5333 26.0448 22.3878 26.1066C22.2423 26.1683 22.1103 26.2581 21.9995 26.3709C21.8887 26.4836 21.8012 26.617 21.742 26.7636C21.6828 26.9102 21.653 27.0669 21.6543 27.225C21.6571 27.5442 21.7866 27.8493 22.0142 28.0731L23.2642 29.3267C23.3806 29.441 23.5188 29.5306 23.6705 29.5903C23.8223 29.65 23.9845 29.6784 24.1476 29.6739C24.3106 29.6695 24.471 29.6322 24.6193 29.5643C24.7676 29.4965 24.9006 29.3994 25.0106 29.2789L27.2642 26.7753C27.4772 26.5373 27.5874 26.2249 27.5709 25.906C27.5544 25.5871 27.4124 25.2877 27.176 25.0731ZM26.7164 26.2789L24.4628 28.7826C24.4192 28.8285 24.3667 28.8649 24.3085 28.8899C24.2504 28.9148 24.1878 28.9277 24.1245 28.9277C24.0613 28.9277 23.9987 28.9148 23.9405 28.8899C23.8824 28.8649 23.8299 28.8285 23.7863 28.7826L22.5326 27.5326C22.4464 27.4441 22.3981 27.3253 22.3981 27.2017C22.3981 27.0781 22.4464 26.9594 22.5326 26.8709C22.576 26.8273 22.6276 26.7927 22.6843 26.7691C22.7411 26.7455 22.802 26.7334 22.8635 26.7334C22.925 26.7334 22.9859 26.7455 23.0427 26.7691C23.0994 26.7927 23.151 26.8273 23.1944 26.8709L23.8231 27.4995C23.8574 27.5357 23.8987 27.5645 23.9446 27.5842C23.9904 27.6038 24.0397 27.614 24.0896 27.614C24.1395 27.614 24.1888 27.6038 24.2346 27.5842C24.2805 27.5645 24.3218 27.5357 24.3561 27.4995L26.0216 25.6613C26.1045 25.5692 26.2206 25.5137 26.3443 25.5072C26.4681 25.5006 26.5894 25.5435 26.6815 25.6264C26.7737 25.7093 26.8291 25.8253 26.8357 25.9491C26.8422 26.0729 26.7993 26.1942 26.7164 26.2863V26.2789Z" fill="#0A98E8"/>
<path d="M32.8526 15.2059H31.7497V15.0221C31.7497 14.6808 31.6141 14.3536 31.3728 14.1122C31.1315 13.8709 30.8042 13.7354 30.4629 13.7354C30.1216 13.7354 29.7943 13.8709 29.553 14.1122C29.3117 14.3536 29.1761 14.6808 29.1761 15.0221V15.2059H26.0511V15.0221C26.0511 14.6808 25.9156 14.3536 25.6742 14.1122C25.4329 13.8709 25.1056 13.7354 24.7644 13.7354C24.4231 13.7354 24.0958 13.8709 23.8545 14.1122C23.6132 14.3536 23.4776 14.6808 23.4776 15.0221V15.2059H20.3526V15.0221C20.3526 14.6808 20.217 14.3536 19.9757 14.1122C19.7344 13.8709 19.4071 13.7354 19.0658 13.7354C18.7246 13.7354 18.3973 13.8709 18.156 14.1122C17.9146 14.3536 17.7791 14.6808 17.7791 15.0221V15.2059H16.6761C16.1886 15.2059 15.721 15.3996 15.3763 15.7443C15.0316 16.0891 14.8379 16.5566 14.8379 17.0442V28.4412C14.8379 28.5387 14.8766 28.6323 14.9456 28.7012C15.0145 28.7701 15.108 28.8089 15.2055 28.8089C15.303 28.8089 15.3966 28.7701 15.4655 28.7012C15.5345 28.6323 15.5732 28.5387 15.5732 28.4412V20.353H33.9555V29.1765C33.9555 29.274 33.9168 29.3675 33.8479 29.4365C33.7789 29.5054 33.6854 29.5442 33.5879 29.5442H31.7497C31.2621 29.5442 30.7946 29.7378 30.4498 30.0826C30.1051 30.4273 29.9114 30.8949 29.9114 31.3824V33.2206C29.9114 33.3182 29.8727 33.4117 29.8037 33.4806C29.7348 33.5496 29.6413 33.5883 29.5438 33.5883L16.6761 33.5662C16.3836 33.5662 16.1031 33.45 15.8962 33.2432C15.6894 33.0363 15.5732 32.7558 15.5732 32.4633V31.3824C15.5732 31.2849 15.5345 31.1914 15.4655 31.1224C15.3966 31.0535 15.303 31.0148 15.2055 31.0148C15.108 31.0148 15.0145 31.0535 14.9456 31.1224C14.8766 31.1914 14.8379 31.2849 14.8379 31.3824V33.9559C14.8379 34.4435 15.0316 34.911 15.3763 35.2558C15.721 35.6005 16.1886 35.7942 16.6761 35.7942H32.8526C33.3401 35.7942 33.8077 35.6005 34.1524 35.2558C34.4972 34.911 34.6908 34.4435 34.6908 33.9559V17.0442C34.6908 16.5566 34.4972 16.0891 34.1524 15.7443C33.8077 15.3996 33.3401 15.2059 32.8526 15.2059ZM29.9114 15.0221C29.9114 14.8759 29.9695 14.7356 30.0729 14.6322C30.1764 14.5287 30.3166 14.4706 30.4629 14.4706C30.6091 14.4706 30.7494 14.5287 30.8528 14.6322C30.9563 14.7356 31.0144 14.8759 31.0144 15.0221V16.4927C31.0144 16.639 30.9563 16.7792 30.8528 16.8827C30.7494 16.9861 30.6091 17.0442 30.4629 17.0442C30.3166 17.0442 30.1764 16.9861 30.0729 16.8827C29.9695 16.7792 29.9114 16.639 29.9114 16.4927V15.0221ZM24.2129 15.0221C24.2129 14.8759 24.271 14.7356 24.3744 14.6322C24.4778 14.5287 24.6181 14.4706 24.7644 14.4706C24.9106 14.4706 25.0509 14.5287 25.1543 14.6322C25.2577 14.7356 25.3158 14.8759 25.3158 15.0221V16.4927C25.3158 16.639 25.2577 16.7792 25.1543 16.8827C25.0509 16.9861 24.9106 17.0442 24.7644 17.0442C24.6181 17.0442 24.4778 16.9861 24.3744 16.8827C24.271 16.7792 24.2129 16.639 24.2129 16.4927V15.0221ZM18.5144 15.0221C18.5144 14.8759 18.5725 14.7356 18.6759 14.6322C18.7793 14.5287 18.9196 14.4706 19.0658 14.4706C19.2121 14.4706 19.3524 14.5287 19.4558 14.6322C19.5592 14.7356 19.6173 14.8759 19.6173 15.0221V16.4927C19.6173 16.639 19.5592 16.7792 19.4558 16.8827C19.3524 16.9861 19.2121 17.0442 19.0658 17.0442C18.9196 17.0442 18.7793 16.9861 18.6759 16.8827C18.5725 16.7792 18.5144 16.639 18.5144 16.4927V15.0221ZM15.5732 19.6177V17.0442C15.5732 16.7517 15.6894 16.4711 15.8962 16.2643C16.1031 16.0574 16.3836 15.9412 16.6761 15.9412H17.7791V16.4927C17.7791 16.834 17.9146 17.1613 18.156 17.4026C18.3973 17.6439 18.7246 17.7795 19.0658 17.7795C19.4071 17.7795 19.7344 17.6439 19.9757 17.4026C20.217 17.1613 20.3526 16.834 20.3526 16.4927V15.9412H23.4776V16.4927C23.4776 16.834 23.6132 17.1613 23.8545 17.4026C24.0958 17.6439 24.4231 17.7795 24.7644 17.7795C25.1056 17.7795 25.4329 17.6439 25.6742 17.4026C25.9156 17.1613 26.0511 16.834 26.0511 16.4927V15.9412H29.1761V16.4927C29.1761 16.834 29.3117 17.1613 29.553 17.4026C29.7943 17.6439 30.1216 17.7795 30.4629 17.7795C30.8042 17.7795 31.1315 17.6439 31.3728 17.4026C31.6141 17.1613 31.7497 16.834 31.7497 16.4927V15.9412H32.8526C33.1451 15.9412 33.4257 16.0574 33.6325 16.2643C33.8393 16.4711 33.9555 16.7517 33.9555 17.0442V19.6177H15.5732ZM30.6467 31.3824C30.6467 31.0899 30.7629 30.8094 30.9698 30.6025C31.1766 30.3957 31.4571 30.2795 31.7497 30.2795H33.4372L30.6467 33.0699V31.3824ZM32.8526 35.0589H16.6761C16.5285 35.0589 16.3823 35.0294 16.2463 34.9719C16.1102 34.9144 15.9872 34.8302 15.8843 34.7242C15.7814 34.6183 15.7009 34.4928 15.6475 34.3551C15.594 34.2174 15.5688 34.0705 15.5732 33.9229C15.8901 34.1639 16.278 34.2932 16.6761 34.2905L29.6651 34.3236C29.9075 34.324 30.1477 34.2765 30.3717 34.1837C30.5956 34.091 30.7991 33.9548 30.9702 33.7831L33.9555 30.8015V33.9559C33.9555 34.2485 33.8393 34.529 33.6325 34.7358C33.4257 34.9427 33.1451 35.0589 32.8526 35.0589Z" fill="#0A98E8"/>
<path d="M15.2055 30.2792C15.4086 30.2792 15.5732 30.1146 15.5732 29.9116C15.5732 29.7085 15.4086 29.5439 15.2055 29.5439C15.0025 29.5439 14.8379 29.7085 14.8379 29.9116C14.8379 30.1146 15.0025 30.2792 15.2055 30.2792Z" fill="#0A98E8"/>
</svg>
