<svg width="51" height="51" viewBox="0 0 51 51" fill="none" xmlns="http://www.w3.org/2000/svg">
<circle cx="25.5" cy="25.5" r="25.5" fill="#EBF1F4"/>
<path d="M30.25 27.25C30.25 26.2117 29.9421 25.1966 29.3652 24.3333C28.7883 23.4699 27.9684 22.797 27.0091 22.3996C26.0498 22.0023 24.9942 21.8983 23.9758 22.1009C22.9574 22.3035 22.0219 22.8035 21.2877 23.5377C20.5535 24.2719 20.0535 25.2074 19.8509 26.2258C19.6483 27.2442 19.7523 28.2998 20.1496 29.2591C20.547 30.2184 21.2199 31.0383 22.0833 31.6152C22.9466 32.1921 23.9617 32.5 25 32.5C26.3924 32.5 27.7277 31.9469 28.7123 30.9623C29.6969 29.9777 30.25 28.6424 30.25 27.25ZM20.5 27.25C20.5 26.36 20.7639 25.49 21.2584 24.7499C21.7529 24.0099 22.4557 23.4331 23.2779 23.0925C24.1002 22.752 25.005 22.6628 25.8779 22.8365C26.7508 23.0101 27.5526 23.4387 28.182 24.068C28.8113 24.6974 29.2399 25.4992 29.4135 26.3721C29.5872 27.245 29.4981 28.1498 29.1575 28.9721C28.8169 29.7943 28.2401 30.4971 27.5001 30.9916C26.76 31.4861 25.89 31.75 25 31.75C23.8065 31.75 22.6619 31.2759 21.818 30.432C20.9741 29.5881 20.5 28.4435 20.5 27.25Z" fill="#0A98E8"/>
<path d="M27.4603 25.3145C27.2178 25.0985 26.8999 24.9868 26.5755 25.0036C26.2512 25.0205 25.9466 25.1645 25.7278 25.4045L24.2915 26.9983L23.9165 26.6233C23.8015 26.5103 23.6654 26.421 23.5159 26.3606C23.3664 26.3002 23.2065 26.2698 23.0453 26.2712C22.8841 26.2726 22.7247 26.3057 22.5763 26.3687C22.4278 26.4317 22.2933 26.5233 22.1803 26.6383C22.0672 26.7533 21.978 26.8894 21.9176 27.0389C21.8572 27.1884 21.8268 27.3483 21.8282 27.5095C21.831 27.8351 21.963 28.1463 22.1953 28.3745L23.4703 29.6533C23.5889 29.7698 23.7299 29.8613 23.8847 29.9221C24.0395 29.983 24.205 30.012 24.3712 30.0074C24.5375 30.0029 24.7012 29.9649 24.8524 29.8956C25.0037 29.8264 25.1394 29.7274 25.2515 29.6045L27.5503 27.0508C27.7675 26.8081 27.8799 26.4894 27.863 26.1641C27.8462 25.8389 27.7014 25.5335 27.4603 25.3145ZM26.9915 26.5445L24.6928 29.0983C24.6483 29.145 24.5948 29.1823 24.5355 29.2077C24.4761 29.2331 24.4123 29.2462 24.3478 29.2462C24.2832 29.2462 24.2194 29.2331 24.1601 29.2077C24.1008 29.1823 24.0472 29.145 24.0028 29.0983L22.724 27.8233C22.636 27.733 22.5868 27.6119 22.5868 27.4858C22.5868 27.3597 22.636 27.2386 22.724 27.1483C22.7683 27.1038 22.8209 27.0686 22.8788 27.0445C22.9367 27.0205 22.9988 27.0081 23.0615 27.0081C23.1242 27.0081 23.1863 27.0205 23.2442 27.0445C23.3022 27.0686 23.3548 27.1038 23.399 27.1483L24.0403 27.7895C24.0753 27.8264 24.1175 27.8558 24.1642 27.8759C24.2109 27.8959 24.2613 27.9063 24.3121 27.9063C24.363 27.9063 24.4133 27.8959 24.4601 27.8759C24.5068 27.8558 24.549 27.8264 24.584 27.7895L26.2828 25.9145C26.3673 25.8206 26.4857 25.764 26.6119 25.7573C26.7382 25.7506 26.8619 25.7944 26.9559 25.8789C27.0499 25.9635 27.1064 26.0819 27.1131 26.2081C27.1198 26.3343 27.076 26.4581 26.9915 26.552V26.5445Z" fill="#0A98E8"/>
<path d="M33.25 15.25H32.125V15.0625C32.125 14.7144 31.9867 14.3806 31.7406 14.1344C31.4944 13.8883 31.1606 13.75 30.8125 13.75C30.4644 13.75 30.1306 13.8883 29.8844 14.1344C29.6383 14.3806 29.5 14.7144 29.5 15.0625V15.25H26.3125V15.0625C26.3125 14.7144 26.1742 14.3806 25.9281 14.1344C25.6819 13.8883 25.3481 13.75 25 13.75C24.6519 13.75 24.3181 13.8883 24.0719 14.1344C23.8258 14.3806 23.6875 14.7144 23.6875 15.0625V15.25H20.5V15.0625C20.5 14.7144 20.3617 14.3806 20.1156 14.1344C19.8694 13.8883 19.5356 13.75 19.1875 13.75C18.8394 13.75 18.5056 13.8883 18.2594 14.1344C18.0133 14.3806 17.875 14.7144 17.875 15.0625V15.25H16.75C16.2527 15.25 15.7758 15.4475 15.4242 15.7992C15.0725 16.1508 14.875 16.6277 14.875 17.125V28.75C14.875 28.8495 14.9145 28.9448 14.9848 29.0152C15.0552 29.0855 15.1505 29.125 15.25 29.125C15.3495 29.125 15.4448 29.0855 15.5152 29.0152C15.5855 28.9448 15.625 28.8495 15.625 28.75V20.5H34.375V29.5C34.375 29.5995 34.3355 29.6948 34.2652 29.7652C34.1948 29.8355 34.0995 29.875 34 29.875H32.125C31.6277 29.875 31.1508 30.0725 30.7992 30.4242C30.4475 30.7758 30.25 31.2527 30.25 31.75V33.625C30.25 33.7245 30.2105 33.8198 30.1402 33.8902C30.0698 33.9605 29.9745 34 29.875 34L16.75 33.9775C16.4516 33.9775 16.1655 33.859 15.9545 33.648C15.7435 33.437 15.625 33.1509 15.625 32.8525V31.75C15.625 31.6505 15.5855 31.5552 15.5152 31.4848C15.4448 31.4145 15.3495 31.375 15.25 31.375C15.1505 31.375 15.0552 31.4145 14.9848 31.4848C14.9145 31.5552 14.875 31.6505 14.875 31.75V34.375C14.875 34.8723 15.0725 35.3492 15.4242 35.7008C15.7758 36.0525 16.2527 36.25 16.75 36.25H33.25C33.7473 36.25 34.2242 36.0525 34.5758 35.7008C34.9275 35.3492 35.125 34.8723 35.125 34.375V17.125C35.125 16.6277 34.9275 16.1508 34.5758 15.7992C34.2242 15.4475 33.7473 15.25 33.25 15.25ZM30.25 15.0625C30.25 14.9133 30.3093 14.7702 30.4148 14.6648C30.5202 14.5593 30.6633 14.5 30.8125 14.5C30.9617 14.5 31.1048 14.5593 31.2102 14.6648C31.3157 14.7702 31.375 14.9133 31.375 15.0625V16.5625C31.375 16.7117 31.3157 16.8548 31.2102 16.9602C31.1048 17.0657 30.9617 17.125 30.8125 17.125C30.6633 17.125 30.5202 17.0657 30.4148 16.9602C30.3093 16.8548 30.25 16.7117 30.25 16.5625V15.0625ZM24.4375 15.0625C24.4375 14.9133 24.4968 14.7702 24.6023 14.6648C24.7077 14.5593 24.8508 14.5 25 14.5C25.1492 14.5 25.2923 14.5593 25.3977 14.6648C25.5032 14.7702 25.5625 14.9133 25.5625 15.0625V16.5625C25.5625 16.7117 25.5032 16.8548 25.3977 16.9602C25.2923 17.0657 25.1492 17.125 25 17.125C24.8508 17.125 24.7077 17.0657 24.6023 16.9602C24.4968 16.8548 24.4375 16.7117 24.4375 16.5625V15.0625ZM18.625 15.0625C18.625 14.9133 18.6843 14.7702 18.7898 14.6648C18.8952 14.5593 19.0383 14.5 19.1875 14.5C19.3367 14.5 19.4798 14.5593 19.5852 14.6648C19.6907 14.7702 19.75 14.9133 19.75 15.0625V16.5625C19.75 16.7117 19.6907 16.8548 19.5852 16.9602C19.4798 17.0657 19.3367 17.125 19.1875 17.125C19.0383 17.125 18.8952 17.0657 18.7898 16.9602C18.6843 16.8548 18.625 16.7117 18.625 16.5625V15.0625ZM15.625 19.75V17.125C15.625 16.8266 15.7435 16.5405 15.9545 16.3295C16.1655 16.1185 16.4516 16 16.75 16H17.875V16.5625C17.875 16.9106 18.0133 17.2444 18.2594 17.4906C18.5056 17.7367 18.8394 17.875 19.1875 17.875C19.5356 17.875 19.8694 17.7367 20.1156 17.4906C20.3617 17.2444 20.5 16.9106 20.5 16.5625V16H23.6875V16.5625C23.6875 16.9106 23.8258 17.2444 24.0719 17.4906C24.3181 17.7367 24.6519 17.875 25 17.875C25.3481 17.875 25.6819 17.7367 25.9281 17.4906C26.1742 17.2444 26.3125 16.9106 26.3125 16.5625V16H29.5V16.5625C29.5 16.9106 29.6383 17.2444 29.8844 17.4906C30.1306 17.7367 30.4644 17.875 30.8125 17.875C31.1606 17.875 31.4944 17.7367 31.7406 17.4906C31.9867 17.2444 32.125 16.9106 32.125 16.5625V16H33.25C33.5484 16 33.8345 16.1185 34.0455 16.3295C34.2565 16.5405 34.375 16.8266 34.375 17.125V19.75H15.625ZM31 31.75C31 31.4516 31.1185 31.1655 31.3295 30.9545C31.5405 30.7435 31.8266 30.625 32.125 30.625H33.8463L31 33.4713V31.75ZM33.25 35.5H16.75C16.5994 35.5001 16.4503 35.4699 16.3115 35.4113C16.1728 35.3526 16.0472 35.2667 15.9423 35.1587C15.8374 35.0506 15.7553 34.9226 15.7008 34.7821C15.6462 34.6417 15.6205 34.4918 15.625 34.3412C15.9483 34.5871 16.3439 34.719 16.75 34.7162L29.9988 34.75C30.246 34.7504 30.491 34.702 30.7194 34.6074C30.9479 34.5127 31.1554 34.3739 31.33 34.1987L34.375 31.1575V34.375C34.375 34.6734 34.2565 34.9595 34.0455 35.1705C33.8345 35.3815 33.5484 35.5 33.25 35.5Z" fill="#0A98E8"/>
<path d="M15.25 30.625C15.4571 30.625 15.625 30.4571 15.625 30.25C15.625 30.0429 15.4571 29.875 15.25 29.875C15.0429 29.875 14.875 30.0429 14.875 30.25C14.875 30.4571 15.0429 30.625 15.25 30.625Z" fill="#0A98E8"/>
</svg>
