<svg width="20" height="20" viewBox="0 0 20 20" fill="none" xmlns="http://www.w3.org/2000/svg">
<path d="M19.75 18.5833L15.2667 14.1C16.5 12.6 17.2667 10.7167 17.2667 8.63333C17.2833 3.88333 13.4 0 8.63333 0C3.86667 0 0 3.88333 0 8.63333C0 13.3833 3.88333 17.2667 8.63333 17.2667C10.7167 17.2667 12.6 16.5 14.1 15.2667L18.5833 19.75C18.75 19.9167 18.9667 20 19.1667 20C19.3667 20 19.6 19.9167 19.75 19.75C20.0833 19.4333 20.0833 18.9 19.75 18.5833ZM1.66667 8.63333C1.66667 4.8 4.8 1.66667 8.63333 1.66667C12.4667 1.66667 15.6 4.8 15.6 8.63333C15.6 12.4667 12.4667 15.6 8.63333 15.6C4.8 15.6 1.66667 12.4833 1.66667 8.63333Z" fill="white"/>
</svg>
