<svg width="24" height="24" viewBox="0 0 24 24" fill="none" xmlns="http://www.w3.org/2000/svg">
<g clip-path="url(#clip0_3408_3269)">
<path d="M14.7056 23.5666C14.499 23.5666 14.3098 23.4475 14.2212 23.2593L9.7076 13.6664L0.311904 9.34768C0.115441 9.25748 -0.00741469 9.0578 0.000347468 8.84153C0.00837729 8.62526 0.145687 8.43523 0.348306 8.35975L22.6477 0.0336254C22.8428 -0.0389106 23.0631 0.00792989 23.2111 0.154608C23.3596 0.301286 23.4089 0.521035 23.3382 0.71723L15.2091 23.2133C15.1358 23.417 14.9468 23.5559 14.7305 23.5661C14.722 23.5664 14.7137 23.5666 14.7056 23.5666ZM1.92857 8.91247L10.3321 12.7753C10.4469 12.8281 10.5392 12.9196 10.593 13.0336L14.6406 21.636L21.9381 1.44152L1.92857 8.91247Z" fill="white"/>
<path d="M10.1085 13.7987C9.97145 13.7987 9.83468 13.7465 9.73002 13.6419C9.52098 13.4331 9.52098 13.094 9.73002 12.8849L22.4559 0.158735C22.665 -0.0503076 23.0038 -0.0503076 23.2129 0.158735C23.4219 0.367778 23.4219 0.706637 23.2129 0.91568L10.487 13.6419C10.3823 13.7465 10.2455 13.7987 10.1085 13.7987Z" fill="white"/>
</g>
<defs>
<clipPath id="clip0_3408_3269">
<rect width="24" height="24" fill="white"/>
</clipPath>
</defs>
</svg>
