<svg width="24" height="25" viewBox="0 0 24 25" fill="none" xmlns="http://www.w3.org/2000/svg">
<path d="M18.4055 15.313C17.5835 15.3129 16.7862 15.5946 16.1468 16.1112C15.5074 16.6278 15.0644 17.348 14.8918 18.1517L8.52207 14.5771C8.95151 13.9702 9.18213 13.245 9.18213 12.5015C9.18213 11.758 8.95151 11.0328 8.52207 10.4259L14.8918 6.84971C15.0821 7.73751 15.6015 8.52034 16.3455 9.04081C17.0896 9.56127 18.003 9.78078 18.9023 9.6552C19.8015 9.52963 20.6199 9.06828 21.1929 8.36391C21.7659 7.65954 22.051 6.76437 21.9908 5.85838C21.9307 4.95239 21.5298 4.10274 20.8688 3.48027C20.2078 2.85779 19.3356 2.50864 18.4276 2.503C17.5197 2.49736 16.6432 2.83566 15.9745 3.44988C15.3058 4.0641 14.8944 4.9087 14.823 5.81387L7.86588 9.71974C7.33929 9.28944 6.70141 9.01739 6.02635 8.93522C5.35128 8.85304 4.66676 8.96411 4.05232 9.25551C3.43787 9.54692 2.91873 10.0067 2.55521 10.5814C2.19169 11.1562 1.99872 11.8222 1.99872 12.5023C1.99872 13.1823 2.19169 13.8484 2.55521 14.4231C2.91873 14.9979 3.43787 15.4577 4.05232 15.7491C4.66676 16.0405 5.35128 16.1515 6.02635 16.0694C6.70141 15.9872 7.33929 15.7151 7.86588 15.2848L14.823 19.1907C14.8783 19.8871 15.1354 20.5523 15.5628 21.1048C15.9902 21.6574 16.5694 22.0734 17.2295 22.302C17.8896 22.5306 18.6021 22.5617 19.2796 22.3917C19.9572 22.2217 20.5705 21.8579 21.0446 21.3448C21.5186 20.8317 21.8328 20.1915 21.9488 19.5026C22.0647 18.8137 21.9773 18.106 21.6973 17.466C21.4172 16.826 20.9567 16.2815 20.3721 15.8991C19.7875 15.5167 19.1041 15.313 18.4055 15.313ZM18.4055 3.4391C18.9308 3.4391 19.4443 3.59487 19.8811 3.88672C20.3179 4.17856 20.6583 4.59337 20.8593 5.07869C21.0603 5.56401 21.1129 6.09804 21.0105 6.61325C20.908 7.12847 20.655 7.60172 20.2836 7.97317C19.9121 8.34461 19.4389 8.59757 18.9237 8.70005C18.4084 8.80254 17.8744 8.74994 17.3891 8.54891C16.9038 8.34789 16.489 8.00746 16.1971 7.57069C15.9053 7.13391 15.7495 6.6204 15.7495 6.09509C15.7495 5.39068 16.0293 4.71512 16.5274 4.21702C17.0255 3.71893 17.7011 3.4391 18.4055 3.4391ZM3.71941 14.3755C3.26944 13.8692 3.02993 13.2101 3.04986 12.5331C3.06979 11.856 3.34766 11.2121 3.82663 10.7331C4.3056 10.2542 4.94948 9.97629 5.62655 9.95636C6.30363 9.93643 6.96273 10.1759 7.46905 10.6259C7.91901 11.1322 8.15853 11.7913 8.1386 12.4684C8.11867 13.1455 7.8408 13.7894 7.36182 14.2683C6.88285 14.7473 6.23898 15.0252 5.56191 15.0451C4.88483 15.065 4.22573 14.8255 3.71941 14.3755ZM18.4055 21.5624C17.8802 21.5624 17.3667 21.4066 16.9299 21.1147C16.4931 20.8229 16.1527 20.4081 15.9517 19.9228C15.7506 19.4374 15.6981 18.9034 15.8005 18.3882C15.903 17.873 16.156 17.3997 16.5274 17.0283C16.8989 16.6568 17.3721 16.4039 17.8873 16.3014C18.4025 16.1989 18.9366 16.2515 19.4219 16.4525C19.9072 16.6536 20.322 16.994 20.6139 17.4308C20.9057 17.8675 21.0615 18.3811 21.0615 18.9064C21.0615 19.6108 20.7817 20.2863 20.2836 20.7844C19.7855 21.2825 19.1099 21.5624 18.4055 21.5624Z" fill="#0A98E8"/>
</svg>
