<svg width="60" height="60" viewBox="0 0 60 60" fill="none" xmlns="http://www.w3.org/2000/svg">
<rect width="60" height="60" rx="10" fill="#CFDCE5" fill-opacity="0.5"/>
<path d="M28.3702 22.7728C27.4999 22.7728 26.6299 22.6418 25.7656 22.3796L23.5718 21.7147C23.0091 21.5442 22.4611 21.5154 21.9435 21.6288C21.7749 21.6656 21.6082 21.5591 21.5713 21.3905C21.5343 21.2219 21.641 21.0553 21.8096 21.0183C22.433 20.8817 23.0868 20.9148 23.753 21.1165L25.947 21.7815C27.555 22.2693 29.1854 22.2693 30.7933 21.7815L32.9873 21.1165C33.8557 20.8535 34.6907 20.8757 35.4695 21.1825C35.63 21.2457 35.709 21.4272 35.6457 21.5877C35.5824 21.7483 35.4008 21.8271 35.2405 21.764C34.5958 21.51 33.8987 21.4935 33.1686 21.7147L30.9747 22.3797C30.1107 22.6418 29.2403 22.7728 28.3702 22.7728Z" fill="#323761"/>
<path d="M32.6109 44.5973L32.599 44.5972C32.0135 44.5944 31.5179 44.1272 31.4725 43.5338C31.1665 39.5417 29.6751 34.6652 28.3705 34.6652C27.0658 34.6652 25.5744 39.5419 25.2685 43.534C25.223 44.1273 24.7275 44.5942 24.1405 44.5973H24.1301C23.0852 44.5973 22.142 43.8249 21.8875 42.7605L18.5154 28.6607C18.2674 27.6235 18.2089 26.5881 18.3416 25.5832C18.3642 25.412 18.5212 25.2917 18.6923 25.3142C18.8634 25.3368 18.9838 25.4939 18.9612 25.6649C18.8386 26.5938 18.8931 27.5529 19.1233 28.5153L22.4953 42.6151C22.6804 43.3888 23.3831 43.9722 24.13 43.9722C24.1306 43.9722 24.1367 43.9722 24.1372 43.9722C24.4014 43.9709 24.6245 43.7574 24.6452 43.4863C24.796 41.5175 25.2508 39.2029 25.832 37.4455C26.5795 35.1859 27.4335 34.0402 28.3704 34.0402C29.3072 34.0402 30.1612 35.1859 30.9086 37.4454C31.4899 39.2026 31.9446 41.5172 32.0955 43.486C32.1162 43.7574 32.3395 43.9709 32.6037 43.9722H32.6107C33.3576 43.9722 34.0604 43.3888 34.2454 42.6151L36.9074 31.4844C36.9475 31.3165 37.1162 31.2127 37.284 31.2531C37.4519 31.2933 37.5554 31.4619 37.5152 31.6297L34.8533 42.7605C34.5989 43.8248 33.6557 44.5973 32.6109 44.5973Z" fill="#323761"/>
<path d="M19.2186 23.9663C19.1737 23.9663 19.1281 23.9566 19.0847 23.9361C18.9289 23.862 18.8625 23.6756 18.9366 23.5197C19.2285 22.905 19.6021 22.3823 20.0472 21.9661C20.1733 21.8482 20.3711 21.8548 20.4889 21.9809C20.6068 22.107 20.6002 22.3047 20.4741 22.4226C20.0866 22.785 19.7592 23.2443 19.5011 23.7879C19.4477 23.9005 19.3355 23.9663 19.2186 23.9663Z" fill="#323761"/>
<path d="M25.443 32.7786C25.2931 32.7786 25.1643 32.6722 25.1361 32.525C24.7511 30.5186 24.5046 30.2721 22.4983 29.8871C22.3511 29.8589 22.2446 29.7301 22.2446 29.5802C22.2446 29.4303 22.3511 29.3016 22.4983 29.2733C24.5046 28.8883 24.7511 28.6418 25.1361 26.6355C25.1643 26.4883 25.2931 26.3818 25.443 26.3818C25.5928 26.3818 25.7216 26.4883 25.7499 26.6355C26.1349 28.6418 26.3814 28.8883 28.3877 29.2733C28.5349 29.3015 28.6413 29.4303 28.6413 29.5802C28.6413 29.7301 28.5349 29.8588 28.3877 29.8871C26.3814 30.2721 26.1349 30.5186 25.7499 32.525C25.7216 32.6722 25.5928 32.7786 25.443 32.7786ZM23.8643 29.5803C24.7294 29.8736 25.1496 30.2938 25.443 31.159C25.7363 30.2938 26.1566 29.8736 27.0217 29.5803C26.1566 29.287 25.7364 28.8667 25.443 28.0016C25.1497 28.8667 24.7294 29.2869 23.8643 29.5803Z" fill="#323761"/>
<path d="M29.0617 20.6997C28.9118 20.6997 28.7831 20.5933 28.7548 20.4461C28.4469 18.8415 28.2713 18.6658 26.6667 18.358C26.5195 18.3297 26.4131 18.2009 26.4131 18.051C26.4131 17.9012 26.5195 17.7724 26.6667 17.7441C28.2713 17.4362 28.4469 17.2605 28.7548 15.656C28.7831 15.5088 28.9118 15.4023 29.0617 15.4023C29.2116 15.4023 29.3403 15.5088 29.3686 15.656C29.6765 17.2605 29.8521 17.4362 31.4567 17.7441C31.6039 17.7723 31.7103 17.9012 31.7103 18.051C31.7103 18.2009 31.6039 18.3297 31.4567 18.358C29.8521 18.6658 29.6765 18.8415 29.3686 20.4461C29.3403 20.5933 29.2116 20.6997 29.0617 20.6997ZM27.9619 18.0511C28.5289 18.2723 28.8406 18.5839 29.0618 19.1509C29.283 18.5839 29.5946 18.2722 30.1616 18.0511C29.5946 17.8299 29.283 17.5183 29.0618 16.9512C28.8405 17.5182 28.5289 17.8299 27.9619 18.0511Z" fill="#323761"/>
<path d="M37.6843 29.4537C37.5344 29.4537 37.4057 29.3473 37.3774 29.2001C36.869 26.5508 36.5435 26.2253 33.8942 25.7169C33.7471 25.6886 33.6406 25.5598 33.6406 25.41C33.6406 25.2601 33.747 25.1313 33.8942 25.103C36.5436 24.5946 36.8691 24.2691 37.3774 21.6198C37.4057 21.4726 37.5344 21.3662 37.6843 21.3662C37.8342 21.3662 37.9629 21.4726 37.9912 21.6198C38.4996 24.2691 38.8251 24.5946 41.4744 25.103C41.6216 25.1313 41.728 25.2601 41.728 25.41C41.728 25.5598 41.6216 25.6886 41.4744 25.7169C38.8251 26.2253 38.4996 26.5508 37.9912 29.2001C37.9629 29.3473 37.8342 29.4537 37.6843 29.4537ZM35.3467 25.41C36.721 25.8099 37.2845 26.3733 37.6843 27.7477C38.0841 26.3733 38.6476 25.8099 40.022 25.41C38.6476 25.0101 38.0841 24.4467 37.6843 23.0723C37.2845 24.4466 36.721 25.0101 35.3467 25.41Z" fill="#323761"/>
</svg>
