<svg width="16" height="17" viewBox="0 0 16 17" fill="none" xmlns="http://www.w3.org/2000/svg">
<path d="M13.2995 2.83748H10.0892C10.0706 2.41642 9.89015 2.0188 9.58548 1.72758C9.28081 1.43635 8.87546 1.274 8.45399 1.27441H7.5402C7.11873 1.274 6.71337 1.43635 6.4087 1.72758C6.10404 2.0188 5.92358 2.41642 5.90499 2.83748H2.69468C2.36721 2.86881 2.06317 3.02106 1.84191 3.2645C1.62064 3.50794 1.49805 3.8251 1.49805 4.15407C1.49805 4.48304 1.62064 4.8002 1.84191 5.04364C2.06317 5.28708 2.36721 5.43932 2.69468 5.47065H2.83897V14.0916C2.84518 14.5265 3.02072 14.9419 3.3283 15.2495C3.63588 15.5571 4.05126 15.7326 4.4862 15.7388H11.6042C12.0401 15.7357 12.4572 15.5611 12.7655 15.2529C13.0737 14.9446 13.2483 14.5275 13.2514 14.0916V5.47065C13.5789 5.43932 13.8829 5.28708 14.1042 5.04364C14.3254 4.8002 14.448 4.48304 14.448 4.15407C14.448 3.8251 14.3254 3.50794 14.1042 3.2645C13.8829 3.02106 13.5789 2.86881 13.2514 2.83748H13.2995ZM7.5402 2.08H8.45399C8.66 2.0822 8.85781 2.16098 9.00894 2.30099C9.16007 2.44101 9.25369 2.63225 9.2716 2.83748H6.72259C6.74049 2.63225 6.83412 2.44101 6.98525 2.30099C7.13637 2.16098 7.33419 2.0822 7.5402 2.08ZM12.4458 14.1036C12.4458 14.3268 12.3572 14.5409 12.1993 14.6987C12.0415 14.8566 11.8274 14.9453 11.6042 14.9453H4.4862C4.26395 14.9421 4.05167 14.8525 3.8945 14.6953C3.73733 14.5381 3.64766 14.3259 3.64455 14.1036V5.47065H5.33988V11.1097C5.35633 11.2046 5.40576 11.2907 5.47945 11.3527C5.55314 11.4147 5.64636 11.4487 5.74267 11.4487C5.83898 11.4487 5.93219 11.4147 6.00588 11.3527C6.07957 11.2907 6.129 11.2046 6.14546 11.1097V5.47065H7.85281V12.6848C7.86927 12.7797 7.9187 12.8657 7.99239 12.9278C8.06608 12.9898 8.15929 13.0238 8.2556 13.0238C8.35191 13.0238 8.44513 12.9898 8.51882 12.9278C8.59251 12.8657 8.64194 12.7797 8.65839 12.6848V5.47065H10.4018V11.1097C10.4183 11.2046 10.4677 11.2907 10.5414 11.3527C10.6151 11.4147 10.7083 11.4487 10.8046 11.4487C10.9009 11.4487 10.9941 11.4147 11.0678 11.3527C11.1415 11.2907 11.1909 11.2046 11.2074 11.1097V5.47065H12.4458V14.1036ZM13.2995 4.6771H2.69468C2.57262 4.65832 2.46131 4.59647 2.3809 4.50274C2.30049 4.40901 2.25628 4.28959 2.25628 4.16609C2.25628 4.0426 2.30049 3.92318 2.3809 3.82945C2.46131 3.73572 2.57262 3.67387 2.69468 3.65509H13.2995C13.4216 3.67387 13.5329 3.73572 13.6133 3.82945C13.6937 3.92318 13.7379 4.0426 13.7379 4.16609C13.7379 4.28959 13.6937 4.40901 13.6133 4.50274C13.5329 4.59647 13.4216 4.65832 13.2995 4.6771Z" fill="#EA2828"/>
</svg>
