<svg width="24" height="25" viewBox="0 0 24 25" fill="none" xmlns="http://www.w3.org/2000/svg">
<g clip-path="url(#clip0_3403_2207)">
<path d="M12.0001 19.25C8.80135 19.25 5.77435 17.8948 3.47485 15.434C3.1921 15.1318 3.2086 14.657 3.51085 14.3743C3.81385 14.0915 4.28785 14.108 4.57135 14.4103C6.5836 16.5643 9.22135 17.75 12.0001 17.75C15.5724 17.75 18.8619 15.7963 20.8801 12.5C18.8626 9.20375 15.5724 7.25 12.0001 7.25C8.2966 7.25 4.8961 9.35075 2.9026 12.8698C2.6986 13.2305 2.2396 13.358 1.88035 13.1525C1.5196 12.9485 1.3936 12.491 1.5976 12.1302C3.86035 8.135 7.74985 5.75 12.0001 5.75C16.2511 5.75 20.1399 8.135 22.4026 12.1302C22.5324 12.3597 22.5324 12.6403 22.4026 12.869C20.1399 16.8643 16.2511 19.25 12.0001 19.25Z" fill="#0A98E8"/>
<path d="M12 16.25C9.93225 16.25 8.25 14.5677 8.25 12.5C8.25 10.4323 9.93225 8.75 12 8.75C14.0677 8.75 15.75 10.4323 15.75 12.5C15.75 14.5677 14.0677 16.25 12 16.25ZM12 10.25C10.7595 10.25 9.75 11.2595 9.75 12.5C9.75 13.7405 10.7595 14.75 12 14.75C13.2405 14.75 14.25 13.7405 14.25 12.5C14.25 11.2595 13.2405 10.25 12 10.25Z" fill="#0A98E8"/>
</g>
<defs>
<clipPath id="clip0_3403_2207">
<rect width="24" height="24" fill="white" transform="translate(0 0.5)"/>
</clipPath>
</defs>
</svg>
