<svg width="50" height="50" viewBox="0 0 50 50" fill="none" xmlns="http://www.w3.org/2000/svg">
<circle cx="25" cy="25" r="25" fill="#F6FAFC"/>
<g clip-path="url(#clip0_3289_2971)">
<path d="M24.7843 35.5686C22.6514 35.5686 20.5663 34.9361 18.7929 33.7511C17.0194 32.5662 15.6372 30.8819 14.8209 28.9113C14.0047 26.9407 13.7911 24.7724 14.2072 22.6804C14.6233 20.5885 15.6504 18.6669 17.1587 17.1587C18.6669 15.6504 20.5885 14.6233 22.6804 14.2072C24.7724 13.7911 26.9407 14.0047 28.9113 14.8209C30.8819 15.6372 32.5662 17.0194 33.7511 18.7929C34.9361 20.5663 35.5686 22.6514 35.5686 24.7843C35.5686 27.6445 34.4324 30.3875 32.41 32.41C30.3875 34.4324 27.6445 35.5686 24.7843 35.5686ZM24.7843 15.348C22.918 15.348 21.0936 15.9015 19.5418 16.9383C17.99 17.9752 16.7805 19.449 16.0663 21.1732C15.3521 22.8975 15.1653 24.7948 15.5294 26.6252C15.8935 28.4557 16.7922 30.1371 18.1119 31.4568C19.4316 32.7765 21.1129 33.6752 22.9434 34.0393C24.7739 34.4034 26.6712 34.2165 28.3954 33.5023C30.1197 32.7881 31.5934 31.5786 32.6303 30.0268C33.6672 28.475 34.2206 26.6506 34.2206 24.7843C34.2206 22.2817 33.2264 19.8815 31.4568 18.1119C29.6871 16.3422 27.287 15.348 24.7843 15.348Z" fill="#0A98E8"/>
<path d="M24.1099 22.7625H22.7619C22.7619 22.405 22.6199 22.0621 22.3671 21.8093C22.1143 21.5565 21.7714 21.4144 21.4139 21.4144C21.0563 21.4144 20.7135 21.5565 20.4606 21.8093C20.2078 22.0621 20.0658 22.405 20.0658 22.7625H18.7178C18.7178 22.0474 19.0018 21.3617 19.5074 20.8561C20.013 20.3505 20.6988 20.0664 21.4139 20.0664C22.1289 20.0664 22.8147 20.3505 23.3203 20.8561C23.8259 21.3617 24.1099 22.0474 24.1099 22.7625Z" fill="#0A98E8"/>
<path d="M30.8502 22.7625H29.5021C29.5021 22.405 29.3601 22.0621 29.1073 21.8093C28.8545 21.5565 28.5116 21.4144 28.1541 21.4144C27.7966 21.4144 27.4537 21.5565 27.2009 21.8093C26.9481 22.0621 26.806 22.405 26.806 22.7625H25.458C25.458 22.0474 25.7421 21.3617 26.2477 20.8561C26.7533 20.3505 27.439 20.0664 28.1541 20.0664C28.8691 20.0664 29.5549 20.3505 30.0605 20.8561C30.5661 21.3617 30.8502 22.0474 30.8502 22.7625Z" fill="#0A98E8"/>
<path d="M24.7847 30.8502C23.3546 30.8502 21.9831 30.2821 20.9719 29.2708C19.9607 28.2596 19.3926 26.8881 19.3926 25.458H20.7406C20.7406 26.5306 21.1667 27.5592 21.9251 28.3176C22.6835 29.0761 23.7122 29.5021 24.7847 29.5021C25.8573 29.5021 26.8859 29.0761 27.6444 28.3176C28.4028 27.5592 28.8289 26.5306 28.8289 25.458H30.1769C30.1769 26.8881 29.6088 28.2596 28.5976 29.2708C27.5863 30.2821 26.2148 30.8502 24.7847 30.8502Z" fill="#0A98E8"/>
</g>
<defs>
<clipPath id="clip0_3289_2971">
<rect width="21.5686" height="21.5686" fill="white" transform="translate(14 14)"/>
</clipPath>
</defs>
</svg>
