<svg width="51" height="51" viewBox="0 0 51 51" fill="none" xmlns="http://www.w3.org/2000/svg">
<circle cx="25.5" cy="25.5" r="25.5" fill="#EBF1F4"/>
<g clip-path="url(#clip0_749_763)">
<path d="M25 36C22.8244 36 20.6977 35.3549 18.8887 34.1462C17.0798 32.9375 15.6699 31.2195 14.8373 29.2095C14.0048 27.1995 13.7869 24.9878 14.2114 22.854C14.6358 20.7202 15.6835 18.7602 17.2218 17.2218C18.7602 15.6835 20.7202 14.6358 22.854 14.2114C24.9878 13.7869 27.1995 14.0048 29.2095 14.8373C31.2195 15.6699 32.9375 17.0798 34.1462 18.8887C35.3549 20.6977 36 22.8244 36 25C36 27.9174 34.8411 30.7153 32.7782 32.7782C30.7153 34.8411 27.9174 36 25 36ZM25 15.375C23.0964 15.375 21.2355 15.9395 19.6526 16.9971C18.0698 18.0547 16.8362 19.5579 16.1077 21.3167C15.3792 23.0754 15.1886 25.0107 15.5599 26.8777C15.9313 28.7448 16.848 30.4598 18.1941 31.8059C19.5402 33.152 21.2552 34.0687 23.1223 34.4401C24.9893 34.8114 26.9246 34.6208 28.6833 33.8923C30.4421 33.1639 31.9453 31.9302 33.0029 30.3474C34.0605 28.7645 34.625 26.9037 34.625 25C34.625 22.4473 33.6109 19.9991 31.8059 18.1941C30.0009 16.3891 27.5527 15.375 25 15.375Z" fill="#0A98E8"/>
<path d="M24.3125 22.9375H22.9375C22.9375 22.5728 22.7926 22.2231 22.5348 21.9652C22.2769 21.7074 21.9272 21.5625 21.5625 21.5625C21.1978 21.5625 20.8481 21.7074 20.5902 21.9652C20.3324 22.2231 20.1875 22.5728 20.1875 22.9375H18.8125C18.8125 22.2082 19.1022 21.5087 19.618 20.993C20.1337 20.4772 20.8332 20.1875 21.5625 20.1875C22.2918 20.1875 22.9913 20.4772 23.507 20.993C24.0228 21.5087 24.3125 22.2082 24.3125 22.9375Z" fill="#0A98E8"/>
<path d="M31.1875 22.9375H29.8125C29.8125 22.5728 29.6676 22.2231 29.4098 21.9652C29.1519 21.7074 28.8022 21.5625 28.4375 21.5625C28.0728 21.5625 27.7231 21.7074 27.4652 21.9652C27.2074 22.2231 27.0625 22.5728 27.0625 22.9375H25.6875C25.6875 22.2082 25.9772 21.5087 26.493 20.993C27.0087 20.4772 27.7082 20.1875 28.4375 20.1875C29.1668 20.1875 29.8663 20.4772 30.382 20.993C30.8978 21.5087 31.1875 22.2082 31.1875 22.9375Z" fill="#0A98E8"/>
<path d="M25 31.1875C23.5413 31.1875 22.1424 30.608 21.1109 29.5766C20.0795 28.5451 19.5 27.1462 19.5 25.6875H20.875C20.875 26.7815 21.3096 27.8307 22.0832 28.6043C22.8568 29.3779 23.906 29.8125 25 29.8125C26.094 29.8125 27.1432 29.3779 27.9168 28.6043C28.6904 27.8307 29.125 26.7815 29.125 25.6875H30.5C30.5 27.1462 29.9205 28.5451 28.8891 29.5766C27.8576 30.608 26.4587 31.1875 25 31.1875Z" fill="#0A98E8"/>
</g>
<defs>
<clipPath id="clip0_749_763">
<rect width="22" height="22" fill="white" transform="translate(14 14)"/>
</clipPath>
</defs>
</svg>
