<svg width="21" height="21" viewBox="0 0 21 21" fill="none" xmlns="http://www.w3.org/2000/svg">
<g clip-path="url(#clip0_735_1901)">
<path d="M17.375 4.0249C15.5625 2.2124 13.0938 1.2124 10.5625 1.2124C5.25 1.2124 0.90625 5.5249 0.90625 10.8374C0.90625 12.5562 1.34375 14.1812 2.1875 15.6812L0.8125 20.6499L5.96875 19.3374C7.375 20.0874 8.96875 20.5249 10.5938 20.5249C15.875 20.4937 20.1875 16.1812 20.1875 10.8374C20.1875 8.2749 19.1875 5.86865 17.375 4.0249ZM10.5312 18.8687C9.125 18.8687 7.65625 18.4624 6.4375 17.7124L6.125 17.5249L3.09375 18.3062L3.9375 15.3687L3.75 15.0562C2.96875 13.7749 2.53125 12.2749 2.53125 10.7749C2.53125 6.36865 6.09375 2.80615 10.5312 2.80615C12.6562 2.80615 14.6562 3.6499 16.1562 5.1499C17.6562 6.6499 18.5 8.68115 18.5 10.8374C18.5625 15.3062 14.9375 18.8687 10.5312 18.8687ZM14.9375 12.8687C14.6875 12.7437 13.5312 12.1499 13.25 12.1187C13.0312 12.0249 12.8438 11.9937 12.7188 12.2437C12.5937 12.4937 12.0938 12.9937 11.9688 13.1812C11.8438 13.3062 11.7188 13.3687 11.4375 13.2124C11.1875 13.0874 10.4375 12.8687 9.5 11.9937C8.78125 11.3687 8.28125 10.5874 8.1875 10.3062C8.0625 10.0562 8.15625 9.9624 8.3125 9.80615C8.4375 9.68115 8.5625 9.55615 8.65625 9.36865C8.78125 9.24365 8.78125 9.11865 8.90625 8.9624C9.03125 8.8374 8.9375 8.6499 8.875 8.5249C8.78125 8.3999 8.34375 7.2124 8.125 6.7124C7.9375 6.2124 7.71875 6.30615 7.59375 6.30615C7.46875 6.30615 7.28125 6.30615 7.15625 6.30615C7.03125 6.30615 6.71875 6.3374 6.53125 6.61865C6.3125 6.86865 5.6875 7.4624 5.6875 8.6499C5.6875 9.8374 6.53125 10.9312 6.6875 11.1499C6.8125 11.2749 8.40625 13.7437 10.7812 14.8062C11.3438 15.0562 11.7812 15.2124 12.1562 15.3374C12.7188 15.5249 13.25 15.4624 13.6562 15.4312C14.125 15.3999 15.0625 14.8687 15.2812 14.2749C15.4688 13.7437 15.4688 13.2124 15.4062 13.1187C15.3438 13.0562 15.1562 12.9624 14.9375 12.8687Z" fill="#006BCE"/>
</g>
<defs>
<clipPath id="clip0_735_1901">
<rect width="20" height="20" fill="white" transform="translate(0.5 0.931152)"/>
</clipPath>
</defs>
</svg>
