<svg width="28" height="28" viewBox="0 0 28 28" fill="none" xmlns="http://www.w3.org/2000/svg">
<path d="M23.5199 7.98012C20.1599 2.80012 13.2999 1.26012 7.97994 4.48012C2.79994 7.70012 1.11994 14.7001 4.47994 19.8801L4.75994 20.3001L3.63994 24.5001L7.83994 23.3801L8.25994 23.6601C10.0799 24.6401 12.0399 25.2001 13.9999 25.2001C16.0999 25.2001 18.1999 24.6401 20.0199 23.5201C25.1999 20.1601 26.7399 13.3001 23.5199 7.98012ZM20.5799 18.7601C20.0199 19.6001 19.3199 20.1601 18.3399 20.3001C17.7799 20.3001 17.0799 20.5801 14.2799 19.4601C11.8999 18.3401 9.93994 16.5201 8.53994 14.4201C7.69994 13.4401 7.27994 12.1801 7.13994 10.9201C7.13994 9.80012 7.55994 8.82012 8.25994 8.12012C8.53994 7.84012 8.81994 7.70012 9.09994 7.70012H9.79994C10.0799 7.70012 10.3599 7.70012 10.4999 8.26012C10.7799 8.96012 11.4799 10.6401 11.4799 10.7801C11.6199 10.9201 11.6199 11.2001 11.4799 11.3401C11.6199 11.6201 11.4799 11.9001 11.3399 12.0401C11.1999 12.1801 11.0599 12.4601 10.9199 12.6001C10.6399 12.7401 10.4999 13.0201 10.6399 13.3001C11.1999 14.1401 11.8999 14.9801 12.5999 15.6801C13.4399 16.3801 14.2799 16.9401 15.2599 17.3601C15.5399 17.5001 15.8199 17.5001 15.9599 17.2201C16.0999 16.9401 16.7999 16.2401 17.0799 15.9601C17.3599 15.6801 17.4999 15.6801 17.7799 15.8201L20.0199 16.9401C20.2999 17.0801 20.5799 17.2201 20.7199 17.3601C20.8599 17.7801 20.8599 18.3401 20.5799 18.7601Z" fill="white"/>
</svg>
