<svg width="30" height="30" viewBox="0 0 30 30" fill="none" xmlns="http://www.w3.org/2000/svg">
<g clip-path="url(#clip0_3408_3259)">
<path fill-rule="evenodd" clip-rule="evenodd" d="M26.3347 0C28.3577 0 30 1.64238 30 3.66527V26.3347C30 28.3576 28.3576 30 26.3347 30H3.66527C1.64238 30 0 28.3576 0 26.3347V3.66527C0 1.64238 1.64232 0 3.66527 0L26.3347 0ZM22.8969 7.4826C20.9139 5.49738 18.2769 4.40361 15.4673 4.40244C9.67828 4.40244 4.9667 9.11367 4.96441 14.9044C4.96365 16.7556 5.44729 18.5623 6.36639 20.1551L4.87641 25.5976L10.444 24.1371C11.9781 24.9738 13.7053 25.4149 15.4631 25.4154H15.4674C21.2558 25.4154 25.9678 20.7037 25.9702 14.9129C25.9712 12.1065 24.8797 9.46775 22.8969 7.4826ZM15.4673 23.6417H15.4638C13.8974 23.6411 12.3611 23.2202 11.0208 22.4249L10.702 22.2357L7.39811 23.1024L8.27994 19.8811L8.0724 19.5508C7.19859 18.161 6.73699 16.5546 6.7377 14.9051C6.73963 10.0921 10.6557 6.17631 15.4709 6.17631C17.8025 6.17713 19.9942 7.08633 21.6425 8.73639C23.2906 10.3864 24.1977 12.5797 24.1968 14.9122C24.1948 19.7256 20.2789 23.6416 15.4673 23.6417ZM20.2557 17.1038C19.9932 16.9724 18.703 16.3376 18.4625 16.25C18.222 16.1624 18.047 16.1187 17.872 16.3813C17.6971 16.644 17.1942 17.2351 17.0411 17.4103C16.888 17.5854 16.7349 17.6074 16.4725 17.4759C16.2101 17.3446 15.3645 17.0675 14.3621 16.1734C13.582 15.4775 13.0553 14.6182 12.9022 14.3555C12.7492 14.0927 12.8859 13.9507 13.0172 13.8199C13.1354 13.7023 13.2797 13.5134 13.4109 13.3601C13.5422 13.2069 13.5859 13.0974 13.6734 12.9223C13.7609 12.7471 13.7171 12.594 13.6515 12.4626C13.5859 12.3313 13.061 11.0395 12.8423 10.514C12.6294 10.0023 12.413 10.0716 12.2519 10.0635C12.099 10.0559 11.9239 10.0543 11.749 10.0543C11.574 10.0543 11.2897 10.12 11.0491 10.3826C10.8086 10.6454 10.1307 11.2803 10.1307 12.5719C10.1307 13.8637 11.071 15.1115 11.2022 15.2867C11.3334 15.4619 13.0527 18.1125 15.6853 19.2492C16.3113 19.5196 16.8002 19.6811 17.1813 19.802C17.8099 20.0018 18.382 19.9736 18.8342 19.906C19.3384 19.8307 20.3869 19.2712 20.6055 18.6582C20.8242 18.0451 20.8242 17.5197 20.7586 17.4103C20.693 17.3008 20.5181 17.2351 20.2557 17.1038Z" fill="#0A98E8"/>
</g>
<defs>
<clipPath id="clip0_3408_3259">
<rect width="30" height="30" fill="white"/>
</clipPath>
</defs>
</svg>
