<svg width="30" height="30" viewBox="0 0 30 30" fill="none" xmlns="http://www.w3.org/2000/svg">
<g clip-path="url(#clip0_3408_3253)">
<path d="M15.2098 13.2676L9.66621 5.51074H6.70947L13.5766 15.1188L14.441 16.3274L20.3189 24.5585H23.2756L16.0706 14.4763L15.2098 13.2676Z" fill="#0A98E8"/>
<path d="M27.4906 0H2.50938C1.12344 0 0 1.12344 0 2.50938V27.4906C0 28.8766 1.12344 30 2.50938 30H27.4906C28.8766 30 30 28.8766 30 27.4906V2.50938C30 1.12344 28.8766 0 27.4906 0ZM19.4118 25.9091L13.4629 17.4368L6.0156 25.9091H4.09091L12.6094 16.2209L4.09091 4.09091H10.5882L16.2201 12.1118L23.2767 4.09091H25.2013L17.0782 13.3304L25.9091 25.9091H19.4118Z" fill="#0A98E8"/>
</g>
<defs>
<clipPath id="clip0_3408_3253">
<rect width="30" height="30" fill="white"/>
</clipPath>
</defs>
</svg>
