<svg width="1440" height="234" viewBox="0 0 1440 234" fill="none" xmlns="http://www.w3.org/2000/svg">
<path d="M0 105.34L30 96.7357C60 88.4532 120 70.7624 180 58.1377C240 45.0304 300 36.9892 360 58.1377C420 79.6078 480 131.072 540 139.676C600 147.959 660 114.185 720 105.34C780 96.4945 840 114.185 900 113.944C960 114.185 1020 96.4945 1080 71.0037C1140 45.0304 1200 11.2571 1260 2.41175C1320 -6.43363 1380 11.2571 1410 19.5396L1440 28.1438V234H1410C1380 234 1320 234 1260 234C1200 234 1140 234 1080 234C1020 234 960 234 900 234C840 234 780 234 720 234C660 234 600 234 540 234C480 234 420 234 360 234C300 234 240 234 180 234C120 234 60 234 30 234H0V105.34Z" fill="#373C67"/>
</svg>
