<svg width="158" height="20" viewBox="0 0 158 20" fill="none" xmlns="http://www.w3.org/2000/svg">
<path d="M7.872 19.192C6.496 19.192 5.272 18.904 4.2 18.328C3.144 17.752 2.304 16.968 1.68 15.976C1.072 14.968 0.768 13.824 0.768 12.544C0.768 11.248 1.072 10.104 1.68 9.112C2.304 8.104 3.144 7.32 4.2 6.76C5.272 6.184 6.496 5.896 7.872 5.896C9.232 5.896 10.448 6.184 11.52 6.76C12.592 7.32 13.432 8.096 14.04 9.088C14.648 10.08 14.952 11.232 14.952 12.544C14.952 13.824 14.648 14.968 14.04 15.976C13.432 16.968 12.592 17.752 11.52 18.328C10.448 18.904 9.232 19.192 7.872 19.192ZM7.872 16.12C8.496 16.12 9.056 15.976 9.552 15.688C10.048 15.4 10.44 14.992 10.728 14.464C11.016 13.92 11.16 13.28 11.16 12.544C11.16 11.792 11.016 11.152 10.728 10.624C10.44 10.096 10.048 9.688 9.552 9.4C9.056 9.112 8.496 8.968 7.872 8.968C7.248 8.968 6.688 9.112 6.192 9.4C5.696 9.688 5.296 10.096 4.992 10.624C4.704 11.152 4.56 11.792 4.56 12.544C4.56 13.28 4.704 13.92 4.992 14.464C5.296 14.992 5.696 15.4 6.192 15.688C6.688 15.976 7.248 16.12 7.872 16.12ZM22.9986 19.192C21.7826 19.192 20.6866 18.92 19.7106 18.376C18.7346 17.816 17.9586 17.04 17.3826 16.048C16.8226 15.056 16.5426 13.888 16.5426 12.544C16.5426 11.184 16.8226 10.008 17.3826 9.016C17.9586 8.024 18.7346 7.256 19.7106 6.712C20.6866 6.168 21.7826 5.896 22.9986 5.896C24.0866 5.896 25.0386 6.136 25.8546 6.616C26.6706 7.096 27.3026 7.824 27.7506 8.8C28.1986 9.776 28.4226 11.024 28.4226 12.544C28.4226 14.048 28.2066 15.296 27.7746 16.288C27.3426 17.264 26.7186 17.992 25.9026 18.472C25.1026 18.952 24.1346 19.192 22.9986 19.192ZM23.6466 16.12C24.2546 16.12 24.8066 15.976 25.3026 15.688C25.7986 15.4 26.1906 14.992 26.4786 14.464C26.7826 13.92 26.9346 13.28 26.9346 12.544C26.9346 11.792 26.7826 11.152 26.4786 10.624C26.1906 10.096 25.7986 9.688 25.3026 9.4C24.8066 9.112 24.2546 8.968 23.6466 8.968C23.0226 8.968 22.4626 9.112 21.9666 9.4C21.4706 9.688 21.0706 10.096 20.7666 10.624C20.4786 11.152 20.3346 11.792 20.3346 12.544C20.3346 13.28 20.4786 13.92 20.7666 14.464C21.0706 14.992 21.4706 15.4 21.9666 15.688C22.4626 15.976 23.0226 16.12 23.6466 16.12ZM27.0306 19V16.36L27.1026 12.52L26.8626 8.704V1.192H30.6066V19H27.0306ZM40.2158 19.192C38.8398 19.192 37.6158 18.904 36.5438 18.328C35.4878 17.752 34.6478 16.968 34.0238 15.976C33.4158 14.968 33.1118 13.824 33.1118 12.544C33.1118 11.248 33.4158 10.104 34.0238 9.112C34.6478 8.104 35.4878 7.32 36.5438 6.76C37.6158 6.184 38.8398 5.896 40.2158 5.896C41.5758 5.896 42.7918 6.184 43.8638 6.76C44.9358 7.32 45.7758 8.096 46.3838 9.088C46.9918 10.08 47.2958 11.232 47.2958 12.544C47.2958 13.824 46.9918 14.968 46.3838 15.976C45.7758 16.968 44.9358 17.752 43.8638 18.328C42.7918 18.904 41.5758 19.192 40.2158 19.192ZM40.2158 16.12C40.8398 16.12 41.3998 15.976 41.8958 15.688C42.3918 15.4 42.7838 14.992 43.0718 14.464C43.3598 13.92 43.5038 13.28 43.5038 12.544C43.5038 11.792 43.3598 11.152 43.0718 10.624C42.7838 10.096 42.3918 9.688 41.8958 9.4C41.3998 9.112 40.8398 8.968 40.2158 8.968C39.5918 8.968 39.0318 9.112 38.5358 9.4C38.0398 9.688 37.6398 10.096 37.3358 10.624C37.0478 11.152 36.9038 11.792 36.9038 12.544C36.9038 13.28 37.0478 13.92 37.3358 14.464C37.6398 14.992 38.0398 15.4 38.5358 15.688C39.0318 15.976 39.5918 16.12 40.2158 16.12ZM57.6463 5.896C58.6703 5.896 59.5823 6.104 60.3823 6.52C61.1983 6.92 61.8383 7.544 62.3023 8.392C62.7663 9.224 62.9983 10.296 62.9983 11.608V19H59.2543V12.184C59.2543 11.144 59.0223 10.376 58.5583 9.88C58.1103 9.384 57.4703 9.136 56.6383 9.136C56.0463 9.136 55.5103 9.264 55.0303 9.52C54.5663 9.76 54.1983 10.136 53.9263 10.648C53.6703 11.16 53.5423 11.816 53.5423 12.616V19H49.7983V6.088H53.3743V9.664L52.7023 8.584C53.1663 7.72 53.8303 7.056 54.6943 6.592C55.5583 6.128 56.5423 5.896 57.6463 5.896ZM71.6721 19.192C70.1521 19.192 68.9681 18.808 68.1201 18.04C67.2721 17.256 66.8481 16.096 66.8481 14.56V3.232H70.5921V14.512C70.5921 15.056 70.7361 15.48 71.0241 15.784C71.3121 16.072 71.7041 16.216 72.2001 16.216C72.7921 16.216 73.2961 16.056 73.7121 15.736L74.7201 18.376C74.3361 18.648 73.8721 18.856 73.3281 19C72.8001 19.128 72.2481 19.192 71.6721 19.192ZM64.8561 9.256V6.376H73.8081V9.256H64.8561ZM82.5673 19.192C81.1913 19.192 79.9673 18.904 78.8953 18.328C77.8393 17.752 76.9993 16.968 76.3753 15.976C75.7673 14.968 75.4633 13.824 75.4633 12.544C75.4633 11.248 75.7673 10.104 76.3753 9.112C76.9993 8.104 77.8393 7.32 78.8953 6.76C79.9673 6.184 81.1913 5.896 82.5673 5.896C83.9273 5.896 85.1433 6.184 86.2153 6.76C87.2873 7.32 88.1273 8.096 88.7353 9.088C89.3433 10.08 89.6473 11.232 89.6473 12.544C89.6473 13.824 89.3433 14.968 88.7353 15.976C88.1273 16.968 87.2873 17.752 86.2153 18.328C85.1433 18.904 83.9273 19.192 82.5673 19.192ZM82.5673 16.12C83.1913 16.12 83.7513 15.976 84.2473 15.688C84.7433 15.4 85.1353 14.992 85.4233 14.464C85.7113 13.92 85.8553 13.28 85.8553 12.544C85.8553 11.792 85.7113 11.152 85.4233 10.624C85.1353 10.096 84.7433 9.688 84.2473 9.4C83.7513 9.112 83.1913 8.968 82.5673 8.968C81.9433 8.968 81.3833 9.112 80.8873 9.4C80.3913 9.688 79.9913 10.096 79.6873 10.624C79.3993 11.152 79.2553 11.792 79.2553 12.544C79.2553 13.28 79.3993 13.92 79.6873 14.464C79.9913 14.992 80.3913 15.4 80.8873 15.688C81.3833 15.976 81.9433 16.12 82.5673 16.12Z" fill="#0A98E8"/>
<path d="M96.4939 19.192C95.3899 19.192 94.3259 19.064 93.3019 18.808C92.2939 18.536 91.4939 18.2 90.9019 17.8L92.1499 15.112C92.7419 15.48 93.4379 15.784 94.2379 16.024C95.0539 16.248 95.8539 16.36 96.6379 16.36C97.5019 16.36 98.1099 16.256 98.4619 16.048C98.8299 15.84 99.0139 15.552 99.0139 15.184C99.0139 14.88 98.8699 14.656 98.5819 14.512C98.3099 14.352 97.9419 14.232 97.4779 14.152C97.0139 14.072 96.5019 13.992 95.9419 13.912C95.3979 13.832 94.8459 13.728 94.2859 13.6C93.7259 13.456 93.2139 13.248 92.7499 12.976C92.2859 12.704 91.9099 12.336 91.6219 11.872C91.3499 11.408 91.2139 10.808 91.2139 10.072C91.2139 9.256 91.4459 8.536 91.9099 7.912C92.3899 7.288 93.0779 6.8 93.9739 6.448C94.8699 6.08 95.9419 5.896 97.1899 5.896C98.0699 5.896 98.9659 5.992 99.8779 6.184C100.79 6.376 101.55 6.656 102.158 7.024L100.91 9.688C100.286 9.32 99.6539 9.072 99.0139 8.944C98.3899 8.8 97.7819 8.728 97.1899 8.728C96.3579 8.728 95.7499 8.84 95.3659 9.064C94.9819 9.288 94.7899 9.576 94.7899 9.928C94.7899 10.248 94.9259 10.488 95.1979 10.648C95.4859 10.808 95.8619 10.936 96.3259 11.032C96.7899 11.128 97.2939 11.216 97.8379 11.296C98.3979 11.36 98.9579 11.464 99.5179 11.608C100.078 11.752 100.582 11.96 101.03 12.232C101.494 12.488 101.87 12.848 102.158 13.312C102.446 13.76 102.59 14.352 102.59 15.088C102.59 15.888 102.35 16.6 101.87 17.224C101.39 17.832 100.694 18.312 99.7819 18.664C98.8859 19.016 97.7899 19.192 96.4939 19.192ZM121.436 5.896C122.46 5.896 123.364 6.104 124.148 6.52C124.948 6.92 125.572 7.544 126.02 8.392C126.484 9.224 126.716 10.296 126.716 11.608V19H122.972V12.184C122.972 11.144 122.756 10.376 122.324 9.88C121.892 9.384 121.284 9.136 120.5 9.136C119.956 9.136 119.468 9.264 119.036 9.52C118.604 9.76 118.268 10.128 118.028 10.624C117.788 11.12 117.668 11.752 117.668 12.52V19H113.924V12.184C113.924 11.144 113.708 10.376 113.276 9.88C112.86 9.384 112.26 9.136 111.476 9.136C110.932 9.136 110.444 9.264 110.012 9.52C109.58 9.76 109.244 10.128 109.004 10.624C108.764 11.12 108.644 11.752 108.644 12.52V19H104.9V6.088H108.476V9.616L107.804 8.584C108.252 7.704 108.884 7.04 109.7 6.592C110.532 6.128 111.476 5.896 112.532 5.896C113.716 5.896 114.748 6.2 115.628 6.808C116.524 7.4 117.116 8.312 117.404 9.544L116.084 9.184C116.516 8.176 117.204 7.376 118.148 6.784C119.108 6.192 120.204 5.896 121.436 5.896ZM130.072 19V6.088H133.816V19H130.072ZM131.944 4.288C131.256 4.288 130.696 4.088 130.264 3.688C129.832 3.288 129.616 2.792 129.616 2.2C129.616 1.608 129.832 1.112 130.264 0.711999C130.696 0.311999 131.256 0.111999 131.944 0.111999C132.632 0.111999 133.192 0.303999 133.624 0.688C134.056 1.056 134.272 1.536 134.272 2.128C134.272 2.752 134.056 3.272 133.624 3.688C133.208 4.088 132.648 4.288 131.944 4.288ZM137.291 19V1.192H141.035V19H137.291ZM150.917 19.192C149.445 19.192 148.149 18.904 147.029 18.328C145.925 17.752 145.069 16.968 144.461 15.976C143.853 14.968 143.549 13.824 143.549 12.544C143.549 11.248 143.845 10.104 144.437 9.112C145.045 8.104 145.869 7.32 146.909 6.76C147.949 6.184 149.125 5.896 150.437 5.896C151.701 5.896 152.837 6.168 153.845 6.712C154.869 7.24 155.677 8.008 156.269 9.016C156.861 10.008 157.157 11.2 157.157 12.592C157.157 12.736 157.149 12.904 157.133 13.096C157.117 13.272 157.101 13.44 157.085 13.6H146.597V11.416H155.117L153.677 12.064C153.677 11.392 153.541 10.808 153.269 10.312C152.997 9.816 152.621 9.432 152.141 9.16C151.661 8.872 151.101 8.728 150.461 8.728C149.821 8.728 149.253 8.872 148.757 9.16C148.277 9.432 147.901 9.824 147.629 10.336C147.357 10.832 147.221 11.424 147.221 12.112V12.688C147.221 13.392 147.373 14.016 147.677 14.56C147.997 15.088 148.437 15.496 148.997 15.784C149.573 16.056 150.245 16.192 151.013 16.192C151.701 16.192 152.301 16.088 152.813 15.88C153.341 15.672 153.821 15.36 154.253 14.944L156.245 17.104C155.653 17.776 154.909 18.296 154.013 18.664C153.117 19.016 152.085 19.192 150.917 19.192Z" fill="#323761"/>
</svg>
